<svg xmlns="http://www.w3.org/2000/svg" viewBox="0 0 32 32" width="32" height="32">
  <rect width="32" height="32" rx="6" fill="#FFB7C5"/>
  <g transform="translate(9, 3) scale(0.01360)" fill="rgba(255,255,255,0.7)">
    <path d="M333.6,560.84c-1.74,13.76,6.18,25.71,20.34,28.1l36.82,6.2c21.15,3.56,41.5,9.04,60.2,19.56,17.56,9.88,46.05,32.78,50.14,52.91,3.21,15.81,3.21,52.2,3.09,69.82-.26,38.32-12.12,74.6-35.69,104.84-20.8,26.68-59.2,58.16-88.98,73.13l-27,13.57c-.79.25-2.21,1.04-3.01,1.2-5.48,1.12-15.33,5.62-21.4,7.64-25.47,8.49-50.47,13.63-77.23,17.33l-.71-32.6-1.7-61.24c-.03-1.13-.26-2.03-.89-2.46-1.71-1.16-17.62,5.4-19.95,6.55h-1.83c-.92,0-2.04-.09-2.27,1.01-1.06-.05-2.04.87-3.02,1.08-7.97,1.75-15.46,5.21-23.66,7.67-13.05,3.91-25.65,7.45-39.21,10.53l-4.11-29.52c-8.61-61.92-.28-123.02,26.24-179.64,6.06-12.93,13.15-24.14,20.76-36.15,7.43-11.71,16.5-21.98,26.5-31.53,12.63-12.07,26.63-19.9,42.59-26.6s31.05-11.65,47.19-16.44c5.25-1.56,10.06-3.44,14.63-5.62.76,0,1.45.48,2.16.65Z"/>
    <path d="M665.33,309.64c.95-1.48,1.7-4.05,2.89-5.18,5.9-5.64,9.41-13.29,15.28-19.53,5.35-5.69,10.72-11.12,16.58-16.27,1.95-1.71,4.98-2.21,5.31-4.73.22-.04.61-.07.8-.19,11.95-7.45,24.13-14.26,38.08-18.72,21.45-6.86,42.52-10.71,64.96-13.18,22.99-2.53,44.98-1.05,67.9,2.03,38.73,5.21,64.23,13.26,99.47,29.36,5.12,2.34,10.07,4.93,13.96,8.92,1.11,1.14-.57,3.84-1.36,5.01-14.82,21.82-29.26,43.26-42.87,65.83-1.28,2.12-2.2,3.98-2.15,6.76,7.1,2.74,13.94,5.22,21.28,7.6l45.33,14.68c6.72,2.17,13.2,4.65,19.68,7.09-1.63,8.96-6.25,15.24-9.61,22.59-2.5,5.45-5.33,10.17-8.43,15.32-24.58,40.85-50.99,71.93-89.1,100.76-3.83,2.9-6.93,5.42-10.99,8-27.95,17.77-60.98,35.14-94.69,37.17-38.29,2.3-57.52-6.17-92.12-17.36l-27.19-8.79v-166.62c-15.8.11-27.35,4.51-42.51,6.32-.65-9.33-.36-17.72-.26-26.68.03-2.69,1.88-6.71-.73-8.65-2.27-1.69-5.57.55-9.07-1.09l19.57-30.44Z"/>
    <path d="M306.68,545.43c-3.27,1.91-7.85.66-10.19,3.17l-21.81,7c-36.01,11.92-74.27,10.25-109.24-4.86-8.56-3.7-16.58-7-24.68-11.48-21.17-11.7-40.1-25.54-57.81-41.88-35.48-32.74-60.54-67.13-81.08-110.62-1.27-2.68-2.05-5.19-1.82-7.89l47.84-16.06c12.92-4.34,25.44-7.85,38.39-12.83-.99-4.1-2.69-7.54-4.93-11.04l-31.63-49.19c-3.85-5.99-7.79-11.51-10.77-18.09,4.84-4.68,10.77-6.28,16.84-9.09,34.46-15.99,70.92-25.69,108.79-29.93,11.45-1.28,21.61-2.43,33.14-2.33,28.4.26,56.21,4.42,83.31,12.97,24.98,7.88,49.53,21.53,66.05,42.01,14.08,17.46,26.22,35.57,37.87,54.94-3.98,1.38-6.79,0-10.27.62l.06,35.68c-16.07-1.91-26.17-6.43-43.06-6.7l.15,157.35c0,2.88,2.09,8.19-.62,9.68-8.01,4.1-17.11,4.27-24.5,8.58Z"/>
    <path d="M652.34,288.68c-.57.95-1.25,1.27-1.15,1.93-1.41.31-2,1.75-2.02,3.08-1.49.74-1.19,2.41-1.87,3.12-5.36,5.62-8.39,12.22-12.57,18.39l-17.27,25.56c-1.55,2.3-2.83,5.51-6.01,6-6.79,1.05-13.04,3.07-19.23,4.68-3.98,1.04-6.68,1.9-9.83,3.16-21.49,8.6-51.7,27.72-61.17,49.23-.24.55-.74,1.01-.73,1.66l-5.22,6.54c-19.34-31.91-37.41-44.77-70.01-58.45-2.18-.92-3.92-1.51-5.7-1.92l-23.31-5.99-13.6-20.04-22.87-35.3c-15.56-24.01-24.78-53.93-25.76-82.64-.47-13.85-.66-27.39,3.88-40.53,6.97-20.17,13.1-39.68,22.09-59.08,10.64-22.96,23.41-43.99,38.45-64.25,11.61-15.63,24.37-29.35,38.5-42.49.85-.79,2.16-1.15,2.82-1.03.51.1,1.45.59,1.98,1.33l29.32,40.55,21.08,28.86c.77,1.05,1.88,1.86,2.73,1.83.71-.02,1.83-.24,2.48-1.12l33.53-45.38c6.76-9.15,12.54-18.29,21.37-26.4,27.51,25.68,50.57,54.21,68.24,86.62,14.21,26.05,23.6,53.23,32.91,81.08,3.15,9.42,3.65,18.15,3.92,28.13.89,33.32-8.16,64.76-24.99,92.85Z"/>
    <path d="M702.06,560.44c1.55,1.61,3.94,1.97,6.41,2.8,18.02,6.04,35.33,10.84,53.06,18.21,5.53,2.3,14.58,7.39,19.68,8.95.52.16,1.34,1.26,1.93.92,1.35,2.86,4.85,3.7,7.52,5.63l8.76,6.35c3.72,2.7,19.43,18.81,22.34,22.63,56.94,74.71,70.62,168.79,53.35,260.25l-49-13.94c-.83-.24-2.2-1.01-3.11-1.06-1.17-.88-2.46-1.82-4.09-1.74-.54.03-1.07-.23-1.61-.25-1.37-1.31-3.42-1.69-5.28-1.96-1.55-.22-3.47-.99-4.99-.99-6.74-3.64-14.56-5.28-22.35-7.85l-.58,21.84.07,1.85-.03,2.26v1.76s0,2.2,0,2.2c-.7,1.83.5,4.05.12,5.83-2.28,10.45-1.21,21.33-1.63,32.43l-1.08,28.34c-72.85-9.19-139.19-35.62-192.74-86.05-37.16-35-57.38-71.42-59.63-123.49-.73-16.83-1.63-76.04,5.56-87.75,6.31-10.27,14.53-18.35,23.39-26.47,8.12-7.44,17.72-12.29,26.19-18.66.61.03,1.75-.69,2.06-1.2,16.55-6.88,33.27-13.08,51.72-15.24.95-.15,1.47-.87.58-1.35.46.09,1.17-.19,1.58.03,3.17,1.72,6.76-.01,9.94-1.14,1.15-.27,2.7-.13,3.91-.25,7.35-.74,14.61-2.04,22.33-3.78,16.66-3.77,22.87-12.78,23.02-28.94l2.61-.18Z"/>
  </g>
  <text x="16" y="27" text-anchor="middle" font-family="sans-serif" font-weight="700" font-size="10" fill="white">ハル</text>
</svg>
