<?xml version="1.0" encoding="UTF-8"?>
<svg id="_레이어_2" data-name="레이어 2" xmlns="http://www.w3.org/2000/svg" viewBox="0 0 1305.33 1289.55">
  <defs>
    <style>
      .cls-1 {
        fill: #c3727e;
      }

      .cls-2 {
        fill: #fc6961;
      }

      .cls-3 {
        fill: #e8dbde;
      }

      .cls-4 {
        fill: #bf717d;
      }

      .cls-5 {
        fill: #d97b77;
      }

      .cls-6 {
        fill: #fac9d4;
      }

      .cls-7 {
        fill: #fdfcfc;
      }

      .cls-8 {
        fill: #aa767f;
      }

      .cls-9 {
        fill: #c16e7a;
      }

      .cls-10 {
        fill: #837675;
      }

      .cls-11 {
        fill: #65484d;
      }

      .cls-12 {
        fill: #fcb4bd;
      }

      .cls-13 {
        fill: #eadadc;
      }

      .cls-14 {
        fill: #fcb3bc;
      }

      .cls-15 {
        fill: #fbdd9c;
      }

      .cls-16 {
        fill: #fdfdfd;
      }
    </style>
  </defs>
  <g id="_레이어_1-2" data-name="레이어 1">
    <g>
      <path class="cls-8" d="M1251.17,843.94c-.75.09-1.57.14-2.45-.14.52.17-10.51-17.3-11.86-19.54l-5.63-9.38c-8.22-13.68-23.53-52.43-28.27-67.84l-2.53-8.23c-3.76-12.23-7.82-23.8-11.15-36.15-2.29-8.48-5.79-15.98-8.56-24.43-1.68-5.1-6.08-11.17-5.17-16.67l11.67-17.48c3.86-5.78,7.46-11.21,10.69-17.35l8.27-15.68c10.21-19.36,29.15-63.71,33.36-84.36.77-3.75,1.68-6.6,2.92-10.15,5.88-16.76,8.91-34.01,12.25-51.15,7.76-32.88,14.99-87.51,16.03-120.3l.85-26.69c.17-5.36.21-10.43.07-15.73l-.96-35.22c-1.66-60.7-24.71-196.92-64.67-244.96-23.21-27.9-52.18-22.56-82.87-11.05-47.34,17.75-99.7,53.77-138.95,85.8l-18.8,15.34-34.91,31.16c-1.69,1.51-3.45,3.25-4.96,4.76l-14.72,14.66c-37.47,37.31-70.93,78.06-98.37,123.16l-17.12,28.14c-1.59,2.61-3.17,8.52-6.96,9.01-53.29-14.29-101.4-19.1-156.37-16.8-39.28,1.64-77.56,7.12-114.99,18.22-3.44-.2-4.41-3.94-5.82-6.46-46.15-82.22-107.79-154.27-181.68-212.89-9.06-7.18-17.17-13.91-26.38-20.67l-8.62-6.33c-13.21-9.71-27.01-17.97-40.18-27.58l-6.37-4.65c-4.73-3.45-10.31-5.32-15.23-8.62-6.38-4.28-12.97-7.06-19.68-10.62-15.82-8.4-32.17-14.94-49.18-20.68-5.34-1.8-10.55-2.23-15.86-3.28-21.73-4.26-42.28,5.25-53.98,23.63-2.54,3.99-6.17,6.89-8.52,11.38-27.4,52.36-41.01,119.46-47.96,178.16-2.93,24.74-4.82,48.23-5.15,72.9-.1,7.27-.96,26.93-.17,32.5,1.1,7.8.35,15.47.83,23.37,1.33,22.16,3.41,43.62,7.01,65.49l6.24,37.95c8.09,49.15,23.93,100.32,44.25,145.6,4.14,9.24,7.7,18.54,13.43,26.68,2.51,3.57,4.19,7.13,6.2,10.88,3.96,7.4,8.44,13.84,13.2,20.94,10.11,15.1,6.18,7.44-2.87,35.12l-6.67,20.39-14.15,45.67c-4.04,13.05-8.54,25.2-14.83,37.29l-15.4,29.61c-7.46,14.36-23.93,38.27-34.65,50.28l-5.68,6.36-11.12,11.9c-5.87,6.28-12.31,12.29-15.25,20.73-5.28,15.15,12.72,35.85,23.64,44.34,9.89,7.69,19.08,15.34,30.64,20.55,2.43,1.09,7.76,3.08,6.08,6.53-1.65,3.39-7.69,3.18-10.51,5.15-3.79,2.65-7.12,3.94-11.24,6.07-8.19,4.24-13.96,14.62-12.18,24.05,2.23,11.82,22.67,29.18,32.08,35.87l9.22,6.56,10.26,7.85c3.41,2.61,6.99,4.34,10.42,6.58l13.85,9.06,30.45,19.74c12.7,8.23,26.01,18.8,38.61,28.08l6.8,5.01,9.82,7.36c10.71,8.02,19.77,12.89,30.06,20.81.66.51,29.79,18.35,32.41,19.86,4.25,2.45,13.44,8.56,18.41,9.24,3.41,3.38,8.27,5.78,12.96,8.09l26.79,13.18,38.75,16.2c26.23,10.97,52.78,18.98,80.27,25.73l33.81,8.3c22.12,5.43,43.75,9.41,66.37,12.47l34.3,4.64,12.54,1.64c10.67,1.39,20.98,1.49,31.58,2.31l19.42,1.5c34.67,2.68,98.56-2.06,132.83-7.06,1-.15,2.69.47,3.17-.67,1.29.35,2.52-.16,3.77-.33,7.41-.95,15.04-1.84,22.15-4.02.48.11,1.49.23,1.98.15,2.47-.42,6.8-.64,9.09-2.06,1.07-.29,2.64.11,3.78-.08s2.67.25,3.32-.98c3.03-.01,6.76-1.18,9.79-1.82,5.43-1.15,11.2-1.57,16.86-3.3,6.85-2.1,13.67-2.51,19.99-4.88.62-.23,1.41,0,2.05-.15l19.38-4.73c.86-.21,1.34-.84,1.63-1.23.63-.17,1.72.18,2.25-.21,18.96-5.02,55.46-15.72,73.4-23.1l24.12-9.92c10.36-4.26,19.69-8.94,29.9-13.71,31.72-14.82,63.9-34.59,92.58-54.47l18.99-13.16c5.71-3.96,10.23-9.7,16.71-11.21-.16.57-.43,1.21-1.26,1.85-22.84,17.67-46.15,33.67-70.87,48.76-63.31,38.62-125.27,62.48-197.15,80.67-63.18,15.99-127.17,25.44-192.23,28.08-16.78.68-31.59.51-48.25-.57-39.18-2.53-77.21-6.19-116.03-13.15-135.45-24.3-234.85-64.35-344.23-147.97-15-11.47-29.74-21.5-45.38-31.78l-27.18-17.89c-18.49-12.17-51.12-33.7-62.64-51.69-6.83-10.67-4.96-23.61,4.27-31.9s16.4-8.34,26.97-14.39c-24.18-11.19-79.4-48.68-56.85-79.86,5.16-7.13,24.65-25.09,35.02-38.73,22.28-29.31,39.75-61.35,53.18-95.75l16.07-49.99c5.75-17.88,10.93-35.11,18.69-52.59-18.75-25.45-33.09-52.58-45.33-81.63-16.28-38.64-27.98-77.71-36.01-118.9-17.22-88.26-22.28-161.29-10.81-251.08,6.57-51.46,17.05-104.75,37.17-152.54C83.4,34.75,98.17,7.08,126.03,1.23c24.65-5.18,58.43,9.52,80.75,20.54,34.43,17.01,66.51,37.03,96.8,60.7l23.69,18.51c10.28,8.03,26.93,21.73,36.32,30.39l11.47,10.57,21.27,20.55c6.04,5.83,10.95,12.32,17.52,17.6,1.66,3.8,4.63,5.63,7.4,8.75,36.59,41.05,68.11,85.57,94.91,134.23,65.09-19.34,135.36-22.8,202.19-15.44,24.31,2.67,47.1,8.15,70.7,13.87l8.88-15.73,15.01-24.1c23.99-38.51,52.02-73.39,82.91-106.52,8.12-8.71,16.12-16.37,24.56-24.48l17.33-16.66,8.98-8.08,8.45-7.51,27.98-23.04c40.16-33.06,98.17-72.55,147.7-88.75,10.41-3.41,20.11-6.22,31.11-6.59,17.72-.58,33.22,6.37,44.67,19.92,8.87,10.5,16.26,22.04,21.61,35.09,24.69,60.19,36.79,126.18,42.75,190.94,3.76,40.79,3.86,81.02.15,121.83-3.17,34.86-7.44,68.62-15.04,102.64-5.75,25.73-11.86,50.12-20.12,75.01-7.44,22.41-27.38,69.13-39.69,88.14l-19.12,29.51c10.34,26.61,18.15,52.78,26.57,79.83,11.28,36.26,26.85,69.82,47.41,100.99Z"/>
      <path class="cls-8" d="M1252.08,974.87c-.25-1.73.64-3.54,2.74-3.97,5.42-1.12,13.08-8.11,17.09-10.93,6.05-4.26,11.09-8.69,15.65-14.58,1.71-2.2,4.94-3.42,4.46-6.42.33-.29.52-.87.93-1.07,1.61-.8,2.36-2.44,3.14-3.99,3.95-2.12,11.43-17.3,3.11-30.45-2.68-4.23-24.83-26.01-28.78-30.92l-10.75-13.35c-3.52-4.37-8.26-8.74-8.45-14.34,10.59,13.81,21.07,27.35,34.21,39.52,5.6,5.19,10.62,10.7,15.04,16.74,20.25,27.66-27.81,63.27-48.38,73.75Z"/>
      <path class="cls-8" d="M1251.07,975.06l-7.15,5.7,19.15,9.02c12.97,6.11,18.74,19.86,12.68,33.21-3,6.62-7.57,12.4-13.25,17.35-13.91,12.11-28.44,22.62-43.85,32.86-11.8,7.85-22.62,16.15-34.68,22.56.65-3.56,4.41-4.68,7.4-6.7l42.19-28.56,11.6-8.7c9.41-7.05,18.88-14,25.81-23.8,1.89-2.68,2.84-6.75,4.19-9.89,4.14-9.6-3.49-20.99-9.91-24.37l-21.75-11.46c-.93-.49-.95-2.6-1.25-3.26-.43-.95,7.95-5.16,8.83-3.96Z"/>
      <path class="cls-8" d="M1183.21,1095.89c.55.61.14.88-.56,1.35l-34.77,23.45c-.72-2.84,2.22-3.43,4.15-4.96,6.09-4.85,18.92-14.06,25.72-17.24,1.95-.91,3.23-3.53,5.46-2.6Z"/>
      <path class="cls-8" d="M1137.11,1128.94c1.53-4.13,5.84-7.08,10.07-8.15,1.11,1.01-9.41,8.91-10.07,8.15Z"/>
      <path class="cls-4" d="M855.13,1261.69c-6.31,2.37-13.13,2.78-19.99,4.88-5.65,1.73-11.43,2.15-16.86,3.3.56-5.11,5.29-2.72,15.9-5.23l17.52-4.15c.88-.21,1.85-.89,2.91-.64.55.13.49,1.1.52,1.86Z"/>
      <path class="cls-4" d="M790.33,1274.65c-7.1,2.19-14.74,3.07-22.15,4.02-2.29-2.91,22.05-6.92,22.15-4.02Z"/>
      <path class="cls-4" d="M878.18,1255.57c-.29.39-.77,1.03-1.63,1.23l-19.38,4.73c-3.45-3.07,21.5-7.74,21.01-5.97Z"/>
      <path class="cls-4" d="M801.39,1272.74c-2.28,1.42-6.62,1.63-9.09,2.06.05-.72.06-1.61.48-2.17s8.25-3.35,8.61.11Z"/>
      <path class="cls-4" d="M764.41,1279c-.48,1.14-2.17.52-3.17.67-.43-.69-.08-1.71.62-2.01,1.06-.46,2.14.41,2.56,1.34Z"/>
      <path class="cls-4" d="M808.5,1271.68c-.66,1.23-2.18.79-3.32.98-.49-.68-.04-1.61.65-2.01,1-.57,1.99.7,2.67,1.03Z"/>
      <g>
        <path class="cls-4" d="M1268.84,935.65c7.01,5.95,14.9,8.81,23.17,3.32.48,2.99-2.75,4.21-4.46,6.42-4.56,5.89-9.6,10.32-15.65,14.58-4.01,2.82-11.67,9.81-17.09,10.93-2.11.44-2.99,2.24-2.74,3.97-.23.11-.76.19-1.01.19-.88-1.2-9.26,3.01-8.83,3.96.3.66.32,2.78,1.25,3.26l21.75,11.46c6.42,3.38,14.04,14.77,9.91,24.37-1.35,3.14-2.3,7.21-4.19,9.89-6.92,9.8-16.4,16.75-25.81,23.8l-11.6,8.7-42.19,28.56c-2.99,2.02-6.75,3.14-7.4,6.7-.17.09-.56.13-.75.13-2.23-.94-3.51,1.69-5.46,2.6-6.81,3.18-19.63,12.39-25.72,17.24-1.92,1.53-4.87,2.12-4.15,4.96-.18.12-.49.04-.7.09-4.22,1.07-8.54,4.01-10.07,8.15-.35.17-.6.76-.98.85-6.49,1.51-11.01,7.25-16.71,11.21l-18.99,13.16c-28.69,19.89-60.86,39.65-92.58,54.47-10.21,4.77-19.54,9.45-29.9,13.71l-24.12,9.92c-17.94,7.38-54.44,18.08-73.4,23.1,5.37-4.37,12.18-5.87,19.06-7.5,4.69-1.11,8.55-4.52,13.45-4.84,2.85-.18,21.4-6.62,20.11-9.16,10.85,3.02,12.41-5.98,21.09-6.2,6.52-.16,11.31-4.69,16.91-5.95,3.46-.78,5.67-1.4,9.14-3.1,10.58-5.19,21.9-8.36,31.98-15.55,2.01-1.44,6.39-2.6,5.49-6.04-.68-.38-2.72-.49-3.56-.58-.9-.1-2.01-2.14-.92-2.85s3.96-.72,3.01-3.34c-18.04-.09-13.72,7.1-24.23,5.22,4.85-2.77,9.9-6.3,15.54-8.27,5.08-1.77,8.73-4.13,13-7.03-2.02,1.37,19.94-11.64,17.64-8.73-.24,1.83-.66,4.44-4.04,4.56,2.01,3.65,6.18,3.16,9.48,4.48,9.14,3.65,14.87-2.04,22.01-6.42,5.19-3.19,14.86-8.84,18.94-12.92,1.23-1.23,4.78-1.28,3.56-4.3-.37-.91-1.67-1.72-1.75-2.71-.11-1.4,3.48-4.47,1.36-7.43-1.88-2.63-5.66.57-6.39.79s-1.06-.75-1.56-.98c.25-.94.43-1.89.54-2.85.32-.15.57-.6.85-.84.95-.06,2.27.12,3.51-.71,15.77-10.49,30.26-21.95,44.95-33.82-2.14,1.73,18.9-13.72,16.87-12.35l11.91-8.04,15.38-10.48,24.11-15.89c9.23-6.08,44.65-30.01,50.04-37.01,2.53-3.28,8.69-7.55,7.25-12.4-1.34-4.49-8.79-5.06-12.34-7.08-11.23-6.39-25.12-10.83-33.22-17.11-2.16-1.67-4.2-5.68-5.54-8.05.8-5.22,5.67-9.13,10.4-10.79,4.47-1.56,7.96-4.38,12.44-5.55,2.34-.61,3.97-1.55,4.09-3.66,13.54-6.64,25.98-15.07,37.89-24.25Z"/>
        <path class="cls-4" d="M1292.94,937.91c-.2-.97-.19-1.98.62-2.88.56-.61,1.68-.66,2.52-1.11-.78,1.55-1.53,3.19-3.14,3.99Z"/>
        <path class="cls-8" d="M58.82,1006.99c.07-.54.49-.84,1-.92-.13.44-.52.84-1,.92Z"/>
        <g>
          <path class="cls-1" d="M314.6,1192.77c.77-.2,2.32.48,3.04.8-.01.59-.02,1.76.93,2.16l29.4,12.48c17.19,7.3,34.51,12.85,52.19,18.84,1.69.57,3.05.75,4.42.38.24-.07.77,0,1,.08-.12.48-.04,1.03.11,1.54.21.74,1.04.28,1.87.51l43.72,12.13,31.29,6.94c6.23,1.38,12.53,1.69,18.35,4.68,5.97.21,11.56,1.08,17.74,2.18,28.2,4.99,55.96,8.29,84.48,10.48,3.7.28,21.32,2.04,23.28,1.66,3.87-.74,7.4.78,11.09.83,12.38.17,24.47.6,36.9-.13l16.04-.94,16.72-1.15c26.85-1.85,53.07-5.07,79.22-9.89l-.06-1.72h1c2.15,2.45,5.32.36,8.23.27,5.73-.18,27.94-6.74,34.74-6.44,3.63,2.35,14.16-1.06,18.17-2.32,4.34-1.36,25.89-5.98,27.6-9.13.7-.15,1.56-.05,2.22-.33,7.3,3.66,4.82-2.72,17.57-1.92.89.06,1.49,1.72,2.05,1.89,1.07.32,1.42-1.47,2.06-2.24,4.02-4.81,10.35-4.15,15.84-5.42,5.7-1.32,16.05-8.07,19.2-7.06-.75,1.08-2.35,1.94-4.38,2.18.36,4.21-.67,8.89,2.46,9.75,1.29,2.54-17.27,8.98-20.11,9.16-4.9.32-8.77,3.72-13.45,4.84-6.88,1.63-13.68,3.13-19.06,7.5-.53.39-1.62.04-2.25.21.5-1.78-24.46,2.9-21.01,5.97-.64.16-1.43-.08-2.05.15-.02-.75.03-1.73-.52-1.86-1.06-.25-2.03.43-2.91.64l-17.52,4.15c-10.6,2.51-15.33.12-15.9,5.23-3.03.64-6.76,1.8-9.79,1.82-.69-.32-1.68-1.6-2.67-1.03-.69.4-1.14,1.32-.65,2.01-1.14.19-2.7-.21-3.78.08-.35-3.46-8.2-.65-8.61-.11s-.43,1.45-.48,2.17c-.49.08-1.5-.04-1.98-.15-.1-2.9-24.44,1.12-22.15,4.02-1.25.16-2.48.67-3.77.33-.41-.94-1.5-1.8-2.56-1.34-.7.3-1.05,1.32-.62,2.01-34.27,4.99-98.16,9.74-132.83,7.06l-19.42-1.5c-10.6-.82-20.91-.92-31.58-2.31l-12.54-1.64-34.3-4.64c-22.63-3.06-44.25-7.05-66.37-12.47l-33.81-8.3c-27.49-6.74-54.04-14.76-80.27-25.73l-38.75-16.2-26.79-13.18c-4.69-2.31-9.55-4.71-12.96-8.09,1.89-.29,6.19.87,7.34-1.35,1.53-3.53,2.32-6.53,7.25-6.04.23-2.33-.47-3.64-.5-5.2l19.78,9.72c3.06,1.5,5.96,3.79,9.1,2.97Z"/>
          <path class="cls-6" d="M1081.11,1142.83c-.28.24-.53.69-.85.84-7.92,3.71-14.82,8.85-22.81,13.69-29.5,17.87-59.55,33.99-91.57,47.14-59.44,24.43-116.27,38.5-178.58,50.14h-1l-25.98,4-31.94,3.84-10.99.94-12,.98-11.99,1.02-16.35.79c-14.03.68-28.1.57-42.11-.08l-19.07-.89-36.1-3.04c-54.56-4.59-121.45-19.88-174.18-34.68-.23-.08-.76-.15-1-.08-.33-1.74-2.09-1.43-4.8-2.22-21.06-6.13-63.51-23.2-82.13-31.64-.72-.33-2.27-1-3.04-.8l-34.52-17.68c-54.23-27.77-102.3-69.98-153.94-103.57-18.91-12.3-37.18-24.18-55.19-37.61-4.56-3.4-22.14-17.55-20.14-22.41.88-2.13,5.59-2.67,7.02-4.43.28.08.71-.04,1-.08.47-.07.87-.47,1-.92.31-.04.71,0,1-.08l4-1.23-.11,2.07c-1.96,1.32-5.22,2.86-6.23,5.35-1.26,3.1,1.54,6.2,3.24,8.62,5.15,7.32,13.67,10.73,22.08,18.08,2.89,2.53,6.53,3.85,9.37,6.76,2.06,2.11,6.72,1.71,8.48,4.19,2.23,3.15,5.91,3.72,8.69,5.63l16.45,11.35c5.2,3.59,8.86,7.33,14.64,10.69l8.78,5.11c4.5,2.62,15.57,10.77,20.43,14.45l20.98,15.9c4.57,3.46,8.21,6.87,13.18,9.92.64.4,17.8,12.4,17.57,12.22l7.73,6.2c3.76,3.02,8.11,4.99,12.15,7.83,7.28,5.13,16.61,7.05,23.31,12.48,4.91,3.98,10.26,5.92,15.57,9.07,3.63,2.15,6.14,5.09,11.26,5.89-1.29-.2,23.74,12.62,24.32,12.81,10.44,3.47,27.62,11.95,32.38,13.43,13.37,4.15,13.9,5.89,27.24,11l7.82,3,15.19,4.94c2.5.82,5.61.15,8.44,1.63,8.05,4.21,16.6,5.9,25.38,7.66,5.82,1.17,11.48,4.05,17.32,4.27,3.92.15,6.21,1.77,9.56,2.72,5.06,1.44,10.48,1.3,15.35,3.7,4.7,2.31,10.07,1.51,14.87,2.44l17.37,3.34,22.09,4.87c6.68,1.47,12.56,2.63,19.83,2.61-10.82.02,57.18,5.39,54.38,5.14l19.58,1.75,18.76,1.03c3.77.21,6.64.87,10.47.16,8.08-1.5,34.8.14,38.38-.74,5.44-1.33,10.75-2.22,16.06-2.16l12.29.15c12.54.15,24.94-1.97,37.45-4.1l12.34-2.1c4.88-.83,11.1-.2,15.69-1.97,6.94-2.68,13.1-3.2,20.49-4.04,3.61-.41,6.4-3.2,10.91-2.94,5.64.32,11.35-3.78,17.09-4.13,11.43-.69,22.1-5.51,25.65-5.55,5.58-.05,9.66-3.38,14.71-4.29,12.06-2.16,23.05-5.82,34.32-10.28,7.89-3.13,16.54-3.76,23.87-7.49,7.69-3.91,20.83-7.07,32.71-12.37l21.16-9.45c8.06-3.6,10.28-4.78,17.93-9l10.95-6.04c5.01-2.76,9.13-5.42,14.23-7.97l17.93-8.97c3.57-1.78,6.09-4.6,9.38-6.73,5.74-3.71,12-6.04,17.26-10.72s10.96-7.75,16.61-11.4l7.43-4.8c2.3-1.49,5.58-3.36,7.28-5.36,3.69-4.34,8.16-6.61,12.27-10.01,6.54-5.41,13.36-9.79,20.4-14.51,3.37-2.27,5.57-4.85,9.7-6.48,5.12-2.02,8.87-7.35,13.76-9.88,3.64-1.88,5.7-4.93,8.89-7.15l8.86-6.17,22.68-14.47c5.31-3.39,10.38-6.69,15.53-10.44l16.72-12.16,10.24-9.32c3-2.73,3.5-7.53.47-9.58-2.34-1.58-4.55-2.57-7.36-3.73-.38-.94-.67-1.9-.92-2.88,8.48,4.19,22.33,6.2,16.2,13.33-8.51,9.89-18.53,17.44-29.22,24.83l-23.02,15.91-50.36,33.56-53.51,40.31c-5.25,3.95-10.43,7.1-15.08,11Z"/>
          <path class="cls-8" d="M64.82,1004.76l-4,1.23c0-.17-.25-1.51.38-1.73,7.76-2.74,14.28-6.57,21.58-10.33,5.96-3.07,14.28-5.09,17.26-11.84,1.98-4.5-3.32-9.34-6.78-11.72-5.3-3.65-18.06-6.51-17.44-9.54.29.02.7-.16.96-.05,8.82,3.73,26.24,9.07,26.39,18.66.05,3.39-1.99,7.29-5.37,9.35-10.66,6.47-21.59,12.48-32.98,15.97Z"/>
          <path class="cls-8" d="M57.82,1007.07c-1.43,1.76-6.14,2.3-7.02,4.43-2,4.86,15.59,19.01,20.14,22.41,18.01,13.43,36.28,25.32,55.19,37.61,51.64,33.59,99.71,75.8,153.94,103.57l34.52,17.68c-3.15.82-6.05-1.47-9.1-2.97l-19.78-9.72c-1.41-.69-4.11-.97-5.34-2.07-3.28-2.93-6.66-4.6-10.44-6.81l-33.83-19.78-14.08-9.73c-4.91-3.39-9.63-6.32-14.46-9.82l-29.06-21.12c-9.19-6.68-10.27-8.79-21.59-16.22l-15.11-9.91-7.01-4.94-28.04-18.63c-4.35-2.89-8.29-5.77-12.52-8.61-13.82-9.29-38.12-24.06-44.76-39.26-1.62-3.71,5.39-6.98,8.34-6.11Z"/>
          <path class="cls-1" d="M1038.13,1171.46c3.29-2.68,7.81-5.33,11.91-6.71,1.94-.66,4.07-.62,5.1-3.07.26-.05.59-.08.85-.06.68.07,1.48.12,2.11-.46.36-.33.53-.82.17-1.31.81.03,1.68-.53,2.49-.42,2.93.41,4.76-2.04,7.27-3.74,2.09-1.42,4.88-2.17,4.35-4.9.59-.25,1.14-.79,1.75-.97.71-.2,1.54.15,2.33-.26.62-.32.85-1.08.68-1.85.74-.18,1.54-1.68,2.6-1.2.5.23.87,1.18,1.56.98s4.5-3.42,6.39-.79c2.12,2.96-1.47,6.03-1.36,7.43.08.99,1.39,1.81,1.75,2.71,1.22,3.02-2.33,3.08-3.56,4.3-4.08,4.09-13.75,9.74-18.94,12.92-7.13,4.38-12.87,10.07-22.01,6.42-3.3-1.32-7.46-.83-9.48-4.48,3.39-.13,3.81-2.73,4.04-4.56Z"/>
          <path class="cls-1" d="M971.05,1221.72c2.7-3.52-2.16-8.14-3.26-8.7-2.42-1.21-6.64.23-8.8.42-1.17-4.81,10.51-.99,12.26-9.02.85-.33,1.9-1.01,2.85-.94.34,1.39,2.12.97,2.98.49.91-.52,1.39-1.37,1.3-2.34.35.01.7-.16,1.04-.18,4.17-.3,9.49-.61,10.73-5.02.38-.53,1.27-.64,1.8-.94,10.51,1.88,6.19-5.31,24.23-5.22.95,2.61-1.9,2.62-3.01,3.34s.02,2.75.92,2.85c.84.09,2.88.21,3.56.58.9,3.44-3.48,4.6-5.49,6.04-10.08,7.2-21.4,10.37-31.98,15.55-3.47,1.7-5.68,2.32-9.14,3.1Z"/>
          <path class="cls-8" d="M1080.26,1143.67c-.11.96-.29,1.92-.54,2.85-1.07-.48-1.86,1.02-2.6,1.2-1.29.31-2.87.44-3,2.11-.61.17-1.16.72-1.75.97-4.4,1.83-9.2,4.46-11.61,8.64-.81-.11-1.68.45-2.49.42-.46-.02-.98-.1-1.5.08-.64.22-1.45.94-.78,1.7-.27-.03-.59,0-.85.06-2.02.35-4.26,1.07-5.1,3.07-4.1,1.39-8.61,4.04-11.91,6.71,2.3-2.91-19.66,10.1-17.64,8.73-4.27,2.9-7.92,5.26-13,7.03-5.64,1.97-10.69,5.5-15.54,8.27-.53.3-1.42.41-1.8.94-1.12-.04-11.51,3.3-10.73,5.02-.35.02-.7.19-1.04.18-1.7-.06-3.24.53-4.28,1.85-.96-.06-2,.62-2.85.94l-21.29,8.17-14.54,5.43-29.83,10.23c-9.32,3.2-18.64,4.87-27.32,8.43-.67.27-1.52.18-2.22.33-15.37,3.21-30.63,7.33-45.77,11.45-6.8-.3-29.01,6.27-34.74,6.44-2.91.09-6.09,2.18-8.23-.27,62.31-11.64,119.15-25.72,178.58-50.14,32.02-13.16,62.06-29.28,91.57-47.14,7.98-4.83,14.89-9.98,22.81-13.69Z"/>
          <path class="cls-9" d="M971.05,1221.72c-5.59,1.26-10.39,5.79-16.91,5.95-8.68.21-10.24,9.22-21.09,6.2-3.12-.87-2.09-5.54-2.46-9.75,2.03-.24,3.63-1.1,4.38-2.18,4.24-1.06,9.84-2.16,13.77-4.73,9.24-6.03,3.62.24,10.24-3.76,2.17-.19,6.39-1.62,8.8-.42,1.11.55,5.97,5.17,3.26,8.7Z"/>
          <path class="cls-8" d="M1230.95,959.91c-.12,2.1-1.75,3.05-4.09,3.66-4.48,1.16-7.97,3.98-12.44,5.55-4.73,1.66-9.6,5.56-10.4,10.79,1.34,2.37,3.38,6.38,5.54,8.05,8.1,6.27,21.99,10.72,33.22,17.11,3.55,2.02,11,2.59,12.34,7.08,1.44,4.85-4.72,9.12-7.25,12.4-5.4,7-40.81,30.92-50.04,37.01l-24.11,15.89-15.38,10.48-11.91,8.04c2.04-1.37-19.01,14.08-16.87,12.35-14.7,11.87-29.19,23.33-44.95,33.82-1.24.83-2.56.65-3.51.71,4.65-3.91,9.84-7.05,15.08-11l53.51-40.31,50.36-33.56,23.02-15.91c10.68-7.39,20.71-14.93,29.22-24.83,6.13-7.13-7.73-9.15-16.2-13.33l-28.25-13.95c-4.11-2.03-6.62-5.43-6.53-9.6.08-3.56,1.96-7.68,5.73-9.47l22.92-10.92c.26-.12.7.05.99-.03Z"/>
          <path class="cls-11" d="M708.45,979.79c.9,26.91-31.71,47.87-57.02,46.93-20.45-.76-38.12-12.87-49.39-29.3-3.08-4.49-5.83-12.67-4.33-17.82,2.22-7.63,8.75-12.91,15.69-15.49,20.66-7.69,57.95-7.77,78.74-.98,8.32,2.72,14.65,8.7,16.3,16.66Z"/>
          <path class="cls-8" d="M786.3,1254.64l.06,1.72c-26.14,4.83-52.37,8.04-79.22,9.89l-16.72,1.15-16.04.94c-12.43.73-24.52.29-36.9.13-3.68-.05-7.21-1.58-11.09-.83-1.96.38-19.58-1.38-23.28-1.66-28.52-2.19-56.28-5.49-84.48-10.48-6.18-1.09-11.77-1.96-17.74-2.18-5.82-3-12.12-3.3-18.35-4.68l-31.29-6.94-43.72-12.13c-.83-.23-1.66.23-1.87-.51-.15-.51-.23-1.06-.11-1.54,52.73,14.8,119.62,30.09,174.18,34.68l36.1,3.04,19.07.89c14.01.65,28.08.76,42.11.08l16.35-.79,11.99-1.02,12-.98,10.99-.94,31.94-3.84,25.98-4Z"/>
          <path class="cls-4" d="M971.24,1204.43c-1.75,8.03-13.43,4.21-12.26,9.02-6.62,4-.99-2.27-10.24,3.76-3.93,2.56-9.53,3.66-13.77,4.73-3.15-1.01-13.5,5.74-19.2,7.06-5.48,1.27-11.82.61-15.84,5.42-.64.77-.98,2.56-2.06,2.24-.56-.17-1.15-1.83-2.05-1.89-12.75-.8-10.27,5.58-17.57,1.92,8.68-3.55,17.99-5.23,27.32-8.43l29.83-10.23,14.54-5.43,21.29-8.17Z"/>
          <path class="cls-8" d="M404.57,1227.44c-1.36.37-2.72.19-4.42-.38-17.68-6-35-11.54-52.19-18.84l-29.4-12.48c-.94-.4-.94-1.57-.93-2.16,18.62,8.44,61.07,25.51,82.13,31.64,2.71.79,4.47.49,4.8,2.22Z"/>
          <path class="cls-4" d="M876.04,1237.02c-1.71,3.15-23.26,7.77-27.6,9.13-4.01,1.26-14.53,4.67-18.17,2.32,15.14-4.12,30.4-8.24,45.77-11.45Z"/>
          <path class="cls-3" d="M1237.02,1006.77c2.81,1.16,5.02,2.15,7.36,3.73,3.03,2.05,2.53,6.85-.47,9.58l-10.24,9.32-16.72,12.16c-5.15,3.75-10.23,7.05-15.53,10.44l-22.68,14.47-8.86,6.17c-3.19,2.22-5.24,5.27-8.89,7.15-4.89,2.52-8.64,7.85-13.76,9.88-4.14,1.63-6.33,4.21-9.7,6.48-7.04,4.73-13.86,9.11-20.4,14.51-4.11,3.4-8.58,5.66-12.27,10.01-1.7,2-4.98,3.87-7.28,5.36l-7.43,4.8c-5.65,3.65-11.51,6.86-16.61,11.4s-11.52,7.01-17.26,10.72c-3.3,2.13-5.81,4.95-9.38,6.73l-17.93,8.97c-5.1,2.55-9.22,5.21-14.23,7.97l-10.95,6.04c-7.66,4.22-9.87,5.4-17.93,9l-21.16,9.45c-11.88,5.3-25.02,8.46-32.71,12.37-7.33,3.73-15.97,4.36-23.87,7.49-11.27,4.46-22.26,8.12-34.32,10.28-5.05.91-9.14,4.23-14.71,4.29-3.55.03-14.22,4.85-25.65,5.55-5.74.35-11.45,4.45-17.09,4.13-4.5-.25-7.29,2.53-10.91,2.94-7.39.84-13.55,1.36-20.49,4.04-4.6,1.78-10.82,1.14-15.69,1.97l-12.34,2.1c-12.5,2.13-24.91,4.25-37.45,4.1l-12.29-.15c-5.31-.06-10.62.83-16.06,2.16-3.57.87-30.29-.77-38.38.74-3.83.71-6.7.05-10.47-.16l-18.76-1.03-19.58-1.75c2.8.25-65.2-5.12-54.38-5.14-7.27.02-13.15-1.14-19.83-2.61l-22.09-4.87-17.37-3.34c-4.81-.92-10.17-.12-14.87-2.44-4.87-2.4-10.29-2.25-15.35-3.7-3.35-.95-5.64-2.57-9.56-2.72-5.84-.22-11.5-3.1-17.32-4.27-8.79-1.76-17.34-3.45-25.38-7.66-2.83-1.48-5.94-.81-8.44-1.63l-15.19-4.94-7.82-3c-13.34-5.12-13.87-6.85-27.24-11-4.75-1.48-21.94-9.96-32.38-13.43-.58-.19-25.61-13.02-24.32-12.81-5.13-.8-7.63-3.74-11.26-5.89-5.31-3.15-10.66-5.09-15.57-9.07-6.71-5.43-16.03-7.35-23.31-12.48-4.04-2.85-8.38-4.82-12.15-7.83l-7.73-6.2c.22.18-16.93-11.83-17.57-12.22-4.97-3.05-8.61-6.46-13.18-9.92l-20.98-15.9c-4.86-3.69-15.93-11.83-20.43-14.45l-8.78-5.11c-5.78-3.37-9.44-7.11-14.64-10.69l-16.45-11.35c-2.78-1.92-6.46-2.48-8.69-5.63-1.76-2.49-6.42-2.09-8.48-4.19-2.85-2.91-6.48-4.24-9.37-6.76-8.41-7.36-16.93-10.76-22.08-18.08-1.7-2.42-4.5-5.52-3.24-8.62,1.01-2.49,4.27-4.03,6.23-5.35,28.33,9.58,54.44,22.93,78.78,39.17l24.04,16.05c25.69,17.15,49.95,35.3,76.91,50.86,38.25,22.08,77.89,40.21,119.26,55.72,86.06,32.26,175.36,47.08,266.98,51.43,82.9,3.93,186.03-11.62,265.96-35.18,50.34-14.84,98.22-35.19,144.38-60.05,31.53-16.98,60.2-37.1,89.2-57.87,16.79-12.02,32.49-24.04,50.82-33.3l20.65-10.44c11.89-6.01,23.68-11.02,35.33-16.46Z"/>
          <path class="cls-4" d="M1072.36,1150.79c.53,2.73-2.26,3.48-4.35,4.9-2.51,1.7-4.33,4.15-7.27,3.74,2.41-4.17,7.21-6.81,11.61-8.64Z"/>
          <path class="cls-4" d="M1077.12,1147.72c.18.77-.06,1.53-.68,1.85-.78.41-1.62.06-2.33.26.14-1.66,1.71-1.79,3-2.11Z"/>
          <path class="cls-4" d="M1055.13,1161.67c-1.03,2.45-3.15,2.42-5.1,3.07.83-2.01,3.08-2.73,5.1-3.07Z"/>
          <path class="cls-4" d="M1058.27,1159.84c.36.49.19.98-.17,1.31-.63.58-1.43.53-2.11.46-.67-.75.14-1.48.78-1.7.52-.18,1.04-.09,1.5-.08Z"/>
          <path class="cls-4" d="M990.15,1196.43c-1.24,4.41-6.56,4.73-10.73,5.02-.78-1.72,9.62-5.07,10.73-5.02Z"/>
          <path class="cls-4" d="M978.38,1201.63c.09.97-.39,1.82-1.3,2.34-.85.48-2.63.9-2.98-.49,1.04-1.31,2.58-1.91,4.28-1.85Z"/>
          <g>
            <path class="cls-7" d="M495.3,921.82c11.3,3.94,22.29,8.05,33.36,13.89,24.95,13.15,48.03,25.92,69.05,43.89-1.5,5.15,1.25,13.33,4.33,17.82,11.26,16.42,28.94,28.54,49.39,29.3,25.31.94,57.93-20.01,57.02-46.93,1.6-.17,2.89-1.28,4.28-2.49,8.47-7.35,17.51-12.86,26.97-19.06,22.73-14.89,46.39-27.2,71.49-36.49,15.98,47.11,76.53,65.66,122.35,49.18,31.04-11.16,51.83-38.23,58.33-70.03,4.5-21.99,2.37-43.31-6.49-63.84-11.35-26.3-26.13-38.06-50.52-52.02,10,.57,17.86,4.92,26.3,8.85,22.02,10.28,38.48,28.23,47.23,50.91,11.83,30.66,10.18,48.2,9.81,80.12-4.72,6.19,8.97.22,17.55-.56,63.98-5.79,106.6,3.65,166.1,24.64l24.62,8.68c1.6.57,3.74.28,3.5,2.26l-22.92,10.92c-3.77,1.8-5.65,5.91-5.73,9.47-.09,4.16,2.42,7.57,6.53,9.6l28.25,13.95c.25.98.54,1.95.92,2.88-11.65,5.44-23.44,10.45-35.33,16.46l-20.65,10.44c-18.33,9.26-34.03,21.28-50.82,33.3-29,20.77-57.68,40.89-89.2,57.87-46.16,24.86-94.04,45.21-144.38,60.05-79.93,23.56-183.07,39.11-265.96,35.18-91.62-4.34-180.92-19.16-266.98-51.43-41.37-15.51-81.01-33.64-119.26-55.72-26.96-15.57-51.22-33.72-76.91-50.86l-24.04-16.05c-24.34-16.25-50.45-29.59-78.78-39.17l.11-2.07c11.39-3.49,22.33-9.5,32.98-15.97,3.39-2.06,5.43-5.96,5.37-9.35-.15-9.59-17.57-14.93-26.39-18.66-.19-2.09,1.52-2.49,3.43-3.22,25.05-9.53,49.85-16.99,75.74-24.34,43-12.21,85.53-11.85,128.64-7.44.33.03.68-.14,1.01-.05.19.85.42,1.62.89,1.95.88.61,2.32.73,3.1-.36.63-.88-.43-1.86-1.05-2.54-1.18-34.51-3.14-53.65,12.24-85.56,9.09-18.85,22.83-33.91,41.43-43.71,9.54-5.03,19.09-9.69,30.48-10.44-17.67,8.39-33.12,20.45-43.8,36.96-28.16,43.54-20.03,101.6,19.89,134.59,15.65,12.94,34.12,20.07,54.63,20.33,21.89.28,43.58-4.79,62.02-17.57,12.82-8.89,24.42-22.78,29.85-37.56ZM356.53,1044.88c11.95-12.03,13.31-29.49,2.73-42.8-3.26-4.1-6.52-7.81-11.05-10.87-15.85-10.7-33.94-16.08-52.97-17.8-24.67-2.23-57,2.79-77.64,17.21-9.24,7.08-16.69,15.62-18.53,27.24-3.34,21.11,18.39,35.84,35.32,43.13,33.74,14.51,94.55,11.67,122.14-16.11ZM1100.79,1040.71c11.17-14.15,6.98-33.57-7.2-45.5-27.76-23.34-75.93-27.37-109.62-16.55-13.44,4.32-25.98,10.34-35.05,20.53-10.82,12.16-12.14,28.69-2.41,41.48,29.38,38.62,123.91,38.51,154.28.03ZM775.34,1047.19c-2.63-3.64-7-4.24-11-3.56-2.93.5-6.41,3.44-7.88,7.13-8.05,20.22-27.17,31.95-49.27,30.68-17.52-1.01-33.35-9.32-45.91-21.38-4.99-4.8-10.62-4.2-15.49.24-12.65,11.53-28.07,19.68-45.11,20.99-22.98,1.77-42.11-10.82-50.17-31.57-2.13-5.47-8.65-7.27-12.88-6.01-5.84,1.73-7.74,7.18-6.87,13.16,7.2,22.77,25.2,39.48,48.7,44.59,26.64,5.8,53.55-1.56,74.23-20.16,26.31,25.19,73.14,30.33,101.59,7.36,8.21-6.55,27.69-30.91,20.06-41.47Z"/>
            <path class="cls-11" d="M775.34,1047.19c7.62,10.56-11.85,34.92-20.06,41.47-28.44,22.97-75.27,17.83-101.59-7.36-20.68,18.6-47.59,25.96-74.23,20.16-23.5-5.11-41.51-21.82-48.7-44.59-.87-5.98,1.04-11.43,6.87-13.16,4.23-1.25,10.75.54,12.88,6.01,8.06,20.75,27.19,33.34,50.17,31.57,17.04-1.31,32.46-9.46,45.11-20.99,4.87-4.44,10.5-5.03,15.49-.24,12.56,12.06,28.38,20.38,45.91,21.38,22.1,1.27,41.22-10.46,49.27-30.68,1.47-3.7,4.95-6.63,7.88-7.13,3.99-.68,8.37-.08,11,3.56Z"/>
          </g>
          <path class="cls-12" d="M288.55,924.78c.62.67,1.67,1.66,1.05,2.54-.78,1.09-2.22.98-3.1.36-.47-.33-.7-1.1-.89-1.95.89-.55,1.9-.86,2.94-.95Z"/>
          <g>
            <g>
              <path class="cls-11" d="M495.3,921.82c-5.43,14.78-17.03,28.67-29.85,37.56-18.44,12.79-40.13,17.85-62.02,17.57-20.52-.26-38.98-7.39-54.63-20.33-39.92-33-48.06-91.06-19.89-134.59,10.68-16.51,26.13-28.56,43.8-36.96-11.39.75-20.94,5.41-30.48,10.44-18.6,9.8-32.35,24.86-41.43,43.71-15.38,31.91-13.42,51.04-12.24,85.56-1.04.09-2.05.4-2.94.95-.33-.09-.69.09-1.01.05-4.55-2.89-7.55-7.31-10.06-12.73-9.52-20.55-10.96-43.8-5.43-66.17-9.14-2.94-16.94-7.35-22.7-14.52-2.86-3.56-4.46-9.45-1.29-12.91,5.27-5.73,23.32,4.85,34.45,1.63,2.03-4.13,4.17-7.72,7.11-11.63-9.52-6.51-22.84-21.73-19.14-33.86.68-2.22,2.49-3.9,3.95-4.23,2.07-.47,3.93.16,5.64,1.28,7.77,5.12,15.18,10.28,23.39,14.68,2.57,1.38,4.48,1.17,6.76-.71,20.36-16.76,44.36-26.99,70.92-29.74,41.26-4.27,80.44,15.84,102.77,50.57,10.57,16.43,16.8,33.9,19.17,53.78,2.4,20.08,2.18,41.53-4.83,60.61ZM463.47,836.46c0-16.55-13.41-29.96-29.96-29.96s-29.96,13.41-29.96,29.96,13.41,29.96,29.96,29.96,29.96-13.41,29.96-29.96ZM360.51,859.36c2.58-4.59,1.26-10.64,5.26-12.35l11.29-4.83c-4.39-2.43-9.46-2.12-12.54-5.34-2.85-2.97-1.68-8.02-4.82-10.69-7.1,17.72-.29,8.39-16.02,16.56,4,2.1,8.89,2.07,11.56,5.55s1.84,8.23,5.27,11.1ZM359.42,940.04c-.82,2.22,1.4,4.45,3.17,6.01,14.63,12.82,33.87,17.69,53.2,15.38,16.47-1.96,39.04-7.81,42.8-26.46,1.3-6.45-.57-11.97-5.09-15.65s-10.78-5.53-16.63-2.29c-18.11,10-39.52,10.43-57.68.18-1.54-.87-3.46-.32-4.44-1.42,4.57-1.73,9.17-3.25,14.46-5.79-7-4.71-20.23-5.86-23.51-13.33-2.51-5.72-3.69-11.66-6.71-17.21-4.7,1.43-4.79,15.66-10.18,20.6s-12.9,5.23-19.87,9.08c7.11,5.92,19.29,5.1,22.8,15.76l4.2,12.76c.57,1.74,1.97,2.89,3.47,2.39Z"/>
              <path class="cls-10" d="M374.76,915.78c.98,1.11,2.9.55,4.44,1.42,18.16,10.24,39.58,9.82,57.68-.18,5.85-3.23,12.06-1.43,16.63,2.29s6.39,9.2,5.09,15.65c-3.76,18.65-26.33,24.49-42.8,26.46-19.34,2.31-38.58-2.56-53.2-15.38-1.77-1.55-3.99-3.79-3.17-6.01l5.93-16.09c1.83-4.95,5.29-6.62,9.41-8.17Z"/>
              <circle class="cls-7" cx="433.51" cy="836.46" r="29.96"/>
              <path class="cls-7" d="M374.76,915.78c-4.11,1.55-7.58,3.22-9.41,8.17l-5.93,16.09c-1.5.5-2.9-.65-3.47-2.39l-4.2-12.76c-3.51-10.66-15.69-9.84-22.8-15.76,6.97-3.85,14.53-4.19,19.87-9.08s5.48-19.16,10.18-20.6c3.02,5.55,4.2,11.49,6.71,17.21,3.28,7.47,16.52,8.62,23.51,13.33-5.29,2.54-9.89,4.06-14.46,5.79Z"/>
              <path class="cls-7" d="M360.51,859.36c-3.44-2.87-2.71-7.77-5.27-11.1s-7.56-3.45-11.56-5.55c15.74-8.17,8.93,1.16,16.02-16.56,3.13,2.67,1.97,7.72,4.82,10.69,3.08,3.21,8.15,2.91,12.54,5.34l-11.29,4.83c-4,1.71-2.68,7.76-5.26,12.35Z"/>
            </g>
            <g>
              <path class="cls-11" d="M1018.21,924.91c.37-31.92,2.02-49.46-9.81-80.12-8.75-22.68-25.21-40.63-47.23-50.91-8.44-3.94-16.3-8.29-26.3-8.85,24.39,13.96,39.17,25.72,50.52,52.02,8.87,20.54,10.99,41.85,6.49,63.84-6.5,31.8-27.29,58.86-58.33,70.03-45.82,16.48-106.37-2.07-122.35-49.18-8.19-24.15-7.9-50.1-1.94-74.92,5.58-23.25,16.6-43.6,33.81-60.08,45.84-43.93,112.54-37.46,158.95,2.15,10.09-4.32,18.02-10.42,26.49-16.4,1.56-1.1,3.22-2.1,4.91-1.79,6.39,1.17,6.79,9.13,4.75,15.49-3.1,9.67-9.98,16.76-18.3,22.78l6.43,11.51c13.09,4.37,31.06-7.89,35.79-.65,7.05,10.79-16.01,24.38-25.08,27.07,5.31,20.8,4.5,42.06-3.19,61.75-2.66,6.8-7.79,17.75-15.6,16.26ZM902.41,836.53c0-16.64-13.49-30.12-30.12-30.12s-30.12,13.49-30.12,30.12,13.49,30.12,30.12,30.12,30.12-13.49,30.12-30.12ZM945.65,859.15c3.22-3.54,2.3-8.54,5.26-11.47,2.94-2.92,8-2.22,10.71-5.46l-10.36-4.3c-3.14-1.3-3.8-12.18-6.37-11.48-1.63.44-1.75,8.53-4.96,11.26s-7.86,1.84-10.66,4.83c3.53,2.4,9.56,1.69,11.13,5.14l5.25,11.49ZM934.2,917.55c-2.2.17-4.24-.95-7.05-1.28-17.9,10.7-38.79,10.95-57.28,1.82-6.01-2.97-12.34-2.24-16.88,1.14-5.55,4.14-7.52,10.68-5.5,17.61s7.18,12.66,13.84,15.92c26.8,13.11,58.29,12.36,82.66-5.94,5.9-4.43,9.36-9.95,11.27-16.95.19-.69.64-1.24.55-1.61-.22-.9-1.17-1.1-1.84-.8,2.28-4.69,2.72-9.43,9.34-11.72,4.32-1.49,9.44-3.22,14.37-6.05-8.74-6.25-19.82-3.8-24.49-16.12-1.8-4.76-2.53-9.88-5.82-14.71-6.34,8.65-4.66,19.75-13.48,23.77-5.43,2.48-11.25,3.67-16.89,6.89,6.15,3.53,12.41,4.27,17.2,8.01Z"/>
              <path class="cls-10" d="M934.2,917.55c7.15-.57,8.67,18.07,13.3,23.21l6.47-13.29c.67-.3,1.61-.11,1.84.8.09.36-.36.91-.55,1.61-1.9,7-5.37,12.52-11.27,16.95-24.38,18.3-55.86,19.05-82.66,5.94-6.66-3.26-11.85-9.12-13.84-15.92s-.05-13.47,5.5-17.61c4.54-3.39,10.87-4.11,16.88-1.14,18.49,9.14,39.38,8.88,57.28-1.82,2.81.33,4.85,1.45,7.05,1.28Z"/>
              <circle class="cls-7" cx="872.29" cy="836.53" r="30.12"/>
              <path class="cls-7" d="M953.98,927.47l-6.47,13.29c-4.63-5.14-6.15-23.77-13.3-23.21-4.79-3.73-11.05-4.48-17.2-8.01,5.64-3.22,11.46-4.42,16.89-6.89,8.82-4.02,7.14-15.12,13.48-23.77,3.29,4.83,4.02,9.95,5.82,14.71,4.67,12.31,15.75,9.87,24.49,16.12-4.93,2.82-10.05,4.55-14.37,6.05-6.62,2.29-7.06,7.04-9.34,11.72Z"/>
              <path class="cls-7" d="M945.65,859.15l-5.25-11.49c-1.57-3.44-7.61-2.73-11.13-5.14,2.8-2.99,7.54-2.18,10.66-4.83s3.33-10.82,4.96-11.26c2.58-.7,3.23,10.18,6.37,11.48l10.36,4.3c-2.71,3.24-7.77,2.54-10.71,5.46-2.95,2.93-2.04,7.94-5.26,11.47Z"/>
            </g>
          </g>
          <g>
            <path class="cls-5" d="M1100.79,1040.71c-30.37,38.48-124.89,38.59-154.28-.03-9.73-12.79-8.41-29.32,2.41-41.48,9.07-10.19,21.62-16.22,35.05-20.53,33.69-10.83,81.86-6.8,109.62,16.55,14.19,11.93,18.37,31.35,7.2,45.5ZM1030.14,1066.04c16.89-.51,32.17-5.12,47.85-11.49,8.4-3.41,14.6-10.5,20.3-17.6,9.71-12.1,4.92-27.42-6.03-37.16-9.3-8.27-19.77-14.99-32.46-16.5-14.16-8.78-42.47-5.95-58.67-5.03-7.12.41-12.11,3.26-18.26,6.03-.37.17-18.75,5.67-22.45,9.83-3.47,3.9-7.89,6.78-11.11,10.87-11.96,15.21-4.59,32.53,10.48,43.15,19.95,14.07,46.12,18.63,70.35,17.9Z"/>
            <path class="cls-2" d="M1030.14,1066.04c-24.23.73-50.4-3.83-70.35-17.9-15.06-10.62-22.44-27.94-10.48-43.15,3.21-4.09,7.64-6.97,11.11-10.87,3.7-4.16,22.08-9.67,22.45-9.83,6.15-2.78,11.15-5.63,18.26-6.03,16.19-.92,44.5-3.75,58.67,5.03,12.69,1.51,23.16,8.23,32.46,16.5,10.95,9.74,15.74,25.06,6.03,37.16-5.7,7.1-11.9,14.19-20.3,17.6-15.68,6.37-30.96,10.98-47.85,11.49Z"/>
          </g>
          <g>
            <path class="cls-5" d="M356.53,1044.88c-27.58,27.78-88.4,30.61-122.14,16.11-16.94-7.28-38.66-22.01-35.32-43.13,1.84-11.61,9.29-20.15,18.53-27.24,20.64-14.42,52.97-19.43,77.64-17.21,19.04,1.72,37.12,7.1,52.97,17.8,4.53,3.05,7.79,6.77,11.05,10.87,10.58,13.31,9.22,30.76-2.73,42.8ZM322.11,1059.9c8.29-2.31,14.98-6.18,22.11-10.56,11.71-7.2,20.16-20.06,17.15-34.34-1.3-6.18-5.66-10.88-9.37-15.35-3.12-3.76-6.65-5.45-10.4-7.97-5.43-3.65-11.05-4.11-17.07-6.4-5.53-2.1-9.72-6.25-16.58-6.3-3.65-.03-7.86-1.7-11.96-1.93-13.38-.77-27.13-.5-40.25,2.92l-7.98,2.08c-17.43,4.54-36.32,13.45-43.58,30.89-5.8,13.92,2.71,26.3,14,33.62,9.43,6.12,17.88,11.61,28.88,15.01,5.22,1.61,10.72,1.88,16.17,2.96,6.57,1.29,12.79,1.17,19.42,1.56,13.77.81,25.74-2.36,39.47-6.19Z"/>
            <path class="cls-2" d="M322.11,1059.9c-13.72,3.83-25.69,7-39.47,6.19-6.62-.39-12.85-.27-19.42-1.56-5.45-1.07-10.95-1.35-16.17-2.96-11-3.39-19.44-8.88-28.88-15.01-11.28-7.32-19.8-19.7-14-33.62,7.27-17.44,26.15-26.35,43.58-30.89l7.98-2.08c13.11-3.42,26.87-3.69,40.25-2.92,4.1.24,8.31,1.91,11.96,1.93,6.87.05,11.05,4.2,16.58,6.3,6.02,2.28,11.64,2.75,17.07,6.4,3.75,2.52,7.28,4.21,10.4,7.97,3.71,4.47,8.07,9.17,9.37,15.35,3,14.28-5.44,27.14-17.15,34.34-7.13,4.38-13.82,8.24-22.11,10.56Z"/>
          </g>
        </g>
        <g>
          <g>
            <path class="cls-12" d="M808.98,350.46c1.12.27,2.35,2.84,4.23,1.93.57.42,1.4.73,2.08.98l24.55,9.22c2.23.84,4.22,1.6,6.25,1.63l2.12,11.93c-9.32,4.76-29.07,5.87-26.97,19.22,2.13,13.53,7.16,26.89,15.88,36.71,1.69,1.9,3.97,4.76,5.52,6.83,9.12,12.11,23.03,19.48,37.64,24.87-26.07,17.7-39.77,49.95-36.71,80.04.61,5.99,5.27,9.85,10.74,10.22l21.15,1.46c.44,10.38-.73,27.35,10.05,33.44,32.08,3.28,62.36-9.06,81.93-36.11,10.62,28.81,32.29,52.58,61.75,58.54,5.03,2.46,12.47,3.24,16.08-1.95,5.15-7.42,6.45-16.11,9.8-24.5,10.36,2.93,28.21,12.95,34.11,1.32,3.77-7.43,5.33-15.44,6.74-23.24,1.95-10.86,1.12-22.05-.79-32.97l2.94.43,1.29,1.61c1.11,5.73,8.72,10.87,8.92,14.68-3.95,1-7.93,3.54-9.27,6.8-1.89,4.58-.82,8.94,1.66,12.98,45.77,74.45,57.77,106.4,83.22,189.64,13.85,45.29,35.28,86.98,65.25,123.62,10.57,12.91,22.28,23.42,34.15,35.44-2.61,8.39-10.88,14.36-14.42,20.47-11.92,9.18-24.35,17.61-37.89,24.25-.29.08-.72-.1-.99.03.24-1.98-1.9-1.7-3.5-2.26l-24.62-8.68c-59.5-20.99-102.11-30.43-166.1-24.64-8.58.78-22.27,6.74-17.55.56,7.82,1.49,12.95-9.46,15.6-16.26,7.69-19.69,8.5-40.94,3.19-61.75,9.07-2.7,32.13-16.28,25.08-27.07-4.73-7.24-22.7,5.01-35.79.65l-6.43-11.51c8.32-6.02,15.2-13.11,18.3-22.78,2.04-6.35,1.64-14.32-4.75-15.49-1.69-.31-3.35.68-4.91,1.79-8.47,5.99-16.4,12.08-26.49,16.4-46.41-39.62-113.11-46.08-158.95-2.15-17.21,16.49-28.23,36.83-33.81,60.08-5.96,24.82-6.25,50.77,1.94,74.92-25.11,9.29-48.76,21.6-71.49,36.49-9.46,6.2-18.5,11.71-26.97,19.06-1.39,1.21-2.69,2.32-4.28,2.49-1.65-7.96-7.98-13.94-16.3-16.66-20.8-6.79-58.08-6.71-78.74.98-6.95,2.58-13.47,7.86-15.69,15.49-21.01-17.96-44.1-30.73-69.05-43.89-11.07-5.84-22.06-9.95-33.36-13.89,7.01-19.08,7.23-40.53,4.83-60.61-2.37-19.87-8.6-37.35-19.17-53.78-22.33-34.73-61.51-54.83-102.77-50.57-26.55,2.75-50.56,12.98-70.92,29.74-2.28,1.88-4.19,2.09-6.76.71-8.21-4.4-15.62-9.55-23.39-14.68-1.71-1.13-3.57-1.75-5.64-1.28-1.45.33-3.27,2.01-3.95,4.23-3.7,12.13,9.62,27.35,19.14,33.86-2.95,3.91-5.08,7.5-7.11,11.63-11.13,3.22-29.18-7.36-34.45-1.63-3.18,3.45-1.57,9.35,1.29,12.91,5.76,7.17,13.57,11.59,22.7,14.52-5.54,22.37-4.09,45.63,5.43,66.17,2.51,5.42,5.51,9.84,10.06,12.73-43.11-4.41-85.64-4.78-128.64,7.44-25.89,7.35-50.69,14.81-75.74,24.34-1.91.73-3.62,1.12-3.43,3.22-.26-.11-.67.07-.96.05s-.63-.12-.92-.07c-.33-1-1.19-1.55-2.1-1.96-18.59-8.5-42.15-23.66-50.85-43.34l23.27-24.21c35.29-36.72,63.11-93.7,77.96-142.56,8.54-28.09,16.88-55.15,27.81-82.55,14.33-35.94,32.79-69.34,54.28-101.3,2.66-3.95,3.05-8.4.85-12.53-1.52-2.85-4.92-5.34-8.52-6.25,15.59-25.39,36.08-47.91,56.99-69.7,1.25-1.3,2.05-2.6,2.2-3.94,1.99.32,2.97-1.41,4.43-2.82l21.28-20.51,13.73-11.43c6.27-5.22,12.25-10.28,18.91-15.13,6.14-4.47,11.56-9.91,18.28-12.74,4.18,2.3,9.21,3.63,13.5,1.35s6.96-7.37,5.79-13.06c-6.03-29.17-21.06-72.2-33.59-99.56-24.58-53.64-55.79-103.53-94.03-148.6-20.54-24.21-43.47-45.45-69.52-63.12-3.43-2.33-7.81-2.74-11.12-1.18-7.65,3.59-6.27,15.11-2.37,18.39,5.67,4.77,11.82,8.42,16.69,13.48-4.48-1.52-7.76.17-11.09,3.88-10.51,11.74-16.42,25.97-20.83,41.39-9.17,32.04-15.38,64.46-16.87,97.75l-.77,17.22c-.52,11.52-.71,22.69-.1,34.38,3.69,71.04,18.44,143.59,49.87,207.73,1.48,3.03,20.89,40.69,23.74,37.39-15.01,25.91-31.28,50.84-43.72,79.29-8.63-11.8-14.85-23.17-21.14-35.45-30.37-59.36-47.08-125.32-57.06-191.18-12.35-81.41-10.27-154.55,3.9-235.65,6.35-36.33,15.6-71.24,29.34-105.34,5.22-12.94,11.39-24.6,20.18-35.03,7.69-9.12,18.63-12.82,30.59-10.63,42.72,7.84,99.6,44.04,135.05,69.95,86.86,63.46,160.62,140.84,213.27,236.36l-32.92,11.27c-4.15,1.42-7.16,4.92-7.97,8.5-.91,4,.14,8.32,3.18,11.08s7.34,3.04,11.39,1.6c34.09-12.11,68.34-22.3,104.42-28.01,51.73-8.18,103.71-8.61,155.61-2.15,26.04,3.24,50.29,10.09,75.16,17.32,2.54.74,4.91,1.47,6.96,1.3Z"/>
            <path class="cls-8" d="M74.91,960.75c-.66.1-1.66.24-2.01-.45-.25-.48-.1-1.11-.09-1.52.91.42,1.77.96,2.1,1.96Z"/>
          </g>
          <g>
            <path class="cls-9" d="M1251.17,843.94l.03.92c.19,5.6,4.94,9.97,8.45,14.34l10.75,13.35c3.95,4.91,26.1,26.69,28.78,30.92,8.32,13.15.85,28.32-3.11,30.45-.84.45-1.96.5-2.52,1.11-.82.89-.82,1.9-.62,2.88-.41.2-.6.78-.93,1.07-8.27,5.49-16.16,2.62-23.17-3.32,3.54-6.11,11.81-12.09,14.42-20.47-11.87-12.02-23.59-22.53-34.15-35.44-29.98-36.64-51.4-78.33-65.25-123.62-25.45-83.23-37.46-115.19-83.22-189.64-2.48-4.03-3.55-8.39-1.66-12.98,1.34-3.26,5.33-5.8,9.27-6.8,8.75.21,10.2,8.25,14.86,12.39.42.36.75,1.26,1.04,1.77,13.9,24.84,29.08,48.75,41.7,75.52,6.86-8.5,11.6-16.89,16.58-26.09,15.05-27.83,26.6-56.47,35.95-86.72,21.02-68,33.28-148.14,32.68-219.34-.5-59.14-8.25-117.14-22.23-174.33-5.86-23.97-13.39-46.43-23.25-68.73-9.09-20.57-23.78-42.86-49.55-37.64-30.75,6.22-69.73,27.13-96.38,44.55-61.49,40.22-117,88.66-165.75,143.83-31.64,35.81-58.76,74.89-81.83,116.37l9.27,3.89c2.09,3.74.88,8.27,1.52,12.68.21,1.48,2.54,2.45,2.03,3.8-2.8,7.33-13.66-4.98-15.92,1.78-2.04.17-4.42-.56-6.96-1.3-24.87-7.23-49.12-14.08-75.16-17.32-51.9-6.46-103.88-6.04-155.61,2.15-36.08,5.71-70.34,15.91-104.42,28.01-4.05,1.44-8.28,1.21-11.39-1.6s-4.09-7.07-3.18-11.08c.81-3.57,3.82-7.07,7.97-8.5l32.92-11.27c-52.65-95.52-126.41-172.9-213.27-236.36-35.45-25.9-92.34-62.11-135.05-69.95-11.96-2.2-22.9,1.5-30.59,10.63-8.79,10.43-14.96,22.09-20.18,35.03-13.74,34.1-23,69.01-29.34,105.34-14.16,81.1-16.24,154.24-3.9,235.65,9.99,65.86,26.69,131.82,57.06,191.18,6.28,12.28,12.51,23.65,21.14,35.45,12.44-28.45,28.72-53.38,43.72-79.29.9-1.55,3.24-2.68,4.3-4.83,2.08-4.22,6.37-6.43,10.58-6.35,3.61.91,7,3.39,8.52,6.25,2.2,4.13,1.8,8.58-.85,12.53-21.49,31.96-39.96,65.35-54.28,101.3-10.92,27.4-19.27,54.47-27.81,82.55-14.86,48.87-42.67,105.85-77.96,142.56l-23.27,24.21c8.7,19.68,32.26,34.84,50.85,43.34-.01.41-.15,1.04.09,1.52.35.69,1.35.54,2.01.45.29-.04.62.06.92.07-.62,3.03,12.14,5.89,17.44,9.54,3.47,2.39,8.77,7.23,6.78,11.72-2.98,6.76-11.31,8.78-17.26,11.84-7.3,3.76-13.82,7.59-21.58,10.33-.63.22-.38,1.57-.38,1.73-.29.09-.69.04-1,.08-.51.07-.93.38-1,.92-.29.04-.72.17-1,.08-2.94-.87-9.95,2.4-8.34,6.11,6.64,15.21,30.93,29.97,44.76,39.26,4.23,2.84,8.17,5.72,12.52,8.61l28.04,18.63,7.01,4.94,15.11,9.91c11.33,7.43,12.4,9.54,21.59,16.22l29.06,21.12c4.82,3.5,9.55,6.43,14.46,9.82l14.08,9.73,33.83,19.78c3.77,2.21,7.15,3.88,10.44,6.81,1.24,1.1,3.93,1.38,5.34,2.07.03,1.56.72,2.87.5,5.2-4.94-.49-5.72,2.51-7.25,6.04-1.15,2.22-5.45,1.06-7.34,1.35-4.97-.69-14.16-6.8-18.41-9.24-2.62-1.51-31.76-19.36-32.41-19.86-10.29-7.92-19.36-12.79-30.06-20.81l-9.82-7.36-6.8-5.01c-12.6-9.28-25.92-19.85-38.61-28.08l-30.45-19.74-13.85-9.06c-3.43-2.24-7.01-3.97-10.42-6.58l-10.26-7.85-9.22-6.56c-9.4-6.69-29.85-24.05-32.08-35.87-1.78-9.44,3.99-19.81,12.18-24.05,4.12-2.13,7.45-3.42,11.24-6.07,2.82-1.97,8.86-1.76,10.51-5.15,1.68-3.45-3.65-5.43-6.08-6.53-11.57-5.21-20.75-12.85-30.64-20.55-10.92-8.49-28.92-29.19-23.64-44.34,2.94-8.45,9.39-14.46,15.25-20.73l11.12-11.9,5.68-6.36c10.72-12.01,27.18-35.92,34.65-50.28l15.4-29.61c6.29-12.1,10.78-24.25,14.83-37.29l14.15-45.67,6.67-20.39c9.05-27.67,12.97-20.02,2.87-35.12-4.75-7.1-9.24-13.54-13.2-20.94-2-3.75-3.68-7.31-6.2-10.88-5.73-8.14-9.29-17.44-13.43-26.68-20.32-45.29-36.16-96.45-44.25-145.6l-6.24-37.95c-3.6-21.88-5.69-43.33-7.01-65.49-.47-7.9.28-15.57-.83-23.37-.79-5.58.07-25.23.17-32.5.33-24.67,2.22-48.16,5.15-72.9,6.95-58.7,20.56-125.81,47.96-178.16,2.35-4.49,5.98-7.39,8.52-11.38C105.73,8.36,126.27-1.15,148,3.11c5.31,1.04,10.53,1.48,15.86,3.28,17.01,5.74,33.36,12.28,49.18,20.68,6.71,3.56,13.3,6.35,19.68,10.62,4.92,3.3,10.51,5.17,15.23,8.62l6.37,4.65c13.17,9.62,26.97,17.87,40.18,27.58l8.62,6.33c9.2,6.77,17.32,13.49,26.38,20.67,73.89,58.62,135.53,130.67,181.68,212.89,1.41,2.52,2.38,6.26,5.82,6.46,37.43-11.1,75.71-16.58,114.99-18.22,54.97-2.3,103.07,2.52,156.37,16.8,3.79-.49,5.37-6.4,6.96-9.01l17.12-28.14c27.44-45.1,60.9-85.85,98.37-123.16l14.72-14.66c1.52-1.51,3.27-3.25,4.96-4.76l34.91-31.16,18.8-15.34c39.25-32.03,91.61-68.05,138.95-85.8,30.69-11.51,59.66-16.85,82.87,11.05,39.96,48.03,63.02,184.26,64.67,244.96l.96,35.22c.14,5.3.1,10.37-.07,15.73l-.85,26.69c-1.04,32.79-8.27,87.42-16.03,120.3-3.34,17.14-6.37,34.39-12.25,51.15-1.24,3.55-2.16,6.4-2.92,10.15-4.22,20.64-23.15,65-33.36,84.36l-8.27,15.68c-3.24,6.14-6.84,11.57-10.69,17.35l-11.67,17.48c-.91,5.49,3.49,11.56,5.17,16.67,2.77,8.44,6.28,15.95,8.56,24.43,3.33,12.35,7.39,23.92,11.15,36.15l2.53,8.23c4.74,15.42,20.05,54.17,28.27,67.84l5.63,9.38c1.35,2.24,12.38,19.7,11.86,19.54.88.28,1.69.23,2.45.14Z"/>
            <path class="cls-14" d="M1124.15,560.88c3.3-3.28,5.68-7.16,8.05-11.55l14.02-25.9,14.86-32.23c5.23-11.35,16.93-48.99,19.86-61.97,4.81-21.28,9.48-42.12,11.96-63.92l3.68-32.34c2.45-21.5,2.92-42.96.84-64.47l-1.76-18.26c-1.66-17.15-4.81-43.55-8.72-59.95l-2.51-10.52-7.98-28.21-9.55-21.18c-4.25-5.13-11.96-15.82-17.8-16.85,3.63-4.63,9.35-7.02,13.51-11.74,4.6-5.23,2.46-14.05-3.84-16.89-3.83-1.73-8.14-.33-11.45,1.94-15.79,10.79-29.98,22.6-43.57,36.34-44.43,44.95-80.51,96.27-109.02,153.15-4.03-4.83-8.46-6.01-13.01-3.25-7.26,4.4-14.28,9.37-20.01,15.8-15.32,17.18-23.97,37.99-24.72,61.76-13.53-8.32-27.66-14.01-42.75-15.51-13.99-1.39-31.65-.65-45.03,6.37-9.61-3.02-19.1-5.64-27.85-9.31l-9.27-3.89c23.07-41.48,50.19-80.56,81.83-116.37,48.75-55.17,104.25-103.61,165.75-143.83,26.64-17.42,65.63-38.33,96.38-44.55,25.76-5.21,40.46,17.08,49.55,37.64,9.85,22.3,17.39,44.76,23.25,68.73,13.97,57.19,21.73,115.19,22.23,174.33.6,71.2-11.66,151.34-32.68,219.34-9.35,30.24-20.9,58.89-35.95,86.72-4.98,9.2-9.72,17.59-16.58,26.09-12.62-26.77-27.81-50.69-41.7-75.52Z"/>
            <path class="cls-16" d="M158.77,117.47l.9.93c.35.37.73.7,1.12,1.04,3.07,2.84,6.43,5.59,9.85,8.2-.02,1.05,0,2.57.96,3.74,20.85,25.75,39.97,70.43,52.63,101.7,19.57,48.34,31.12,98.88,35.17,151.01,2.35,30.25.62,59.06-2.59,88.32-.15,1.34-.95,2.64-2.2,3.94-20.91,21.79-41.4,44.31-56.99,69.7-4.2-.09-8.5,2.13-10.58,6.35-1.06,2.15-3.41,3.28-4.3,4.83-2.85,3.3-22.26-34.37-23.74-37.39-31.43-64.15-46.18-136.7-49.87-207.73-.61-11.69-.42-22.86.1-34.38l.77-17.22c1.49-33.29,7.69-65.71,16.87-97.75,4.41-15.42,10.33-29.65,20.83-41.39,3.32-3.71,6.6-5.4,11.09-3.88Z"/>
            <path class="cls-3" d="M1161.03,485.01c-8.73,24.32-20.69,47.17-34.13,69.71-1.19,1.99-1.52,4.25-3.79,4.4-4.65-4.14-6.11-12.19-14.86-12.39-.19-3.81-7.8-8.95-8.92-14.68.74.08,2.01.01,2.82.95,3.85,4.47,8.29,8.57,12.86,12.37l7.39,6.16c2.98,2.48,3.9-3.17,5.08-5.05,2.07-3.33,5.79-5.18,6.71-9.39.63-2.88,3.35-4.82,4.44-7.39,6.7-15.86,11.97-22.75,18.16-39.73.83-2.28,2.23-4.44,4.24-4.95Z"/>
            <path class="cls-12" d="M1124.15,560.88c-.28-.51-.62-1.41-1.04-1.77,2.27-.15,2.6-2.41,3.79-4.4,13.43-22.54,25.39-45.38,34.13-69.71,1.31-3.65,3.43-6.95,3.9-10.85.63-1.15,2.33-2.32,2.22-3.92-.04-.58.11-1.3-.04-1.85.97-.41.67-1.55.93-2.34,13.61-42.16,22.58-85.35,25.64-129.98.3-4.42,1.29-8.45,1.33-12.77.18-19.56.97-38.3-.28-57.87-1.95-30.43-13.37-141.25-48.73-149.86v-1.16c.79.01,1.64-.16,2.15-.82l.95-.04c5.84,1.03,13.55,11.71,17.8,16.85l9.55,21.18,7.98,28.21,2.51,10.52c3.92,16.4,7.06,42.79,8.72,59.95l1.76,18.26c2.08,21.52,1.61,42.98-.84,64.47l-3.68,32.34c-2.48,21.8-7.15,42.64-11.96,63.92-2.93,12.98-14.63,50.61-19.86,61.97l-14.86,32.23-14.02,25.9c-2.37,4.38-4.76,8.27-8.05,11.55Z"/>
            <path class="cls-7" d="M1168.04,466.05c-.43-.39-.88-.21-1.47.1-.43.22-.68.66-.38,1.3.16.34.67.57.93.94.15.56,0,1.27.04,1.85-1.13-.08-2.5.11-2.6,1.54-.04.67-.52,1.99.37,2.38-.47,3.9-2.59,7.2-3.9,10.85-2.01.51-3.41,2.68-4.24,4.95-6.19,16.98-11.46,23.87-18.16,39.73-1.08,2.56-3.81,4.51-4.44,7.39-.92,4.22-4.64,6.07-6.71,9.39-1.17,1.88-2.09,7.53-5.08,5.05l-7.39-6.16c-4.57-3.81-9.01-7.91-12.86-12.37-.81-.94-2.08-.87-2.82-.95l-1.29-1.61c-6.29-7.85-5.61-21.36-4.46-20.38l-2.36-2.01c-2.48-2.11-2-6.8-3.05-10.25,2.65-.8,4.42-1.77,3.91-3.79.62,0,1.41.15,2.01-.01-.16,1.07.44,1.79,1.23,2.32s9.23.77,10.29-2.91c5.16.24,24.56-9.28,26.72-12.11,1.17-1.54,9.07-8.05,7.5-10.92,7.08-7.64,13.52-15.85,16.89-26.3,2.96-9.2-14.67-17.7-20.72-22.96l10.21-16.6c3.09-5.02,4.07-11.47-.36-16.39-4.97-5.51-11.99-10.14-18.91-11.91-.2-.05-.46.1-.66.03.16-.18.55-1.02.12-1.2-23.58-9.96-37.68-11.01-63.65-5.9-1.17-1.83-1.01-4.15-.51-6.67,3.74-18.88,1.82-38.1-5.09-55.9.39.6,1.45.29,1.65-.59,3.09-13.93,7.12-26.8,11.31-40.51,7.24-23.69,16.33-45.93,26.56-68.55s21.31-41.92,33.89-62.11c2.7-4.33,6.65-7.56,7.51-12.2,2.17-1.52,3.84-4.27,5.84-6.03.64.16,1.49-.89,2.1-1.02,35.37,8.61,46.79,119.43,48.73,149.86,1.25,19.58.47,38.31.28,57.87-.04,4.32-1.02,8.35-1.33,12.77-3.06,44.64-12.03,87.83-25.64,129.98Z"/>
            <path class="cls-13" d="M333.42,409.77c-6.71,2.83-12.13,8.26-18.28,12.74-6.66,4.85-12.64,9.91-18.91,15.13l-13.73,11.43-21.28,20.51c-1.46,1.41-2.44,3.14-4.43,2.82,3.21-29.27,4.94-58.07,2.59-88.32-4.05-52.13-15.6-102.67-35.17-151.01-12.66-31.27-31.78-75.95-52.63-101.7-.95-1.18-.98-2.69-.96-3.74,13.8,10.52,25.27,23.35,36.98,36.96,29.9,34.72,54.67,72.77,76.23,113.35,20.57,38.72,35.33,79.49,45.89,121.9.92,3.7,1.88,7.23,3.68,9.93Z"/>
            <path class="cls-9" d="M333.42,409.77c-1.8-2.7-2.76-6.22-3.68-9.93-10.56-42.42-25.31-83.19-45.89-121.9-21.57-40.58-46.33-78.63-76.23-113.35-11.71-13.6-23.18-26.43-36.98-36.96-3.42-2.61-6.78-5.35-9.85-8.2l-1.12-1.04-.9-.93c-4.87-5.06-11.02-8.71-16.69-13.48-3.9-3.28-5.29-14.8,2.37-18.39,3.31-1.55,7.69-1.15,11.12,1.18,26.05,17.67,48.98,38.91,69.52,63.12,38.24,45.07,69.45,94.96,94.03,148.6,12.53,27.36,27.56,70.38,33.59,99.56,1.18,5.69-1.35,10.7-5.79,13.06s-9.32.95-13.5-1.35Z"/>
            <path class="cls-3" d="M1092.09,494.01c.51,2.02-1.26,2.99-3.91,3.79,1.05,3.45.57,8.14,3.05,10.25l2.36,2.01c-1.15-.98-1.84,12.53,4.46,20.38l-2.94-.43c-2.22-12.69-8.56-23.72-14.92-34.78,4.07.54,7.86-1.24,11.89-1.22Z"/>
            <path class="cls-9" d="M815.29,353.37c-.68-.26-1.51-.56-2.08-.98-.08-.54.27-1.06.63-1.14.69-.16,1.4.07,1.46.54.06.56-.02,1.11,0,1.59Z"/>
            <path class="cls-12" d="M160.79,119.44c-.38-.33-.76-.67-1.12-1.04l1.12,1.04Z"/>
            <path class="cls-3" d="M1094.09,494c10.06-2.78,20.3-5.37,29.27-11.5,5.81-3.97,11.89-7.18,16.46-12.12,1.57,2.88-6.33,9.39-7.5,10.92-2.16,2.83-21.55,12.36-26.72,12.11-1.05,3.68-9.51,3.42-10.29,2.91s-1.39-1.24-1.23-2.32Z"/>
            <path class="cls-8" d="M1143.89,116.59c-2,1.76-3.67,4.51-5.84,6.03-10.81,7.54-19.38,17.77-29.05,26.73-.67-2.34,8.63-10.47,11.79-14.23,2.87-3.42,5.52-5.5,9.18-8.01,1.73-1.19,11.08-11.21,13.92-10.51Z"/>
            <path class="cls-3" d="M1167.15,470.24c.11,1.59-1.6,2.77-2.22,3.92-.9-.39-.42-1.71-.37-2.38.1-1.42,1.47-1.62,2.6-1.54Z"/>
            <path class="cls-3" d="M1168.04,466.05c-.25.79.04,1.93-.93,2.34-.26-.37-.77-.6-.93-.94-.3-.64-.05-1.08.38-1.3.6-.31,1.04-.49,1.47-.1Z"/>
            <path class="cls-8" d="M1148.14,113.58c-.51.67-1.35.84-2.16.82.37-.85,1.33-.97,2.16-.82Z"/>
            <g>
              <path class="cls-1" d="M894.23,335.13c-.36,2.53-3.76.51-5.37.58-5.81,6.95-10.2.78-13.14,3.8-3.31,3.39,10.9,4.8,11.37,4.74,5.08-.63,13.69,3.33,17.25,5.77s24.12,8.24,26.95,15.12c-20.95-14.83-47.35-19.85-72.14-11.51l2.71,12.26c-3.15.11-4.08-5.86-10.02-5.72-1.89.04-5.33,1.78-5.76,4.04-2.02-.04-4.02-.79-6.25-1.63l-24.55-9.22c-.02-.47.07-1.03,0-1.59-.05-.47-.77-.7-1.46-.54-.36.09-.71.6-.63,1.14-1.88.91-3.1-1.66-4.23-1.93,2.26-6.76,13.12,5.55,15.92-1.78.52-1.35-1.81-2.32-2.03-3.8-.64-4.41.57-8.94-1.52-12.68,8.74,3.67,18.24,6.3,27.85,9.31,13.39-7.02,31.04-7.76,45.03-6.37Z"/>
              <path class="cls-9" d="M1149.09,113.54l-.95.04c-.83-.15-1.79-.03-2.16.82v1.16c-.59.13-1.44,1.18-2.09,1.02-2.84-.7-12.19,9.32-13.92,10.51-3.66,2.52-6.31,4.59-9.18,8.01-3.16,3.76-12.46,11.89-11.79,14.23-.37.35-.78.75-1.11,1.14-3.99,1.52-6.77,5.34-9.91,8.83l-7.04,7.83c-4.48,4.99-7.94,10.48-12.43,15.54-4.2,4.73-21.7,28.49-23.82,33.18-1.41,3.13-3.68,5.57-5.52,8.27l-5.63,8.24-5.88,9.28-14.39,24.72-12.34,21.49c-.67,1.16-.41,2.68-.1,3.44,2.45,6.02,15.72-11.97,24.95-9.4,1.63.45,4.44,2.57,5.65,3.86,9.25,9.85,14.14,21.88,17.66,34.74,7.75,28.34-2.05,44.83,1,49.32.55.81,2.41,1.77,3.98,1.35,34.23-9.17,58.25,4.7,56.13,4.51,2.19.19,4.19-.09,6.05.55.2.07.45-.08.66-.03-5.78-1.84,10.41,6.74,6.66,5.31,6.25,2.37,12.17,6.48,12.85,13.72.89,9.53-9.29,18.48-11.87,25.9,2.51,4.83,18.95,11.55,20.2,20.17-.26,12.34-10.62,20.91-18.31,28.97-3.81,4-6,7.14-11.37,9.29-1.4.56-3.29,2.58-5.21,3.49-11.99,5.71-24.11,10.51-37.77,10.08-.9-.03-1.8-.02-1.96.5-.12.38-.14,1.24.07,1.6,6.36,11.06,12.7,22.09,14.92,34.78,1.91,10.92,2.75,22.11.79,32.97-6.37.8-9.18-5.4-15.09,1.16,5.35-18.52.16-37.98-10.61-55.01-10.88-17.2-26.68-29.14-45.02-36.81-.32-.92.47-1.62,1.42-.9.78.59,1.35.84,2.01.8.46-.03.97-1.68.3-1.8-2.47-.43-4.66-.64-7.05-1.45-1.52-.52-2.61,1.18-2.73,2.3-2.29-.54-4.65-.51-6.98-.77.85-1.53,2.83-1.16,3.81-2.09s-.79-2.99-1.56-3.29c-.84-.33-1.3,1.53-2.27,2.14-3.02,1.9-6.01-.21-8.03-2.18,6.17-4.58,11.3-23,1.41-35.3-.88-1.09-2.06-1.56-3.13-1.59-.41-.4-.83-.79-1.27-1.16-4.05-6.89-13.26-8.06-21.05-7.59-.49-1.09-2.3-3.25-1.52-4.66,4.84-1.69,8.36-3.75,11.81-8.26,2.12,2.1,4.09,3.16,5.87,4.52,1.94,1.48,5.58,5.03,8.96,4,8.66-2.63,15.08-9.18,21.33-15.41,27.62-27.55,30.02-72.62,6.12-102.93l-23.97,15.99c-1.88,1.25-4.09-.13-5.29-1.68l-14.82-19.11c-1.15-1.48-2.05-2.66-3.58-3.1-1.78-.51-3.61.43-5.16,1.96-3.91,3.87-8.51,6.16-12.74,9.54-1.57,1.25-2.79,3.46-5.38,3.44-2.41,10.55-5.53,21.44-9.9,31.39.16,4.14-.43,16.26-2.9,18.81-1.5,1.55-5.57.93-6.52,3.22-1.4,3.38-2.37,6.76-4.3,9.96l-5.52-.58c-.47-.4-.76-1.07-1.27-1.43-2.84-6.88-23.31-12.6-26.95-15.12s-12.17-6.41-17.25-5.77c-.47.06-14.67-1.35-11.37-4.74,2.94-3.01,7.33,3.15,13.14-3.8,1.61-.08,5.01,1.95,5.37-.58,15.09,1.5,29.21,7.19,42.75,15.51.75-23.77,9.4-44.58,24.72-61.76,5.73-6.43,12.75-11.4,20.01-15.8,4.55-2.76,8.98-1.58,13.01,3.25,28.51-56.87,64.59-108.19,109.02-153.15,13.58-13.74,27.78-25.55,43.57-36.34,3.32-2.27,7.62-3.66,11.45-1.94,6.3,2.84,8.44,11.66,3.84,16.89-4.16,4.73-9.88,7.12-13.51,11.74ZM1020.24,457.01c13.85,12.98,30.85,21.15,49.86,22.97,28.82,2.75,56.5-10.97,70.51-36.11-7.89-6.49-15.29-11.12-22.83-16.35-2.12-1.47-1.96-4.36-.74-6.32l15.65-25.09c-42.77-29.29-92.49-12.16-116.32,30.28-.23,2.75,1.47,5.77,2.61,7.84l27.08-4.21c4.41-.69,8.33,1.07,8.71,5.81.23,2.81-2.05,6.3-6.04,6.87-9.51,1.36-18.68,1.62-28.18,3.77-.08,3.17-1.16,7.44-.33,10.52Z"/>
              <path class="cls-9" d="M863.27,507.25c.02.3-.22.65-.15.93-1.62,1.87-4.01,4.92-1.84,6.97-.04.33.06.68,0,1-2.8-2.91-4.73,16.3-5.1,18.97-1.36,9.79,13.74,4.26,21.75,6.64,3.7,1.1,6.52,4.63,10.81,4.77.92,1.63.38,27.31,3.58,23.59-2.28,9.57,29.5-.36,34.12-2.56,32.25-15.37,50.19-49.54,45.27-84.82-.39-2.8-3.47-7.99-6.69-5.96-14.51,9.15-21.38,27.4-29.75,21.54-2.59-1.81-3.43-6.3-.99-9.18,6.46-7.65,13.56-14.2,20.64-21.17,1.27-1.25,1.24-2.63.53-3.71,1.63-.99,3.6-1.12,5.74-.48l4.17-.92c1.74,2.3,4.84,3.6,7.59,5.72,3.7,2.86,10.28,4.54,15.04,3.8l2.9,5.82c.4.81,2.39.69,2.03,2.1-1.56.54-5.43-.13-6.48,2.22-14.93,33.54-10.19,71.51,15.53,97.7,8.36,8.51,18.73,12.94,29.27,16.97-1.61.5-2.85,1.04-5.38.22,5.77,5.46-4.27,7.77-2.7,11.61,1.48.1,1.32-1.91,2.45-3.02,2.27,1.04,2.05,3.82,3.59,5.36-29.47-5.96-51.13-29.73-61.75-58.54-19.57,27.05-49.84,39.4-81.93,36.11-10.78-6.09-9.61-23.06-10.05-33.44l-21.15-1.46c-5.48-.38-10.13-4.23-10.74-10.22-3.06-30.08,10.63-62.34,36.71-80.04-14.61-5.39-28.52-12.76-37.64-24.87.1-1.38-.69-2.62.09-4.99,2.76,3.41,11.05,1.94,10.58,3.66l-1,3.67c4.17,5.4,6.22-2.92,16.59,2.47,12.57,6.53,25.22,11.16,39.83,11.98,1.12,1.79-1.2,2.94-1.98,3.64-2.22,1.98-5.05-2.21-9.37,2.09-3.15,3.13-8.13,4.66-11.39,7.41-1.03,1.62,1.35,6.44-1.49,7.61-2.64,1.08-5.14,4.26-7.59,5-4.42,1.34-6.95,2.65-7.71,7.81-.71.91-3.52,1.09-3.57,1.97l-.24,4.75c.44-8.76-3.67,16.05-2.12,11.27Z"/>
              <path class="cls-1" d="M984.98,288.83c-40.73,29.26-43.07,88.99-9.03,123,2.24-2.5,5.25-1.51,8.29-2.05,1.87-7.6,1.73-15.43,3.8-22.56,1.93,1.73,3.68,3.76,6.15,2.66,6.5-2.91,6.39-10.13,4.63-11.73-1.54-1.39-3.32-2.84-5.51-1.37-5.25,3.52-1.63,9.51-4.99,9.48.49-2.54-.11-5.74,1.8-7.97,2.01-2.35,4.63-3.67,7.28-2.54,2.05.87,4.19,3.41,3.84,6.46-1.15,10.03-2.42,19.67-4.99,28.85-1.78-1.36-3.75-2.43-5.87-4.52-3.45,4.51-6.98,6.57-11.81,8.26-.78,1.41,1.03,3.57,1.52,4.66l-6.74,2.98c-1.4.62-2.22,1.57-1.84,3.01-.67.46-1.33.95-1.95,1.47-1.37,1.15-2.62,2.44-3.71,3.85-.43.55-.83,1.12-1.2,1.71-2.11-.76-2.25.72-2.89,2.16-4.26,9.57-2.5,20.16,3.61,28.21l-4.17.92c-2.14-.65-4.11-.51-5.74.48-.73-1.11-1.17-3.6-2.91-4.55-34.11-3.21-72.96,12.44-87.42,45.52-.48,1.09-.79,2.03-1.85,2.02-1.55,4.78,2.56-20.03,2.12-11.27l.24-4.75c.04-.88,2.86-1.07,3.57-1.97.76-5.16,3.29-6.47,7.71-7.81,2.44-.74,4.95-3.92,7.59-5,2.85-1.17.46-5.99,1.49-7.61,3.26-2.75,8.24-4.28,11.39-7.41,4.33-4.3,7.16-.11,9.37-2.09.78-.7,3.1-1.85,1.98-3.64-14.62-.82-27.27-5.46-39.83-11.98-10.37-5.39-12.43,2.93-16.59-2.47l1-3.67c.47-1.71-7.83-.25-10.58-3.66-.78,2.37.01,3.61-.09,4.99-1.56-2.07-3.83-4.92-5.52-6.83,1.72-3.16,2.3-6.63,7.14-7.24-.9-2.39.23-4.97-.76-6.96-2.83-5.67-11.31-24.29-10.9-31.36,6.2,5.01,11.59,6.15,18.14,3.46,4.76-1.95,10.33-2.11,14.2-6.26.04-4.28-4.28-14.33-2.81-15.35,1.06,4.96,6.33,13.64,3.48,17.26-2.41,3.07-22.3,7.75-28.07,11.35,4.28,21.18,18.04,37.65,36.54,47.62,11.56,6.23,23.82,8.55,36.79,9.93,2.79.3,4.07.13,6.75-.49,10.38-2.41,21.18-3.27,30.88-8.67,2.26-1.26,2.81-7.05,1.76-9.42l-25.02-13.77c-3.71-2.04-5.19-5.83-3.1-9.54,1.77-3.13,5.94-3.53,9.48-1.65,8.49,4.52,15.7,10.11,24.53,14.26,2.14-2.16,5.11-5.15,5.56-7.96-5.64-20.5-13.22-37.04-29.15-50.69l5.52.58c1.93-3.19,2.9-6.58,4.3-9.96.95-2.29,5.02-1.67,6.52-3.22,2.48-2.55,3.06-14.67,2.9-18.81,4.37-9.95,7.49-20.83,9.9-31.39,2.59.02,3.81-2.19,5.38-3.44,4.23-3.37,8.83-5.67,12.74-9.54,1.55-1.53,3.37-2.48,5.16-1.96Z"/>
              <path class="cls-1" d="M1095.91,562.98c-1.4,7.81-2.97,15.82-6.74,23.24-5.9,11.63-23.75,1.61-34.11-1.32-3.35,8.38-4.64,17.08-9.8,24.5-3.61,5.19-11.05,4.41-16.08,1.95-1.54-1.54-1.32-4.32-3.59-5.36-1.13,1.11-.97,3.13-2.45,3.02-1.57-3.83,8.46-6.14,2.7-11.61,2.54.82,3.78.27,5.38-.22,1.89-.58,3.45.16,4.43-2.76,1.38-4.07,7.86-25.68,9.7-26.61,4.05-2.04,25.05,7.11,32.22,7.49l3.22-11.17c5.92-6.57,8.73-.36,15.09-1.16Z"/>
              <path class="cls-9" d="M861.86,365.9c.15.68.31,1.8.27,2.46-1.47,1.02,2.85,11.07,2.81,15.35-3.87,4.15-9.44,4.31-14.2,6.26-6.55,2.68-11.94,1.54-18.14-3.46-.4,7.06,8.07,25.68,10.9,31.36.99,1.99-.14,4.57.76,6.96-4.84.62-5.42,4.09-7.14,7.24-8.72-9.82-13.75-23.17-15.88-36.71-2.1-13.35,17.65-14.46,26.97-19.22l-2.12-11.93c.42-2.26,3.87-4,5.76-4.04,5.94-.13,6.86,5.83,10.02,5.72Z"/>
              <path class="cls-6" d="M931.29,365.14c.5.36.8,1.02,1.27,1.43,15.92,13.65,23.51,30.19,29.15,50.69-.45,2.81-3.42,5.8-5.56,7.96-8.83-4.14-16.04-9.73-24.53-14.26-3.54-1.89-7.71-1.49-9.48,1.65-2.09,3.71-.61,7.5,3.1,9.54l25.02,13.77c1.05,2.37.5,8.16-1.76,9.42-9.7,5.4-20.5,6.27-30.88,8.67-2.68.62-3.96.79-6.75.49-12.97-1.39-25.23-3.7-36.79-9.93-18.5-9.97-32.26-26.44-36.54-47.62,5.77-3.59,25.66-8.28,28.07-11.35,2.85-3.62-2.43-12.29-3.48-17.26.04-.67-.12-1.78-.27-2.46l-2.71-12.26c24.79-8.34,51.19-3.32,72.14,11.51Z"/>
              <path class="cls-8" d="M1107.9,150.48l-22.52,26.47c-29.42,34.58-52.34,73.39-73.86,114.42l18.81-10.87c3.27-1.89,8.73-1.58,11.37,2.5,4.89,7.56,12.18,15.19,15.43,23.57,6.91,17.8,8.83,37.02,5.09,55.9-.5,2.53-.66,4.85.51,6.67,25.98-5.11,40.08-4.06,63.65,5.9.42.18.03,1.01-.12,1.2-1.86-.64-3.86-.36-6.05-.55,2.12.19-21.89-13.68-56.13-4.51-1.58.42-3.43-.54-3.98-1.35-3.05-4.49,6.75-20.99-1-49.32-3.52-12.86-8.41-24.9-17.66-34.74-1.21-1.29-4.02-3.41-5.65-3.86-9.22-2.57-22.5,15.42-24.95,9.4-.31-.76-.56-2.28.1-3.44l12.34-21.49,14.39-24.72,5.88-9.28,5.63-8.24c1.84-2.7,4.1-5.14,5.52-8.27,2.12-4.7,19.62-28.46,23.82-33.18,4.49-5.05,7.95-10.55,12.43-15.54l7.04-7.83c3.14-3.49,5.91-7.31,9.91-8.83Z"/>
              <path class="cls-8" d="M1139.82,470.38c-4.57,4.93-10.65,8.15-16.46,12.12-8.97,6.13-19.21,8.73-29.27,11.5-.6.16-1.38.01-2.01.01-4.03-.01-7.82,1.77-11.89,1.22-.21-.36-.19-1.21-.07-1.6.16-.51,1.06-.52,1.96-.5,13.65.42,25.78-4.38,37.77-10.08,1.92-.91,3.82-2.93,5.21-3.49,5.36-2.15,7.55-5.29,11.37-9.29,7.69-8.06,18.05-16.63,18.31-28.97-1.25-8.61-17.69-15.34-20.2-20.17,2.58-7.42,12.77-16.36,11.87-25.9-.68-7.24-6.59-11.35-12.85-13.72,3.75,1.42-12.44-7.15-6.66-5.31,6.92,1.78,13.95,6.41,18.91,11.91,4.44,4.92,3.45,11.36.36,16.39l-10.21,16.6c6.05,5.27,23.69,13.76,20.72,22.96-3.37,10.45-9.81,18.66-16.89,26.3Z"/>
              <path class="cls-6" d="M1019.15,471.27c.61.14,1.4.12,2,.12.35.82,1.26.71,2,.84.61.11,1.48-.14,2.04.09,18.34,7.67,34.14,19.61,45.02,36.81,10.77,17.02,15.96,36.49,10.61,55.01l-3.22,11.17c-7.18-.38-28.18-9.54-32.22-7.49-1.85.93-8.33,22.54-9.7,26.61-.99,2.91-2.54,2.17-4.43,2.76-10.54-4.03-20.92-8.46-29.27-16.97-25.72-26.19-30.45-64.16-15.53-97.7,1.04-2.35,4.92-1.68,6.48-2.22.51-.18,1.46.25,2.03.12.05.82.42,1.69,1.31,1.83l11.29,25.68c1.65,3.76,5.43,4.83,8.65,3.54,3.83-1.54,4.67-5.5,2.97-9.51-3.83-9.03-9.02-17.4-12.29-26.87-.99-2.87,4.45-3.04,5.3-4.57,2.33.26,4.69.23,6.98.77Z"/>
              <path class="cls-6" d="M996.23,411.07c2.57-9.18,3.84-18.82,4.99-28.85.35-3.05-1.79-5.59-3.84-6.46-2.65-1.13-5.27.2-7.28,2.54s-1.31,5.43-1.8,7.97l-.28.96c-2.06,7.12-1.93,14.95-3.8,22.56-3.04.54-6.05-.46-8.29,2.05-34.04-34.01-31.7-93.74,9.03-123,1.53.44,2.44,1.62,3.58,3.1l14.82,19.11c1.2,1.55,3.41,2.93,5.29,1.68l23.97-15.99c23.9,30.31,21.5,75.38-6.12,102.93-6.24,6.23-12.67,12.78-21.33,15.41-3.38,1.03-7.02-2.52-8.96-4Z"/>
              <path class="cls-6" d="M1020.24,457.01c-.83-3.08.24-7.36.33-10.52,9.49-2.15,18.67-2.41,28.18-3.77,3.98-.57,6.26-4.06,6.04-6.87-.38-4.74-4.31-6.5-8.71-5.81l-27.08,4.21c-1.14-2.07-2.84-5.09-2.61-7.84,23.83-42.44,73.55-59.57,116.32-30.28l-15.65,25.09c-1.22,1.95-1.38,4.85.74,6.32,7.54,5.22,14.94,9.85,22.83,16.35-14.02,25.13-41.69,38.86-70.51,36.11-19.01-1.82-36.01-9.99-49.86-22.97Z"/>
              <path class="cls-15" d="M1001.12,427.05c.44.37.86.76,1.27,1.16,9.24,9.02,9.9,23.65,1.52,33.47s-22.93,11.47-33.29,3.77c-10.36-7.7-12.98-22.11-6-32.97.38-.59.78-1.16,1.2-1.71.94-1.4,2.3-2.74,3.71-3.85.63-.52,1.28-1.01,1.95-1.47,9.12-6.18,21.23-5.53,29.63,1.6Z"/>
              <path class="cls-1" d="M1012.16,470.51c-.85,1.53-6.29,1.7-5.3,4.57,3.27,9.47,8.46,17.85,12.29,26.87,1.7,4.01.86,7.98-2.97,9.51-3.22,1.29-6.99.22-8.65-3.54l-11.29-25.68c.39-.27.69-.54.82-.86.21-.52-.1-1.25-.46-1.23-.73.03-1.28.18-1.67.27-.58.13-1.52-.29-2.03-.12.36-1.41-1.63-1.29-2.03-2.1l-2.9-5.82c5.49-.86,11.63-3.94,16.13-7.28,2.01,1.97,5,4.08,8.03,2.18.97-.61,1.43-2.47,2.27-2.14.76.3,2.53,2.36,1.56,3.29s-2.96.55-3.81,2.09Z"/>
              <path class="cls-4" d="M1004.12,465.1c-4.5,3.34-10.64,6.43-16.13,7.28-4.75.74-11.33-.94-15.04-3.8-2.76-2.13-5.85-3.43-7.59-5.72-6.11-8.05-7.87-18.64-3.61-28.21.64-1.44.78-2.91,2.89-2.16-6.99,10.86-4.36,25.27,6,32.97,10.36,7.7,24.92,6.05,33.29-3.77s7.71-24.45-1.52-33.47c1.07.02,2.26.5,3.13,1.59,9.89,12.3,4.75,30.72-1.41,35.3Z"/>
              <path class="cls-4" d="M1001.12,427.05c-8.4-7.12-20.52-7.78-29.63-1.6-.38-1.44.43-2.39,1.84-3.01l6.74-2.98c7.79-.46,17,.7,21.05,7.59Z"/>
              <path class="cls-1" d="M1025.18,472.33c-.56-.24-1.43.01-2.04-.09-.03-.44.09-.96,0-1.52-.08-.48-.64-.74-1.3-.42-.34.16-.45.88-.69,1.11-.6,0-1.39.02-2-.12.12-1.12,1.2-2.81,2.73-2.3,2.4.81,4.58,1.01,7.05,1.45.67.12.15,1.77-.3,1.8-.66.04-1.23-.21-2.01-.8-.95-.72-1.75-.02-1.42.9Z"/>
              <path class="cls-6" d="M955.44,464.25c.71,1.08.74,2.46-.53,3.71-7.08,6.96-14.18,13.51-20.64,21.17-2.43,2.88-1.59,7.37.99,9.18,8.37,5.86,15.24-12.39,29.75-21.54,3.22-2.03,6.3,3.16,6.69,5.96,4.92,35.28-13.02,69.45-45.27,84.82-4.61,2.2-36.39,12.13-34.12,2.56.18-4.22-.68-8.37-.99-12.97l-.86-13.08c-.18-2.66-1.5-4.04-4.22-4.16l-28-1.28c-.33-8.46,1.74-15.41,3.03-22.47.06-.32-.04-.67,0-1,1.21-2.17,2.44-4.45,1.84-6.97-.07-.29.17-.64.15-.93,1.06,0,1.38-.93,1.85-2.02,14.46-33.08,53.31-48.74,87.42-45.52,1.74.95,2.17,3.43,2.91,4.55Z"/>
              <path class="cls-1" d="M861.28,516.15c-1.3,7.07-3.36,14.01-3.03,22.47l28,1.28c2.73.12,4.05,1.51,4.22,4.16l.86,13.08c.3,4.6,1.17,8.75.99,12.97-3.2,3.72-2.65-21.96-3.58-23.59-4.29-.13-7.11-3.67-10.81-4.77-8.01-2.38-23.11,3.15-21.75-6.64.37-2.67,2.3-21.88,5.1-18.97Z"/>
              <path class="cls-1" d="M861.28,515.15c-2.17-2.05.23-5.09,1.84-6.97.6,2.52-.63,4.8-1.84,6.97Z"/>
              <path class="cls-9" d="M988.03,387.23l.28-.96c3.36.03-.26-5.96,4.99-9.48,2.19-1.47,3.97-.02,5.51,1.37,1.76,1.59,1.87,8.82-4.63,11.73-2.47,1.11-4.22-.93-6.15-2.66Z"/>
              <path class="cls-4" d="M965.83,430.78c1.09-1.42,2.34-2.71,3.71-3.85-1.41,1.12-2.77,2.46-3.71,3.85Z"/>
              <path class="cls-9" d="M996.25,482.24c-.89-.14-1.26-1.01-1.31-1.83.39-.09.94-.24,1.67-.27.36-.01.67.71.46,1.23-.13.32-.43.59-.82.86Z"/>
              <path class="cls-9" d="M1023.14,472.23c-.74-.13-1.65-.02-2-.84.24-.22.36-.94.69-1.11.66-.32,1.22-.06,1.3.42.1.56-.02,1.09,0,1.52Z"/>
            </g>
            <path class="cls-13" d="M1057.12,306.57c-3.26-8.38-10.54-16.02-15.43-23.57-2.64-4.08-8.1-4.39-11.37-2.5l-18.81,10.87c21.52-41.03,44.44-79.84,73.86-114.42l22.52-26.47c.33-.38.73-.79,1.11-1.14,9.66-8.95,18.23-19.18,29.05-26.73-.86,4.65-4.82,7.88-7.51,12.2-12.58,20.19-24.04,40.32-33.89,62.11s-19.32,44.85-26.56,68.55c-4.19,13.71-8.22,26.58-11.31,40.51-.2.88-1.26,1.19-1.65.59Z"/>
          </g>
        </g>
      </g>
    </g>
  </g>
</svg>