<?xml version="1.0" encoding="UTF-8"?>
<svg id="_레이어_2" data-name="레이어 2" xmlns="http://www.w3.org/2000/svg" viewBox="0 0 1089.66 1296.85">
  <defs>
    <style>
      .cls-1 {
        fill: #fdb7c1;
      }

      .cls-2 {
        fill: #bd6877;
      }

      .cls-3 {
        fill: #837676;
      }

      .cls-4 {
        fill: #c16b79;
      }

      .cls-5 {
        fill: #fbcbd6;
      }

      .cls-6 {
        fill: #fdfcfc;
      }

      .cls-7 {
        fill: #f39ba4;
      }

      .cls-8 {
        fill: #fcaaa3;
      }

      .cls-9 {
        fill: #a66d78;
      }

      .cls-10 {
        fill: #fcb7bf;
      }

      .cls-11 {
        fill: #eadde0;
      }

      .cls-12 {
        fill: #fdb8c0;
      }

      .cls-13 {
        fill: #61444b;
      }
    </style>
  </defs>
  <g id="_레이어_1-2" data-name="레이어 1">
    <g>
      <path class="cls-9" d="M929.28,941.89c-1.55-.48-1.73-2.2-1.94-3.96-.84-6.98-3.39-13.2-5.05-19.97-9.86-40.27-31.25-87.65-51-124.02-1.19-2.19-3.24-4.22-.52-6.59s6.91-2.9,10.27-4.47c8.11-3.79,15.93-6.87,23.81-11.14,17.26-9.35,34.27-18.3,50.08-30l6.97-5.16,35.94-26.89,26.49-17.51,12.82-8.29c9.54-6.16,23.07-15.85,30.03-24.85,3.92-5.07,4.35-13.63-.87-18.28-9.18-8.18-18.45-5.39-16.91-12.74.61-2.92,33.95-17.52,38.15-39.42,1.24-6.47-4.76-12.96-8.84-17.27l-15.69-16.55c-21.62-22.8-36.41-66.48-45.67-96.13-2.92-9.34-5.38-18.78-9.21-27.56-2.51-5.74-2.37-9.7,1.52-14.69,10.72-13.73,22.92-39.84,29.25-56.87,16.48-44.4,25.12-91.05,27.38-138.5.83-17.4,1.03-32.91-.1-50.24-2.72-41.68-8.74-83.91-22.96-123.22-4.01-11.09-8.84-21.55-15.82-30.8-10.33-13.68-27.08-18.11-42.87-12.35l-19.66,7.17c-19.29,7.04-36.43,18.01-53.08,30.06l-20.34,14.71c-16.09,11.64-30.44,24.34-45.28,37.52-10.09,8.96-18.64,18.44-27.6,28.36l-7.67,8.49c-14.91,16.5-27.31,34.5-39.65,53.01-11.59,17.38-8.98,25.88-23.3,22.42-52.68-12.72-110.86-11.36-163.46.95-3.04.71-6.8-.5-8.21-3.13-12.01-22.34-26.07-43.02-42.12-62.78l-5.94-7.32c-27.81-34.24-62.94-63.14-98.8-88.82-21.97-15.74-58.5-37.26-84.6-42.46-25.56-5.09-41.26,16.4-49.31,37.47-8.16,21.35-14.02,42.48-17.76,65.14-3.13,18.97-6.01,37.36-7.03,56.62l-.85,16.12c-1.42,26.88.91,62.97,5.29,89.48,3.35,20.26,6.3,40.29,12.66,60.06,3.08,9.58,5.43,18.86,8.96,28.17,7.08,18.68,19.04,46.25,31.15,61.64,5.85,7.44,3.87,4.15-1.9,21.44l-9.21,27.56c-2.4,7.19-3.78,14.25-6.7,21.32-6.76,16.37-13.11,32.39-22.6,47.34-9.93,15.65-21.49,29.28-34.48,42.19-5,4.97-5.77,11.58-2.03,17.33,2.08,3.2,3.85,6.81,6.24,9.86,5.74,7.34,14,11.75,21.55,17.37,2.64,1.97,7.49,2.77,8.62,6.6-1.01,2.7-7.08,6.9-10.46,6.35-15.78-6.21-30.12-13.77-46.22-18.57-14.84-4.43-28.74-8.76-44.19-10.97-43.9-6.26-87.82-3.9-130.02,9.31-6.57,2.06-69.59,22.19-50.25,34.12,12.23,7.54,24.46,14.96,34.86,24.84,4.7,4.46,22.48,22.84,20.84,28.77-2.79,1.22-8.08,2.41-8.76,6.09-.97,5.28,1.24,11.16,2.84,16.23,4.42,13.99,5.44,27.8,6.01,42.35.69,17.75-1.65,36.07-3.37,54.12-5.98,62.62-.06,128.28,28.83,184.8l4.77,9.34c6.68,13.08,16.36,27.06,25.41,38.66,2.13,2.73,3.69,6.19,6.93,7.14.02,1.29,1.31,2.48,2.18,3.19-.06,2.44,2.92,3.13,3.92,4.67,4.69,7.22,11.31,13.07,17.9,19.2,4.5,4.2,8.63,8.56,13.4,12.38l14.03,11.22c15.5,12.39,48.81,30.41,67.85,38.23,34.83,14.3,66.15,21.1,104.28,20.74,30.75-.28,60.81-5.1,89.56-16.11,5.92-2.27,10.3-4.96,17.07-6.56,13.28,12.13,9.68,11.07,16.51,31.37,7.46,22.17,17.48,42.81,30.34,62.61l-4.89,11.41c-6.8,15.87,5.55,33.76,24.31,38.23,17.2,4.1,35.03,4.05,52.1-.62,52.12-14.24,45.69-82.22,51.07-92.59.62-1.2,2.43-1.44,4.07-1.28l17.11,1.69,44.91.11c12.69.03,22.05-5.22,22.74,2.37,2.23,24.51,5.97,49.31,20.36,69.64,17.5,24.72,58.47,28.12,85.53,19.69,15.93-4.96,24.44-17.49,21.14-34.55-1.72-8.86-8.53-8.03.29-24.28,2.47-1.7,3.38-4.54,5.04-7.5,11.13-19.82,19.16-40.73,25.4-62.52,1.74-6.05,5.91-9.1,10.04-13.09,9.93-9.61,18.23-20.59,25.69-32.24,8.69-13.58,14.39-27.48,19.31-42.69,19.89-61.5,2.2-125.96,3.38-130.82,1.41-.21,1.12,1.2,1.37,2.37,16.27,77.96,5.35,156.5-56.24,212.3-8.43,29.61-20.39,57.2-36.36,83.57-1.16,2.49,1.32,6.52,2.17,8.47,7.46,17.19-.1,35.35-17.36,41.96-22.23,8.52-56.57,7.2-77.02-6.35-35.88-23.76-31.93-80.97-35.58-84.42-.8-.76-2.45-1.47-4.05-1.3-23.46,2.47-46.58,3.03-69.96.37-3.76-.43-7.16-.64-11.03.15-1.66,17.49-4.04,34.16-9.32,50.8-11.51,36.3-41.73,47.59-77.53,45.59-19.13-1.07-41.15-7.55-44.83-29.14-1.42-8.31,1.64-16,4.74-23.65.64-1.59-1.22-4.68-2.16-6.23-14.85-24.36-25.34-50.16-33.16-77.64-1.27-4.46-6.51-7.66-10.44-9.23-35.42,15.99-73.18,22.97-111.97,22.18-39.9-.81-77.49-10.27-113.11-27.77-23.63-11.61-45.47-25.23-65.83-41.85-6.93-5.66-24.99-23.47-30.71-30.19-7.84-9.22-15.45-17.71-22.39-27.62-49.66-71-58.7-144.79-51.5-229.11l2.41-28.19c1.72-20.21-.3-45.89-5.92-65.42-1.36-4.73-3.53-10.21-2.87-14.87s6.05-5.02,9.79-7.53c-3.46-6.2-7.44-11.88-12.22-16.58l-13.65-13.43c-9.05-8.9-20.49-14.24-31.42-20.7-4.64-2.74-3.69-9.79.11-12.9,6.29-5.15,25.6-14.67,33.42-17.61,39.26-14.79,80.9-21.41,122.91-18.85,21.97,1.34,42.02,5.28,62.94,11.39,18.51,5.41,35.49,13.02,53.09,20.96,3.16,1.42,6.99-1.68,9.62-3.29l-19.58-14.37c-4.5-3.3-8-7.79-12.03-11.72-2.13-2.08-2.85-5.02-4.34-7.48-3.68-6.05-3.38-13.51,1.43-18.68l15.47-16.65c36.27-39.04,45.64-89.04,63.27-137.19-46.76-64.32-64.49-165.94-61.84-243.23,1.59-46.47,10.38-105.41,29.13-147.99,4.01-9.11,9.77-16.77,17.28-23.38,13.94-12.27,31.43-9.1,47.63-3.18,37.79,13.82,78.21,43.52,109.57,69.18,29.22,23.92,54.44,51.22,77.16,81.48,11.97,15.94,21.5,32.5,31.6,50.34,42.75-10.66,85.17-13.09,128.23-9.2,15.14,1.37,28.81,4.38,43.38,8.01,2.52.63,5.33.11,6.64-2.29,24.03-44.17,59.57-86.48,96.98-119.76,10.49-9.33,21.03-17.28,32.02-25.96,20.19-15.94,41.15-29.96,64.34-41.48,22.58-11.22,55.18-26.62,75.1-3.05,7.88,9.33,13.74,19.95,17.92,31.88,27.8,79.33,31.35,176.37,13.02,258.37-9.56,42.74-24.6,85.42-50.07,120.63,3.07,8.42,5.85,15.59,8.29,23.6,9.97,32.82,25.56,82.81,50.01,108.3l17.08,17.81c6.72,7.01,9.28,15.02,3.77,23.78-9.23,14.68-18.71,20.25-32.79,29.78-7.45,5.04,7.1,5.76,13.7,12.62,5.96,6.19,5.59,14.45.56,20.92-6.8,8.75-15.01,15.36-24.27,21.47l-26.43,17.44c-14.05,9.27-27.15,18.2-40.53,28.64-32.43,25.3-66.9,46.22-106.42,61.19,9.66,17.4,18.34,34.29,26.43,52.02,1.77,3.88,3.91,6.94,4.87,11.28,11.62,29.33,22.68,58.98,27.49,89.64Z"/>
      <g>
        <g>
          <path class="cls-11" d="M1041.34,616.51c-3.92,1.79-7.81,3.9-12.42,5.24-3.58,1.03-5.07,4.43-5.01,7.68.05,3.01,2.17,5.22,5.26,6.66l28.38,13.17c-2.08,8.54-34.87,29.21-43.46,34.61-18.06,11.36-34.71,23.32-51.39,36.65-18.71,14.95-38.31,26.67-59.41,37.76-42.95,22.56-92.53,38.01-140.12,46.31-3.94.69-6.21,4.73-5.88,7.75.79,7.34,10.69,6.02,15.88,4.97.99,5.11,4.11,9.58,5.53,15.04.49,1.88,1.85,2.89,3.44,2.88,1.28,5.12,4.89,10.01,7.08,16.67-.55,5.47-16.74,29.57-21.61,32.2-.64-3.44,2.66-5.51,4.55-8.39l14.72-22.44c-5.44-9.06-3.65-12.48-7.84-17.71-41.07,11.01-82.72,16.29-125.23,14.84-33.89-1.16-66.07-7.61-98.34-15.47.08-.22-.09-.54-.06-.78,1.28-1.82,7.82-15.3,7.12-17.07.55.12,1.16-.09,1.71-.04,3.2,1.47,7.76,1.52,11.23-.17,2.57-1.25,3.79-3.87,3.43-6.34-.27-1.85-2.01-4.85-4.68-5.42l-38.79-8.34c-.29-.06-.71-.13-1-.08-1.36-1.2-3.29-1.33-5-1.82-.59-.17-1.3.23-1.9.15-37.27-10.87-72.46-42.33-107.17-42.99l-.82-.02c0-.98-.75-1.5-1.85-2.11-17.21-9.48-32.81-20.41-48.32-32.58-12.52-9.82-24.87-18.31-38.07-27.14l-41.83-27.98c-.23-.15-.57-.26-.84-.33.61-2.37-12.27-7.61-8.91-13.42,1.9-3.28,7.12-3.16,9.74-4.59-.15,1.54.66,2.34,2.34,3.09,22.11,9.86,43.61,20.05,63.1,34.71,28.52,21.47,57.81,40.65,90.49,55.27,57.54,25.75,118.2,40.78,180.96,45.75,21.86,1.73,42.11,2.63,64.04,1.29,37.13-2.27,73.12-6.56,109.22-15.54,58.09-14.45,117.28-38.72,165.14-75.03,23.49-17.82,47.78-33.02,75.7-44.65-1.34-6.09-8.56-6.32-17.51-12.64-2.78-1.96-1.5-6.77-1.2-9.51.97-8.9,8.97-6.94,9.57-11.19.25-1.8-.84-4-3.11-4.8-9.23-3.23-18.26-6.84-28.03-8.71-15.65-2.99-30.82-6.02-46.48-7.62-3.28-.33-6.32.5-9.87.15l-23.63-2.3c.41-1.86,3.04-1.19,4.96-1.15l31.62.76c11.08.27,62.13,12.28,73.99,17.76,2.73,1.26,4.45,4.02,8.08,4.12,1.48.04,2.69,1.76,2.52,2.88Z"/>
          <path class="cls-9" d="M527.52,795.02c-.63.75-1.62.93-2.83.54l-27.54-8.74c-24.19-7.68-46.8-17.49-69.1-29.64-2.95-1.61-6.6-2.16-7.7-5.16,34.72.67,69.9,32.12,107.17,42.99Z"/>
          <path class="cls-9" d="M293.79,615.07c1.38,5.04,18.67,3.56,18.89,13.36.19,8.23-12.89,9.83-23.23,15.44-2.62,1.42-7.84,1.3-9.74,4.59-3.36,5.82,9.52,11.06,8.91,13.42-4.41-1.19-12.1-8.88-10.51-12.83.71-1.77,2.47-3.02,4.54-3.98l24.58-11.43c2.07-.96,3.74-3.33,3.53-5.11-.16-1.33-1.09-4.52-2.72-4.86-7.26-1.53-12.26-5.39-17.42-8.89l3.16.31Z"/>
          <path class="cls-9" d="M419.52,752.01c-7.9-.15-47.4-31.02-55.35-36.9l-21.21-15.69-30.53-19.39c-4.43-2.82-22.24-14.2-22.97-17.83l41.83,27.98c13.19,8.83,25.55,17.32,38.07,27.14,15.51,12.17,31.11,23.1,48.32,32.58,1.09.6,1.85,1.12,1.85,2.11Z"/>
          <path class="cls-6" d="M565.57,590.87c19.84,5.38,43.26,20.23,60.71,32.28,2.12,1.46,3.92,3.12,6.2,2.94-3.07,16.73,17.56,31.31,32.77,32.64,16.23,1.42,39.64-14.28,38.02-31.59,2.07.03,3.39-1.58,5.32-2.92,19.41-13.54,39.45-26.46,61.61-33.53,11.59,33.15,59.14,46.57,89.78,25.84,25.23-17.07,33.85-49.04,23.55-77.25-5.95-16.29-17.7-27.16-32.42-35.75,34.76,4.73,53.44,39.85,52.99,71.35l-.23,16.1c-.02,1.25,1.09,1.84,1.72,1.9.37.03,1.06-.42,1.43-.24,1.05.51,12.38,2.52,10.22-.69.3-.03.61.09.91.08l1.02.02c.32.06.68.03,1,.06l23.63,2.3c3.55.35,6.59-.48,9.87-.15,15.67,1.6,30.84,4.62,46.48,7.62,9.77,1.87,18.8,5.48,28.03,8.71,2.26.79,3.36,3,3.11,4.8-.6,4.25-8.6,2.29-9.57,11.19-.3,2.74-1.58,7.55,1.2,9.51,8.95,6.32,16.17,6.55,17.51,12.64-27.92,11.63-52.21,26.83-75.7,44.65-47.86,36.31-107.05,60.58-165.14,75.03-36.1,8.98-72.09,13.27-109.22,15.54-21.93,1.34-42.18.44-64.04-1.29-62.75-4.97-123.42-20-180.96-45.75-32.67-14.62-61.97-33.8-90.49-55.27-19.49-14.67-40.99-24.85-63.1-34.71-1.68-.75-2.48-1.55-2.34-3.09,10.34-5.61,23.41-7.21,23.23-15.44-.22-9.8-17.51-8.32-18.89-13.36,45.42-16.44,81-28.07,130.84-22.08,1.4.17,2.37-.55,3.1-.89,1.22.13,2.3,1.47,4.1,1.06-.86-20.67-1.44-35.03,7.58-54.07,8.45-17.82,24.31-32.49,44.53-35.66-8.53,6.78-16.62,11.68-22.89,20-14.19,18.82-17.13,43.38-8.07,65.31,7.85,19.02,24.04,33.28,44.55,36.71,17.07,2.86,34.28-.14,48.58-10.12,8.29-5.79,16.26-14.84,19.47-24.45ZM418.89,685.85c5.84.88,10.59,1.57,15.64.11,13.66-.44,26.82-4.1,37.63-12.12,9.22-6.84,13.27-18.25,7.55-28.29-17.65-24.15-55.89-25.33-81.55-15.9-8.59,3.16-15.74,8.72-20.53,16.2-7.82,12.21,1.81,25.03,10.7,30.29,9.17,5.43,19.42,8.8,30.56,9.7ZM904.21,686.42c17.73-.16,37.34-3.15,49.78-15.3,7.95-7.77,9.71-18.31,3.18-27.13-4.71-6.36-10.9-10.49-18.44-13.64-18.83-7.87-40.17-7.97-59.46-1.48-7.7,2.59-13.44,6.63-18.93,12.2-8.21,8.32-8.46,20.54-.34,29.13,11.35,12.01,27.55,14.74,44.22,16.21ZM697.43,693.64c-28.92-6.24-21.46-24.67-38.51-9.99-9.53,8.2-21.65,12.44-34.06,10.18-25.7-4.68-20.22-28.85-32.42-24.12-3.66,1.42-4.19,5.06-3.55,9.16,6.39,18.13,23.89,30.04,43.46,29.55,13.58-.34,25.73-5.59,35.76-14.56,13.03,11.26,29.81,16.72,46.74,13.47,15.62-3,27.91-14.23,32.47-29.19.57-4.13-.96-7.65-4.76-8.62-2.39-.61-6.5.56-7.73,3.95-5.62,15.38-20.81,23.75-37.39,20.17Z"/>
          <path class="cls-13" d="M703.27,627.15c1.62,17.3-21.79,33.01-38.02,31.59-15.21-1.33-35.85-15.91-32.77-32.64,9.47-15.13,42.83-12.59,57.22-9.36,6.41,1.44,10.6,5.2,13.57,10.42Z"/>
          <path class="cls-11" d="M917.23,591.97c2.16,3.2-9.17,1.2-10.22.69.02-1.9,2.3-2.51,3.09-3.83.19,3.53,4.22,3.43,7.13,3.15Z"/>
          <path class="cls-8" d="M418.89,685.85c-11.14-.9-21.39-4.27-30.56-9.7-8.88-5.26-18.52-18.08-10.7-30.29,4.79-7.48,11.94-13.04,20.53-16.2,25.65-9.43,63.9-8.25,81.55,15.9,5.72,10.04,1.67,21.45-7.55,28.29-10.81,8.02-23.98,11.68-37.63,12.12-5.05,1.46-9.8.76-15.64-.11Z"/>
          <path class="cls-8" d="M904.21,686.42c-16.67-1.48-32.87-4.21-44.22-16.21-8.12-8.59-7.87-20.81.34-29.13,5.49-5.57,11.23-9.61,18.93-12.2,19.3-6.49,40.63-6.4,59.46,1.48,7.53,3.15,13.73,7.28,18.44,13.64,6.53,8.81,4.78,19.35-3.18,27.13-12.43,12.15-32.05,15.14-49.78,15.3Z"/>
          <path class="cls-13" d="M697.43,693.64c16.58,3.58,31.77-4.8,37.39-20.17,1.23-3.38,5.35-4.56,7.73-3.95,3.8.97,5.33,4.49,4.76,8.62-4.57,14.95-16.85,26.18-32.47,29.19-16.93,3.26-33.71-2.21-46.74-13.47-10.03,8.96-22.18,14.21-35.76,14.56-19.57.49-37.07-11.42-43.46-29.55-.63-4.1-.1-7.74,3.55-9.16,12.2-4.74,6.73,19.43,32.42,24.12,12.41,2.26,24.54-1.98,34.06-10.18,17.05-14.68,9.59,3.75,38.51,9.99Z"/>
          <g>
            <path class="cls-13" d="M910.1,588.82c-.79,1.32-3.06,1.93-3.09,3.83-.37-.18-1.06.27-1.43.24-.63-.05-1.74-.65-1.72-1.9l.23-16.1c.46-31.5-18.22-66.62-52.99-71.35,14.72,8.59,26.47,19.46,32.42,35.75,10.3,28.21,1.68,60.18-23.55,77.25-30.63,20.73-78.19,7.3-89.78-25.84-8.86-25.35-4.35-54.37,11.23-76.47,26.31-37.34,77.56-38.76,111.01-8.99,10.11-1.91,17.63-14.55,22.48-10.62,6.28,5.09-3.11,19.68-10.83,23.42,1.07,2.76,2.86,4.99,4.52,7.7,8.14,2.44,18.82-4.61,22.49-1.09,5.66,5.43-8.98,16.22-15.95,17.51,4.64,16.32,3.15,32.83-5.04,46.65ZM828.97,535.94c0-10.72-8.68-19.4-19.39-19.4s-19.39,8.69-19.39,19.4,8.68,19.4,19.39,19.4,19.39-8.69,19.39-19.4ZM867.58,540.25c-.67-1.43-1.84-1.89-3.15-2.2-6.58-1.53-5.5-6.63-6.83-8.1-.28-.31-2.31-.17-2.23.25,1.7,8.77-9.26,7.15-8.53,10.43,6.19.73,8.39,4.71,10.39,10.16,1.34-6.05,4.34-9.8,10.36-10.54ZM846.1,586.88c-28.31,16.81-41.06-8.24-50.71,3.92-3.66,4.61-3.51,10.21.4,14.81,13.69,16.08,51.76,14.43,61.73-2.62,4.16-1.5,4.03-11.31,8.69-14.2,3.67-2.28,8.1-2.88,11.71-5.47-19.04-9.54-10.09-1.23-19.61-19.78-9.92,19.78.16,9.28-19.13,19.77,2.23,1.39,4.79,2.41,6.91,3.57Z"/>
            <path class="cls-3" d="M846.1,586.88c1.84,1.01,4.51,1.02,5.99,3.3,2.66,4.08,4.23,8.49,5.43,12.81-9.97,17.05-48.04,18.69-61.73,2.62-3.91-4.6-4.06-10.19-.4-14.81,9.65-12.16,22.4,12.89,50.71-3.92Z"/>
            <ellipse class="cls-6" cx="809.58" cy="535.94" rx="19.39" ry="19.4"/>
            <path class="cls-6" d="M857.52,602.99c-1.19-4.32-2.76-8.73-5.43-12.81-1.49-2.28-4.15-2.3-5.99-3.3-2.13-1.16-4.68-2.18-6.91-3.57,19.29-10.49,9.21.02,19.13-19.77,9.51,18.55.56,10.23,19.61,19.78-3.61,2.59-8.03,3.19-11.71,5.47-4.67,2.89-4.53,12.7-8.69,14.2Z"/>
            <path class="cls-11" d="M867.58,540.25c-6.02.74-9.02,4.49-10.36,10.54-2-5.46-4.2-9.43-10.39-10.16-.73-3.27,10.23-1.65,8.53-10.43-.08-.43,1.95-.57,2.23-.25,1.34,1.47.26,6.57,6.83,8.1,1.32.31,2.48.77,3.15,2.2Z"/>
          </g>
          <g>
            <path class="cls-12" d="M917.27,391.87c3.31.53,5.96-.83,7.25-4.47l4.83-13.57c5.2,1.48,9.96,2.5,14.79,3.35,9.97,1.74,8.39-10.15,12.26-18.22,13.77,20.18,25.2,40.25,34.49,62.27,19.01,45.05,28.87,106.01,64.67,144.22l19.96,21.31c-5.55,14.09-22.01,24.21-34.19,29.77.18-1.12-1.04-2.84-2.52-2.88-3.63-.1-5.35-2.86-8.08-4.12-11.86-5.48-62.91-17.49-73.99-17.76l-31.62-.76c-1.92-.05-4.55-.71-4.96,1.15-.32-.03-.67,0-1-.06-.21-.8-.74-.78-1.02-.02-.3,0-.62-.11-.91-.08-2.91.28-6.94.38-7.13-3.15,8.2-13.83,9.69-30.34,5.04-46.65,6.97-1.29,21.61-12.09,15.95-17.51-3.67-3.52-14.35,3.53-22.49,1.09-1.65-2.72-3.45-4.94-4.52-7.7,7.72-3.74,17.11-18.33,10.83-23.42-4.85-3.93-12.38,8.71-22.48,10.62-33.45-29.77-84.7-28.35-111.01,8.99-15.58,22.1-20.09,51.11-11.23,76.47-22.16,7.07-42.2,19.99-61.61,33.53-1.93,1.34-3.24,2.95-5.32,2.92-2.98-5.21-7.16-8.98-13.57-10.42-14.38-3.23-47.75-5.77-57.22,9.36-2.28.18-4.08-1.48-6.2-2.94-17.45-12.05-40.87-26.9-60.71-32.28,8.06-24.14,4.49-51.28-8.88-73.15-24.84-40.62-78.93-43.33-113.33-12.4-8.8-1.54-18.35-13.06-22.65-10.52-6.49,3.83,3.24,19.66,10.64,23.52-1.2,1.97-2.37,6.49-5.07,7.36-7.67,2.48-18.3-4.82-21.77-.27-4.73,6.21,8.96,15.09,16.16,16.71-4.36,15.08-3.49,31.17,3.99,44.73,1.11,2.02,2.99,3.21,3.06,5.24-.73.35-1.7,1.06-3.1.89-49.84-5.99-85.42,5.64-130.84,22.08l-3.16-.31c-9.77-6.63-20.43-12.18-27.08-22.84-1.02-1.63-2.49-3.54-2.08-5.38.26-1.14,1.4-2.95,2.68-4.1,13.99-12.59,25.12-26.88,34.83-43.05,18.73-31.18,24.23-51.63,35.01-85.91s25.3-64.68,44.87-93.84c1.63-2.43,1.03-5.77-.45-8.01-1.06-1.61-3.56-2.7-6-2.63l19.83-25.26,20.18-22.73,14.5-12.64c9.3-8.11,24.53-21.42,34.47-26.72,2.34.52,6.01,2.05,8.6.57,1.8-1.03,4.71-3.39,3.9-6.78-4.88-20.54-10.81-40.31-19.27-59.85-16.49-38.09-38.37-72.76-65.94-103.67-12.21-13.69-25.02-25.73-40-35.9-2.52-1.71-5.74-2.18-7.9-1.09-2.73,1.38-4.11,4.68-3.35,8,1.36,5.92,8.44,6.58,8.15,10.01-25.27,9.31-31.95,99.91-30.68,121.93l.88,15.16c1.39,24.01,5.97,46.86,11.74,70.23,6.37,25.83,17.29,49.17,30.46,72.06,1.39,2.42,2.49,4.36,4.81,5.41-8.76,16.4-18.69,31.95-26.85,49.41-12.98-20.45-22.89-40.85-30.37-63.43-29.38-88.64-31.67-183.52-7.24-273.7,4.32-15.93,9.9-30.75,18.85-44.17,6.51-9.76,16.34-13.56,27.74-10.43,16.29,4.48,31.41,11.19,46.34,19.9,46.52,27.15,88,61.64,123.72,102.08,19.71,22.31,35.98,46.25,50.8,72.55l-23.02,8.28c-3.9,1.4-5.59,5.22-4.46,8.54,1.22,3.56,4.64,6.18,8.99,4.57,60.79-22.56,126.68-28.01,190.45-15.15,19.71,3.97,37.98,10.41,56.73,16.57,1.39,2.02,3.46,6.57,2.07,8.22-3.67,2.92-8.76,2.41-12.61,4.63-2.07.99-5.18,2.43-4.85,5.3,2.51,21.97,17.34,38.79,38.7,46.12-17.86,12.7-27.26,32.99-23.39,53.98.53,2.88,5.62,3.35,7.62,3.58l12.39.27c.76,5.72.08,11.25,1.49,16.5.55,4.17,3.64,5.2,7.28,5.43,20.43,1.26,38.44-7.77,50.43-24.21,6.87,21.02,23.18,36.07,43.66,39.32Z"/>
            <path class="cls-11" d="M919.17,592.07l-1.02-.02c.28-.76.81-.78,1.02.02Z"/>
            <g>
              <path class="cls-13" d="M565.57,590.87c-3.21,9.61-11.18,18.66-19.47,24.45-14.3,9.99-31.51,12.98-48.58,10.12-20.5-3.43-36.69-17.69-44.55-36.71-9.06-21.93-6.12-46.49,8.07-65.31,6.27-8.31,14.36-13.22,22.89-20-20.22,3.17-36.08,17.84-44.53,35.66-9.03,19.04-8.44,33.4-7.58,54.07-1.8.41-2.89-.93-4.1-1.06-.07-2.04-1.95-3.23-3.06-5.24-7.48-13.56-8.35-29.65-3.99-44.73-7.2-1.62-20.9-10.5-16.16-16.71,3.47-4.55,14.1,2.75,21.77.27,2.7-.87,3.87-5.39,5.07-7.36-7.4-3.86-17.13-19.69-10.64-23.52,4.3-2.54,13.85,8.98,22.65,10.52,34.41-30.93,88.5-28.22,113.33,12.4,13.37,21.87,16.94,49.01,8.88,73.15ZM545.58,536c0-10.77-8.72-19.5-19.49-19.5s-19.49,8.73-19.49,19.5,8.72,19.5,19.49,19.5,19.49-8.73,19.49-19.5ZM489.24,539.85c-6.93-1.82-9.51-5-10.49-11.16l-3.3,7.17c-1.3,2.82-5.29,2.35-8.3,4.33,5.76,1.61,9.71,3.8,11.23,10.19,2.18-5.57,4.74-8.33,10.87-10.54ZM478.15,602.94c1.52,3.48,5.29,6.18,9.14,8.27,13.09,7.11,29.11,7.5,42.76,1.62,8.2-3.53,17.05-13.09,11.23-21.31-2.59-3.66-7.64-6.6-12.27-3.95-12.18,6.97-27.33,7.27-38.62-.67,1.55-2.04,4.96-1.5,6.14-4.07-18.91-7.09-10.29-3.6-19-18.95-8.6,16.32-.73,10.76-18.74,19.14,3.31,3.03,7.51,3.42,10.75,5.82,5.28,3.91,4.15,13.3,8.62,14.1Z"/>
              <path class="cls-3" d="M490.39,586.9c11.29,7.94,26.44,7.64,38.62.67,4.62-2.65,9.67.29,12.27,3.95,5.82,8.22-3.03,17.79-11.23,21.31-13.66,5.87-29.67,5.48-42.76-1.62-3.85-2.09-7.62-4.79-9.14-8.27,1.65-6.03,4.55-16.34,12.24-16.04Z"/>
              <ellipse class="cls-6" cx="526.1" cy="536" rx="19.49" ry="19.5"/>
              <path class="cls-6" d="M490.39,586.9c-7.7-.29-10.59,10.01-12.24,16.04-4.46-.8-3.33-10.2-8.62-14.1-3.24-2.4-7.45-2.79-10.75-5.82,18.01-8.38,10.14-2.82,18.74-19.14,8.71,15.35.1,11.86,19,18.95-1.17,2.57-4.58,2.04-6.14,4.07Z"/>
              <path class="cls-11" d="M489.24,539.85c-6.13,2.21-8.69,4.97-10.87,10.54-1.52-6.39-5.47-8.58-11.23-10.19,3.01-1.99,7-1.51,8.3-4.33l3.3-7.17c.98,6.15,3.56,9.33,10.49,11.16Z"/>
            </g>
            <g>
              <path class="cls-2" d="M929.28,941.89c.04.28.07.66,0,.94-1.17,4.86,16.51,69.32-3.38,130.82-4.92,15.21-10.62,29.11-19.31,42.69-7.45,11.65-15.76,22.63-25.69,32.24-4.12,3.99-8.3,7.04-10.04,13.09-6.24,21.78-14.27,42.69-25.4,62.52-1.66,2.96-2.58,5.8-5.04,7.5-6.3-4.07.96-3.81-9.13-6.67,1.03-1.93,10.82-20.78,10.09-21.95,8.77-13.36,12.89-29.56,17.88-45.29,1.44-4.56,2.47-8.38,6.19-11.7,15.58-13.92,28.5-30.02,38.02-48.93,21.92-43.51,23.71-95.43,14.37-142.81-10.66-54.08-29.57-106.31-57.4-153.23-1.12-1.88-.44-4.96-3.52-6.9-27.46,10.28-55.45,17.35-83.78,23.1-5.19,1.05-15.1,2.37-15.88-4.97-.32-3.02,1.94-7.07,5.88-7.75,47.59-8.3,97.17-23.75,140.12-46.31,21.11-11.09,40.7-22.81,59.41-37.76,16.69-13.34,33.34-25.29,51.39-36.65,8.59-5.41,41.39-26.07,43.46-34.61l-28.38-13.17c-3.1-1.44-5.21-3.65-5.26-6.66-.06-3.24,1.43-6.64,5.01-7.68,4.61-1.33,8.5-3.45,12.42-5.24,12.18-5.56,28.65-15.67,34.19-29.77l-19.96-21.31c-35.8-38.22-45.66-99.18-64.67-144.22-9.29-22.02-20.72-42.09-34.49-62.27-3.87,8.07-2.29,19.97-12.26,18.22,1.13-2.06,3.11-.4,5.36-3.49,1.08-1.48.13-2.92-.5-4.77-.66-1.96-1.97-3.9-4.06-3.07,5.72-22.25-2.64-43.31-20.79-57.04-.41-.47-.39-1.63-1.11-2.2-.6-.47-1.33-.56-1.97.2-.82.16-1.31-.86-1.93-1.03-.07-1.37.13-2.77.92-3.93,23.42,9.97,50.68,5.91,64.57-17.71-4.34-5.64-18.53-9.8-14.75-15.55,3.28-4.99,6.78-9.06,9.9-15.01-10.33-8.01-23.1-11-35.55-9.55-3.2-4.93-21.88,8.38-22.78,4.02-.81-3.92,1.94-7.47,3.32-10.44.87-1.86.03-3.28.1-4.68.31-6.17,1.54-12.28.7-18.98-1.14-9.06-3.99-17.77-10.16-24.62-5.54,2.16-9.49,5.73-13.81,8.98-6.12,4.6-10.55-9.63-16.5-13.89-27.6,16.44-28.55,58.59-7.77,78.34,1.21,1.15,2.98,1.95,4.22,1.77,1.45-.2,2.76-1.74,2.98-3.49l2.06-16.92c.26-2.13,1.79-3.32,3.39-3.65,1.49-.31,4.96.43,4.67,2.73l-2.54,19.69c-.16,1.26.34,2.33.88,2.75,2.6,2.03,6.24-1.07,9.12-1.47,1.18,2.07,2.01-.76,3.73,2.26,1.11,1.94-1.72,1.16-2.5,4.1-.13.47.42,1.07.77,1.51-.07,1.74-.45,3.79-.02,5.56-7.02-.23,2.67,6.59-4.71,17.14-6.45,9.22-16.42,10.91-24.09,5.15,8.66,3.31,19.11,1.77,23.41-7.23,2.92-6.11,1.87-13.46-2.54-18.07s-11.78-6.56-18.29-3.53c-5.63,2.62-9.71,8.68-9.15,15.99.37,4.85,3.02,8.66,6.57,12.85-11.34-8.52-7.38-11-7.68-21.02-.02-.61-1.73-.96-1.92-1.78,1.13-1.61,1.41-3.86,1.62-5.33,6.5-6.31-6.38-27.56-12.94-33.95-13.81-13.44-33.63-17.77-51.55-11.52l5.16,18.69c1.09,3.97-15.19,5.36-18.72,9.16,5.04,22.87,26.21,37.43,48.86,36.65,1.8,2.07,4.9-.21,7.42,2.12-1.29,1.4-8.68,1.2-7.41,4.02-21.02,6.34-36.28,25.14-35.25,48.3l20.8,1.05,1.43,20.64c7.37,2.03,13.68-1.94,20.93-3.02,4.23-.63,10.91-1.81,12.93-7.83.94-2.8,4.54-3.58,6.27-6.18,5.14-1.14,4.85-7.93,9.42-7.98,5.19-.05,4.41,9.05,8.66,12.07,5.76,13.9,17.64,24.01,31.77,27.93.21,1.25-1.17,2.37-.35,3.81,2.05-.49,5.56-1.16,4.95,1.37-.35,1.46-3.94,2.58-2.44,4.77-20.48-3.25-36.79-18.3-43.66-39.32-12,16.44-30.01,25.46-50.43,24.21-3.64-.22-6.73-1.26-7.28-5.43-1.41-5.24-.73-10.78-1.49-16.5l-12.39-.27c-2.01-.24-7.09-.7-7.62-3.58-3.87-20.99,5.53-41.27,23.39-53.98-21.36-7.33-36.19-24.15-38.7-46.12-.33-2.87,2.78-4.32,4.85-5.3,3.86-2.22,8.94-1.71,12.61-4.63,1.38-1.65-.68-6.2-2.07-8.22-18.75-6.15-37.03-12.59-56.73-16.57-63.77-12.86-129.65-7.41-190.45,15.15-4.35,1.62-7.77-1.01-8.99-4.57-1.13-3.32.55-7.14,4.46-8.54l23.02-8.28c-14.82-26.31-31.09-50.24-50.8-72.55-35.72-40.43-77.2-74.92-123.72-102.08-14.93-8.71-30.05-15.42-46.34-19.9-11.4-3.13-21.23.67-27.74,10.43-8.95,13.43-14.53,28.24-18.85,44.17-24.44,90.18-22.14,185.06,7.24,273.7,7.48,22.58,17.39,42.97,30.37,63.43,8.17-17.46,18.09-33.01,26.85-49.41.81-1.52,3.44-2.45,3.44-4.66,1.43-1.91,4.04-3.52,6.18-4.05,2.44-.07,4.93,1.02,6,2.63,1.48,2.24,2.08,5.58.45,8.01-19.57,29.16-34.3,60.22-44.87,93.84s-16.28,54.74-35.01,85.91c-9.71,16.17-20.84,30.46-34.83,43.05-1.28,1.15-2.42,2.96-2.68,4.1-.42,1.84,1.06,3.75,2.08,5.38,6.65,10.66,17.31,16.21,27.08,22.84,5.16,3.5,10.16,7.36,17.42,8.89,1.63.34,2.56,3.53,2.72,4.86.21,1.77-1.46,4.15-3.53,5.11l-24.58,11.43c-2.07.96-3.84,2.21-4.54,3.98-1.58,3.96,6.1,11.65,10.51,12.83.27.07.61.18.84.33.73,3.63,18.54,15.01,22.97,17.83l30.53,19.39,21.21,15.69c7.95,5.88,47.45,36.75,55.35,36.9l.82.02c1.11,3,4.75,3.55,7.7,5.16,22.3,12.15,44.91,21.96,69.1,29.64l27.54,8.74c1.21.38,2.21.21,2.83-.54.6.08,1.32-.32,1.9-.15-.4,1.45.39,2.19,1.53,2.15,1.31-.04,2.35-.14,3.47-.33.29-.05.71.02,1,.08l-.09,1.63c12.08,3.3,24.25,5.23,36.92,7.49,3.27.58,5.26,5.9,3.74,8.24-2.88,4.44-10.01.15-11.77,2.92-.55-.05-1.16.15-1.71.04-27.95-5.9-55.59-12.52-82.68-23.22-2.36,3.18-3.75,5.98-5.34,8.76-26.23,45.81-44.83,95.81-55.21,148.08-4.94,24.87-6.57,48.99-4.99,74.15,1.65,26.39,8.05,51.09,19.99,74.42,7.82,15.29,18.17,27.88,29.02,40.41-1.43-.96-4.82-.78-6.01-3.85-1.84-.51-20.72,8.64-18.85,5.91.94-1.55,3.49-1.51,4.41-3.76-16.21-20.69-28.45-43.4-35.56-68.19-5.88-20.51-7.35-42.05-7.5-63.82-.32-47.61,11.86-92.5,28.07-137.28l-9.21-33.67c-8.63-31.54-21.19-60.91-38.18-88.81-2.76-4.53-6.63-9.87-11.88-9.22.2-.99-.34-2.04-.22-3.01.16-1.36-.48-2.03-1.77-3.03l-24.87-19.28-24.5-16.19-31.18-20.82-6.26-5.61c-3.48-3.12-6.73-5.27-9.46-8.94-9.3-12.48,1.92-18.04-8.45-20.66-32.93-15.17-67.53-24.02-103.79-26.75-25.21-1.89-49.58.22-74.18,5.55-16.77,3.63-32.49,7.87-48.27,14.57-2.84,1.21-17.13,6.73-16,11.31,18.12,11.35,34.14,24.72,46.85,42.04,9.5,12.94,22.22,37.39,23.05,53.72.05,1-.92,1.6-1.4,1.76-.58.19-1.61-.36-2.13-1.06l-5.08-6.87c-1.61-2.17-11.14-16.16-14.18-13.47-.62.55-.95,1.55-.76,2.67,2.26,13.69,5.65,26.94,5.64,41.02l-.02,24.06-1.19,15.86-.92,10.09-.95,12.05c-.5,6.43-.88,12.4-.96,18.89-.04,3.1-2.04,6.15.21,9.21-.93,1.88-2.63,15.1.98,12.85v2c-.78-.1-1.06.9-1.06,1.95l.07,14.05c0,.93,1.13,1.69,1.74,1.18,3.8,63.58,20.84,110.67,58.21,161.62-.81-.04-2.43-.23-3.1.99-2.01,3.7-1.23,8.25,2.11,11.09-.42,1.36-1.37,1.17-2.06,1.08-3.24-.95-4.8-4.41-6.93-7.14-9.05-11.6-18.73-25.58-25.41-38.66l-4.77-9.34c-28.88-56.52-34.8-122.18-28.83-184.8,1.72-18.05,4.07-36.37,3.37-54.12-.57-14.54-1.59-28.36-6.01-42.35-1.6-5.06-3.81-10.95-2.84-16.23.68-3.68,5.97-4.87,8.76-6.09,1.64-5.93-16.14-24.31-20.84-28.77-10.4-9.87-22.63-17.29-34.86-24.84-19.33-11.92,43.68-32.06,50.25-34.12,42.2-13.2,86.12-15.57,130.02-9.31,15.45,2.2,29.36,6.54,44.19,10.97,16.1,4.8,30.44,12.36,46.22,18.57,3.38.55,9.45-3.65,10.46-6.35-1.13-3.84-5.99-4.64-8.62-6.6-7.55-5.62-15.81-10.04-21.55-17.37-2.39-3.05-4.16-6.66-6.24-9.86-3.74-5.76-2.97-12.36,2.03-17.33,12.98-12.9,24.54-26.53,34.48-42.19,9.49-14.95,15.84-30.97,22.6-47.34,2.92-7.07,4.3-14.14,6.7-21.32l9.21-27.56c5.77-17.29,7.76-13.99,1.9-21.44-12.11-15.4-24.07-42.97-31.15-61.64-3.53-9.31-5.88-18.59-8.96-28.17-6.35-19.77-9.31-39.8-12.66-60.06-4.38-26.51-6.71-62.6-5.29-89.48l.85-16.12c1.02-19.25,3.9-37.65,7.03-56.62,3.74-22.65,9.6-43.78,17.76-65.14,8.06-21.07,23.76-42.57,49.31-37.47,26.1,5.2,62.63,26.71,84.6,42.46,35.85,25.68,70.99,54.58,98.8,88.82l5.94,7.32c16.05,19.77,30.1,40.44,42.12,62.78,1.41,2.63,5.18,3.84,8.21,3.13,52.6-12.31,110.78-13.67,163.46-.95,14.33,3.46,11.72-5.04,23.3-22.42,12.34-18.5,24.74-36.51,39.65-53.01l7.67-8.49c8.96-9.92,17.51-19.4,27.6-28.36,14.84-13.18,29.19-25.87,45.28-37.52l20.34-14.71c16.66-12.05,33.79-23.02,53.08-30.06l19.66-7.17c15.79-5.76,32.54-1.34,42.87,12.35,6.98,9.25,11.81,19.71,15.82,30.8,14.21,39.31,20.23,81.55,22.96,123.22,1.13,17.33.93,32.83.1,50.24-2.26,47.45-10.9,94.1-27.38,138.5-6.32,17.03-18.52,43.14-29.25,56.87-3.89,4.98-4.02,8.94-1.52,14.69,3.83,8.78,6.3,18.22,9.21,27.56,9.26,29.65,24.05,73.33,45.67,96.13l15.69,16.55c4.09,4.31,10.08,10.79,8.84,17.27-4.2,21.9-37.54,36.5-38.15,39.42-1.54,7.35,7.72,4.56,16.91,12.74,5.21,4.65,4.78,13.21.87,18.28-6.96,9-20.49,18.69-30.03,24.85l-12.82,8.29-26.49,17.51-35.94,26.89-6.97,5.16c-15.81,11.7-32.82,20.65-50.08,30-7.87,4.26-15.69,7.35-23.81,11.14-3.36,1.57-7.53,2.08-10.27,4.47s-.67,4.4.52,6.59c19.76,36.37,41.14,83.75,51,124.02,1.66,6.76,4.21,12.99,5.05,19.97.21,1.77.39,3.48,1.94,3.96ZM992.23,72.25c-.26,0-.53.09-.79.07-3.75-.23-5.69,3.87-8.31,5.73-27.24,19.38-67.67,75.31-81.9,107.64-1.88.51-.58,1.48.98,1.44,5.93-1.4,12.79-10.01,17.86-3.91,12.23,14.74,16.41,34.78,10.85,53.45,2.89,1.68,5.61,1.31,8.54.64,16.76-3.83,34.45.49,46.4,12.74,6.54,6.71-6.23,13.46-5.28,19.47.74,4.68,12.94,8.21,12.31,14.52-.46,4.51-3.63,7.97-6.5,11.2-10.82,12.19-25.63,19.23-42.06,18.71-.54,2.46-.51,4.59.65,6.32,4.26,6.35,6.45,13.18,8.77,20.41,1.39,4.33,3.17,7.84,2.11,13.55,2.15-1.24,1.81-2.97,3.04-3.32,6.48-1.87,6.84,4.7,13.04,6.69.14.04.48.1,1.19.18,9.27,16.07,18.93,31.61,27.28,49.64,10.02-13.85,17.24-28.1,23.52-43.86,16.96-42.52,26.48-86.74,29.6-132.68,3.47-52.77-1.02-104.82-14.34-155.8-3.28-12.57-7.59-23.77-12.53-35.48-2.98-7.06-7.13-13.37-12.35-18.83-5.53-5.79-13.08-7.53-21.06-5.78-14.44,3.18-27.65,8.81-40.94,16.27-44.02,24.7-83.93,56.17-118.8,92.86-23.93,25.17-44.07,52.7-61.18,82.59-.72,1.26-.98,2.54-.56,3.26.51.89,1.76,1.21,2.87,1.64,7.05,2.29,13.86,3.54,20.91,7.23,19.5-8.36,41.32-5.96,58.4,6.86-.35-21.88,10.94-41.63,30.2-51.71,2.31.34,3.78,1.01,6.19,1.04,13.96-27.54,31.19-52.22,51.04-75.81,14.21-16.89,29.53-31.78,47.81-43.93,3.69-2.45,8.6-.49,10.03,2.89,3.43,8.08-8.39,9.76-6.97,14.09ZM435.78,845.87c.38.1,1.19.51,1.46-.08.6.18,1.85.25,2.23-.81,3.16-8.94,7.06-17.1,11.67-25.4l14.24-25.59c.65-1.17,1.98-2.34,1.81-3.53-.63-4.34-13.47-8.5-18.61-10.55-.28-.11-.83-.11-1.14-.06-2.22-2.49-5.88-2.99-9.04-4.64l-16.06-8.38c-4.62-2.41-8.75-6.28-13.85-6.69-.59-.42-1.58-.37-2.02-1.09.22-1.23-1.29-1.49-1.04-.1l-.74-.09c-2.88,1.13-.35,5.59,1,7.93,6.11,10.62,9.77,21.55,14.44,32.79,5.78,13.91,9.46,28.1,13.17,42.7.41,1.61,1.26,3.29,2.47,3.6Z"/>
              <path class="cls-10" d="M973.12,357.78c1.93.21,4.13-1.56,5.29-3.69,5.75-10.48,10.62-21.17,15.79-32.09,1.63-3.43,2.3-7.32,4.52-10.23,1.65-2.16,3.19-4.34,2.8-7.33-.42-3.18,2.25-4.76,2.82-7.06l2.8-11.32c5.72-23.12,10.92-46.08,12.88-70.05,1.32-16.1,2.09-31.26.62-47.13l-2.08-22.43c-.69-7.44-2.39-14.27-3.52-21.58-2.43-15.79-6.89-30.73-15.68-44.13-2.1-3.2-3.91-6.11-7.13-8.48-1.42-4.34,10.4-6.02,6.97-14.09-1.44-3.38-6.35-5.34-10.03-2.89-18.28,12.15-33.6,27.04-47.81,43.93-19.85,23.6-37.09,48.27-51.04,75.81-2.4-.03-3.87-.7-6.19-1.04-19.26,10.08-30.55,29.83-30.2,51.71-17.08-12.82-38.9-15.22-58.4-6.86-7.06-3.68-13.86-4.93-20.91-7.23-1.11-.44-2.35-.76-2.87-1.64-.42-.72-.17-2,.56-3.26,17.11-29.89,37.25-57.41,61.18-82.59,34.88-36.69,74.79-68.16,118.8-92.86,13.29-7.46,26.5-13.09,40.94-16.27,7.98-1.76,15.53-.01,21.06,5.78,5.22,5.46,9.36,11.77,12.35,18.83,4.95,11.71,9.25,22.91,12.53,35.48,13.31,50.98,17.8,103.03,14.34,155.8-3.12,45.95-12.64,90.17-29.6,132.68-6.29,15.76-13.51,30.01-23.52,43.86-8.34-18.03-18-33.57-27.28-49.64Z"/>
              <path class="cls-6" d="M348.53,73.84c.35.33.59.95,1.05,1.15,1.51.67,2.52,2.01,3.78,3-.65,2.05.54,3.42,2.28,4.86,8.58,7.09,21.96,33.8,27.01,45,15.67,34.78,26.48,70.69,30.11,108.83,2.08,21.87,1.02,43.03-.33,64.32l-20.18,22.73-19.83,25.26c-2.14.53-4.75,2.14-6.18,4.05-1.09.1-2.5.85-4.03,1.99-17.71-28.35-29.93-59.25-36.86-92.19-9.29-44.11-11.1-88.41-2.9-132.68,2.53-13.64,4.6-26.52,10.4-39.18,3.01-6.57,7.95-11.93,12.65-16.82.62-.64,2.27-.41,3.05-.34Z"/>
              <path class="cls-6" d="M971.89,356.16c-8.26-11.19-10.64-5.44-17.33-20.7-2.66-6.07-5.25-11.8-8.49-17.46.42-1.73,3.32-2.17,5.09-2.36,18.65-2.05,35.13-12.42,43.23-29.16,4.4-9.09-5.89-9.69-10.54-15.28s11.4-16.28,5.19-22.27c-14.32-13.8-34.91-17.46-53.95-13.14-.89.2-1.13-1.99-1-2.83,2.12-13.31,1.32-26.84-4.05-39,1.43-.66,1.67-2.28,2.12-4.12,4.84-20.05,11.88-38.73,19.87-57.64,6.42-15.2,16.71-37.86,28.73-48.75,1.69-1.53,2.65-3.46,2.37-5.4,2.62-1.86,4.56-5.96,8.31-5.73-.75,1.37.27,2.67,1.5,3.79,11.83,10.76,16.93,30.79,19.91,46.32,6.62,34.55,8.27,69.23,4.21,104.41-2.01,17.41-5.44,33.38-9.54,50.39-6.47,26.88-17.69,51.77-31.22,75.64-1.19,2.09-2.22,3.52-4.41,3.29Z"/>
              <path class="cls-11" d="M930.04,193.96c-2.28-5.15-7.64-11.2-12.08-14.31s-13.48,7.15-16.73,6.04c14.24-32.34,54.66-88.26,81.9-107.64.28,1.94-.68,3.86-2.37,5.4-12.02,10.89-22.31,33.55-28.73,48.75-7.99,18.91-15.03,37.58-19.87,57.64-.44,1.84-.68,3.46-2.12,4.12Z"/>
              <path class="cls-1" d="M345.48,74.17c-4.7,4.89-9.64,10.25-12.65,16.82-5.8,12.66-7.87,25.54-10.4,39.18-8.2,44.27-6.39,88.57,2.9,132.68,6.93,32.94,19.15,63.84,36.86,92.19,1.54-1.13,2.94-1.88,4.03-1.99,0,2.21-2.63,3.15-3.44,4.66-2.32-1.05-3.41-2.99-4.81-5.41-13.17-22.89-24.09-46.24-30.46-72.06-5.77-23.37-10.35-46.21-11.74-70.23l-.88-15.16c-1.27-22.03,5.41-112.62,30.68-121.93l-.11,1.25Z"/>
              <path class="cls-1" d="M973.12,357.78c-.7-.08-1.04-.14-1.19-.18l-.04-1.43c2.2.23,3.23-1.2,4.41-3.29,13.53-23.87,24.74-48.75,31.22-75.64,4.1-17.01,7.53-32.98,9.54-50.39,4.06-35.17,2.41-69.86-4.21-104.41-2.98-15.53-8.08-35.56-19.91-46.32-1.23-1.12-2.25-2.42-1.5-3.79.26.02.53-.06.79-.07,3.22,2.38,5.03,5.28,7.13,8.48,8.79,13.4,13.25,28.34,15.68,44.13,1.13,7.31,2.83,14.15,3.52,21.58l2.08,22.43c1.47,15.88.7,31.03-.62,47.13-1.97,23.97-7.16,46.94-12.88,70.05l-2.8,11.32c-.57,2.3-3.25,3.88-2.82,7.06.4,2.99-1.14,5.16-2.8,7.33-2.22,2.91-2.89,6.8-4.52,10.23-5.18,10.92-10.04,21.61-15.79,32.09-1.16,2.12-3.36,3.9-5.29,3.69Z"/>
              <g>
                <path class="cls-5" d="M924.88,232.94c-1.69,1.05-1.2,3.41-2.01,5.32-4.52,10.64-12.33,18.77-20.74,25.92-2.88.4-6.52,3.5-9.12,1.47-.54-.42-1.04-1.48-.88-2.75l2.54-19.69c.3-2.31-3.18-3.04-4.67-2.73-1.61.34-3.13,1.52-3.39,3.65l-2.06,16.92c-.21,1.75-1.53,3.28-2.98,3.49-1.25.18-3.02-.62-4.22-1.77-20.78-19.75-19.83-61.9,7.77-78.34,5.95,4.26,10.38,18.49,16.5,13.89,4.33-3.26,8.27-6.82,13.81-8.98,6.17,6.86,9.02,15.57,10.16,24.62.84,6.71-.39,12.81-.7,18.98Z"/>
                <path class="cls-5" d="M919.15,305.78c.62.16,1.11,1.19,1.93,1.03.6,1.18,1.82,1.75,3.08,1.99,18.15,13.73,26.51,34.8,20.79,57.04-1.02.4-1.82,1.78-3.73,1.35-4.93-1.13-9.65-2.37-14.41-3.95-8.17-2.72-5.92,16.05-11.71,18.68-14.12-3.92-26.01-14.02-31.77-27.93-9.24-22.3,1.16-56.76,8.55-44.68,6.14,10.04,6.75,21.05,13.3,17.26,1.9-1.1,2.34-3.5,1.06-5.81-1.9-3.43-9.37-16.5-7.59-18.83,2.91-3.82,16.46,2.8,20.49,3.86Z"/>
                <path class="cls-5" d="M867.33,271.76c-7.28-.13-18.96-13.39-22.62-7.78-1.07,1.65-1.92,4.56.6,5.85l15.88,8.14c1.71.88,2.13,2.87,1.92,4.36-.75,5.53-21.29,8.32-24.98,8.45-22.65.79-43.82-13.78-48.86-36.65,3.53-3.79,19.82-5.19,18.72-9.16l-5.16-18.69c17.92-6.25,37.74-1.92,51.55,11.52,6.57,6.39,19.44,27.64,12.94,33.95Z"/>
                <path class="cls-5" d="M920.06,301.85c-1.44-.61-20.74-12.32-13.15-15.69,8.57-3.8,20.5-.06,21.91-6.01,2.51-10.58-18.88.09-24.72-2.54-.44-1.76-.05-3.82.02-5.56,7.61-14.16,23.97-26.14,40.11-28.02,12.45-1.45,25.22,1.55,35.55,9.55-3.11,5.95-6.62,10.02-9.9,15.01-3.78,5.75,10.41,9.91,14.75,15.55-13.89,23.62-41.16,27.68-64.57,17.71Z"/>
                <path class="cls-5" d="M865.26,349.89c-1.73,2.6-5.34,3.39-6.27,6.18-4.05,3.08-8.59,5.24-12.93,7.83-7.26,1.07-13.56,5.05-20.93,3.02l-1.43-20.64-20.8-1.05c-1.03-23.16,14.23-41.97,35.25-48.3,5.8-2.01,24.24-5.89,27.5-.97,3.6,5.44-21.34,16.98-13.4,22.19,1.93,1.27,4.53,1.09,6.32-.85,2.39-2.59,16.03-19.86,17.49-10.25,2.38,15.68-2.32,30.17-10.79,42.86Z"/>
                <path class="cls-4" d="M867.33,271.76c-.21,1.47-.49,3.73-1.62,5.33.19.82,1.9,1.17,1.92,1.78.31,10.02-3.66,12.5,7.68,21.02,7.67,5.76,17.64,4.07,24.09-5.15,7.37-10.54-2.32-17.37,4.71-17.14,5.83,2.63,27.22-8.04,24.72,2.54-1.41,5.95-13.34,2.22-21.91,6.01-7.6,3.36,11.71,15.07,13.15,15.69-.78,1.16-.98,2.55-.92,3.93-4.03-1.06-17.58-7.68-20.49-3.86-1.78,2.34,5.69,15.41,7.59,18.83,1.28,2.3.84,4.71-1.06,5.81-6.55,3.79-7.16-7.23-13.3-17.26-7.39-12.07-17.79,22.38-8.55,44.68-4.25-3.02-3.47-12.12-8.66-12.07-4.57.05-4.27,6.83-9.42,7.98,8.46-12.68,13.17-27.17,10.79-42.86-1.46-9.61-15.1,7.66-17.49,10.25-1.8,1.95-4.39,2.12-6.32.85-7.93-5.21,17.01-16.74,13.4-22.19-3.25-4.92-21.7-1.05-27.5.97-1.27-2.83,6.13-2.62,7.41-4.02-2.52-2.33-5.62-.05-7.42-2.12,3.68-.13,24.22-2.92,24.98-8.45.2-1.49-.21-3.48-1.92-4.36l-15.88-8.14c-2.52-1.29-1.67-4.2-.6-5.85,3.66-5.61,15.34,7.65,22.62,7.78Z"/>
                <path class="cls-8" d="M875.32,299.89c-3.55-4.19-6.2-8-6.57-12.85-.56-7.3,3.52-13.37,9.15-15.99,6.51-3.03,13.75-1.22,18.29,3.53s5.45,11.96,2.54,18.07c-4.3,9.01-14.75,10.54-23.41,7.23Z"/>
                <path class="cls-4" d="M944.95,365.84c2.09-.83,3.4,1.11,4.06,3.07.63,1.86,1.58,3.29.5,4.77-2.25,3.08-4.22,1.43-5.36,3.49-4.83-.84-9.6-1.86-14.79-3.35l-4.83,13.57c-1.3,3.64-3.95,5-7.25,4.47-1.51-2.19,2.08-3.32,2.44-4.77.61-2.53-2.9-1.86-4.95-1.37-.83-1.45.55-2.56.35-3.81,5.79-2.63,3.54-21.4,11.71-18.68,4.77,1.59,9.48,2.83,14.41,3.95,1.91.44,2.71-.94,3.73-1.35Z"/>
                <path class="cls-9" d="M930.04,193.96c5.37,12.16,6.17,25.69,4.05,39-.13.84.11,3.03,1,2.83,19.04-4.32,39.63-.66,53.95,13.14,6.21,5.99-9.71,16.82-5.19,22.27s14.94,6.19,10.54,15.28c-8.1,16.74-24.58,27.11-43.23,29.16-1.77.19-4.67.63-5.09,2.36,3.24,5.66,5.82,11.39,8.49,17.46,6.69,15.25,9.07,9.51,17.33,20.7l.04,1.43c-6.19-1.99-6.56-8.56-13.04-6.69-1.24.36-.89,2.08-3.04,3.32,1.07-5.71-.71-9.22-2.11-13.55-2.32-7.23-4.51-14.07-8.77-20.41-1.16-1.73-1.2-3.86-.65-6.32,16.43.52,31.24-6.52,42.06-18.71,2.87-3.23,6.04-6.69,6.5-11.2.64-6.31-11.57-9.85-12.31-14.52-.95-6.01,11.83-12.76,5.28-19.47-11.95-12.25-29.64-16.57-46.4-12.74-2.93.67-5.65,1.03-8.54-.64,5.56-18.66,1.38-38.7-10.85-53.45-5.07-6.11-11.94,2.5-17.86,3.91-1.55.04-2.86-.93-.98-1.44,3.25,1.11,12.45-9.03,16.73-6.04s9.81,9.16,12.08,14.31Z"/>
                <path class="cls-4" d="M944.23,244.03c-16.14,1.88-32.5,13.86-40.11,28.02-.35-.45-.9-1.04-.77-1.51.78-2.94,3.61-2.16,2.5-4.1-1.72-3.02-2.56-.19-3.73-2.26,8.41-7.16,16.22-15.29,20.74-25.92.81-1.91.32-4.27,2.01-5.32-.07,1.39.76,2.82-.1,4.68-1.38,2.97-4.13,6.52-3.32,10.44.9,4.36,19.58-8.95,22.78-4.02Z"/>
                <path class="cls-4" d="M858.99,356.07c-2.02,6.02-8.7,7.2-12.93,7.83,4.34-2.59,8.88-4.74,12.93-7.83Z"/>
                <path class="cls-4" d="M924.16,308.8c-1.26-.24-2.48-.81-3.08-1.99.64-.76,1.37-.68,1.97-.2.72.57.7,1.73,1.11,2.2Z"/>
              </g>
              <path class="cls-11" d="M461.4,261.64c-9.94,5.31-25.17,18.61-34.47,26.72l-14.5,12.64c1.35-21.28,2.41-42.45.33-64.32-3.63-38.14-14.44-74.06-30.11-108.83-5.05-11.21-18.43-37.92-27.01-45-1.74-1.44-2.93-2.81-2.28-4.86,34.23,26.89,67.66,78.05,85.74,118.25,8.94,19.88,15.03,39.91,20.42,60.83.47,1.83,1.38,3.17,1.87,4.56Z"/>
              <path class="cls-2" d="M461.4,261.64c-.49-1.39-1.4-2.73-1.87-4.56-5.4-20.93-11.49-40.96-20.42-60.83-18.08-40.2-51.51-91.36-85.74-118.25-1.27-1-2.27-2.34-3.78-3,.33-.58-.6-1.11-1.05-1.15-.77-.08-2.43-.31-3.05.34l.11-1.25c.3-3.43-6.79-4.1-8.15-10.01-.76-3.32.62-6.62,3.35-8,2.16-1.09,5.37-.62,7.9,1.09,14.98,10.17,27.79,22.21,40,35.9,27.57,30.91,49.45,65.58,65.94,103.67,8.46,19.54,14.39,39.31,19.27,59.85.81,3.39-2.1,5.75-3.9,6.78-2.59,1.48-6.26-.05-8.6-.57Z"/>
              <path class="cls-1" d="M349.58,74.99c-.46-.2-.7-.83-1.05-1.15.45.05,1.39.58,1.05,1.15Z"/>
            </g>
          </g>
        </g>
        <g>
          <path class="cls-9" d="M564.22,817.05c1.76-2.78,8.89,1.51,11.77-2.92,1.52-2.34-.47-7.66-3.74-8.24-12.67-2.26-24.83-4.19-36.92-7.49l.09-1.63,38.79,8.34c2.66.57,4.41,3.57,4.68,5.42.36,2.47-.87,5.09-3.43,6.34-3.47,1.69-8.04,1.64-11.23.17Z"/>
          <path class="cls-9" d="M534.42,796.69c-1.12.19-2.16.29-3.47.33-1.14.04-1.93-.7-1.53-2.15,1.71.49,3.63.62,5,1.82Z"/>
          <path class="cls-9" d="M406.48,759.05l-1.04-.1c-.25-1.39,1.27-1.13,1.04.1Z"/>
          <g>
            <path class="cls-1" d="M841.39,1203.06c-38.79,15.67-74.95,18.74-115.14,5.91-.35-4.05-2.14-8.2-1.35-13.04,10.8-2.4,21.6-4.52,32.18-8.11,4.2-1.43,5.77-5.99,4.27-9.6s-5.31-4.42-9.28-3.21c-16.15,4.94-32.04,8.8-49.01,10.52-26.8,2.71-52.93,2.43-79.61-1.46-13.53-1.97-25.88-5.5-38.77-9.33-3.71-1.1-7.29.39-8.69,3.33s-.14,7.26,3.39,8.86c10.01,4.54,20.88,6.17,31.7,8.93.47,4.8-.63,8.98-1.03,13-37.54,12.68-78.4,9.82-114.7-5.8-2.02-1.28-2.85-3.76-4.02-6.17-7.08-14.64-10.82-29.59-16.22-45.12-1.58-4.55-8.33-9.73-11.84-12.09-10.85-12.53-21.19-25.12-29.02-40.41-11.93-23.33-18.34-48.03-19.99-74.42-1.57-25.16.06-49.28,4.99-74.15,10.38-52.27,28.98-102.27,55.21-148.08,1.93-.35,3.36,1.03,5.37,2.13,20.98,11.51,43.04,19.72,65.77,27.09,3.49,1.13,6.51,2.55,9.76,2.31-.03.24.14.56.06.78-2.34,6.21-4.39,13.05-8.74,18.02-2.38-.16-2.94-3.23-5.48-2.76-2.17.4-4.75.9-5.73,2.42-1.5,2.35-1.54,5.07-.3,7.55,8.19,16.44,18.86,31.07,32.51,43.42,4.78,4.33,8.82,9.44,13.55,13.08-27.27,6.86-49.06,36.35-55.68,63.49.24,1.12-.1,1.87-.95,1.08-19.11-12.08-34.45-29.12-46.87-48.5-2.2-3.43-5.79-5.03-8.85-3.66-15.89,7.13,29.5,51.16,36.37,54.79.43.42.84.93,1.05,1.63.18.6-.76,1.05-.83,1.55-2.1,14.38-2.77,28.76-2.12,43.93,1.98,46.5,25.81,89.39,67.02,111.74,20.86,11.31,42.94,17.7,66.57,20.65,47.63,5.96,102.25.06,141.94-28.71,25.49-18.48,42.89-44.12,50.13-74.82,5.59-23.73,5.81-47.86,1.11-71.79-.24-1.21-1.52-1.17-2.14-1.22l2.07-2.07c3.72-3.7,51.3-44.17,39.29-54.58-3.31-2.86-7.63-1.55-10.01,1.94-6.76,9.89-14.14,18.9-22.02,27.77s-17.54,15.34-26.96,21.82c-4.01-21.72-19.68-47.08-39.57-58.49l-14.35-8.23c16.46-13.58,35.89-35.36,45.1-55.56,1.4-3.06.34-6.65-1.95-8.33-2.44-1.78-6.48-2.18-8.35.56l-2.04.2c-2.18-6.66-5.79-11.55-7.08-16.67,26.54-8.98,54.92-18.79,78.33-34.13,27.83,46.92,46.75,99.15,57.4,153.23,9.34,47.38,7.55,99.3-14.37,142.81-9.53,18.91-22.44,35.01-38.02,48.93-3.72,3.32-4.75,7.15-6.19,11.7-4.99,15.73-9.11,31.93-17.88,45.29Z"/>
            <path class="cls-4" d="M127.71,1047.75c1.2,1.63,3.99,2.54,4.11,5.09.07,1.39-.67,2.53.35,3.08.47.25,1.95.14,1.62-.82,11.48,12.04,22.25,24.33,35.5,35.47,37.69,31.7,82.56,53.96,130.95,63.75,47.17,9.54,93.78,2.99,138.2-12.57-1.87,2.73,17-6.42,18.85-5.91,1.18,3.07,4.58,2.89,6.01,3.85,3.51,2.36,10.25,7.54,11.84,12.09,5.4,15.52,9.15,30.48,16.22,45.12,1.17,2.42,2,4.89,4.02,6.17-.79,3.77,12.87,26.02,15.89,30.86,6.45,10.36-2.12,15.6-3.82,26.08-1.08,6.67,2.16,13.46,8.27,15.83.36-8.75,2.84-15.85,9.26-20.15,1.87-1.25,4.53-.29,5.59.72,3.88,3.71-5.57,12.49-2.49,24.62,6.14,1.89,11.96,1.99,18.52,1.85-.41-7.23,1.84-28.74,12.02-25.57,6.54,2.04-2.26,14.98-.77,24.49,21.04-1.99,38.26-15.18,44.77-35.84,3.88-12.3,6.24-24.67,7.46-37.1.4-4.03,1.5-8.21,1.03-13-10.82-2.76-21.69-4.39-31.7-8.93-3.53-1.6-4.81-5.86-3.39-8.86s4.97-4.44,8.69-3.33c12.89,3.82,25.24,7.36,38.77,9.33,26.68,3.89,52.82,4.17,79.61,1.46,16.97-1.72,32.85-5.58,49.01-10.52,3.97-1.21,7.81-.31,9.28,3.21s-.07,8.17-4.27,9.6c-10.58,3.59-21.38,5.71-32.18,8.11-.79,4.84,1,9,1.35,13.04,1.09,12.76,3.63,25.43,7.84,37.94,6.62,19.65,23.22,32.99,43.74,34.91,2.24-10.54-7-21.5-.63-24.38,9.67-4.38,11.94,18.99,11.61,25.48,5.29-.92,13.35,1.05,18.09-2.14,6.52-8.5-6.19-20.05-.93-24.49,6.14-5.18,15.1,10.59,14.2,20.15,17.26-10.42,2.79-25.91,2.91-34.39.1-7.21,5.39-11.72,8.23-17.04,10.09,2.87,2.83,2.6,9.13,6.67-8.82,16.25-2.01,15.42-.29,24.28,3.31,17.06-5.21,29.58-21.14,34.55-27.06,8.43-68.03,5.03-85.53-19.69-14.39-20.33-18.14-45.12-20.36-69.64-.69-7.59-10.05-2.34-22.74-2.37l-44.91-.11-17.11-1.69c-1.64-.16-3.45.08-4.07,1.28-5.38,10.37,1.05,78.34-51.07,92.59-17.07,4.67-34.91,4.71-52.1.62-18.75-4.47-31.11-22.36-24.31-38.23l4.89-11.41c-12.85-19.8-22.87-40.44-30.34-62.61-6.83-20.29-3.23-19.24-16.51-31.37-6.77,1.61-11.15,4.3-17.07,6.56-28.75,11.01-58.81,15.83-89.56,16.11-38.13.35-69.44-6.45-104.28-20.74-19.04-7.82-52.36-25.84-67.85-38.23l-14.03-11.22c-4.78-3.82-8.9-8.18-13.4-12.38-6.58-6.13-13.21-11.99-17.9-19.2-.12-2.27-1.43-4.78-3.92-4.67-.86-.71-2.16-1.91-2.18-3.19.7.09,1.64.28,2.06-1.08-3.34-2.84-4.13-7.39-2.11-11.09.67-1.22,2.29-1.03,3.1-.99Z"/>
            <path class="cls-7" d="M841.39,1203.06c.73,1.17-9.06,20.02-10.09,21.95-2.84,5.32-8.13,9.82-8.23,17.04-.11,8.48,14.35,23.97-2.91,34.39.9-9.56-8.06-25.33-14.2-20.15-5.26,4.44,7.45,15.99.93,24.49-4.74,3.19-12.8,1.22-18.09,2.14.32-6.49-1.94-29.85-11.61-25.48-6.36,2.88,2.88,13.84.63,24.38-20.52-1.92-37.11-15.25-43.74-34.91-4.21-12.51-6.75-25.18-7.84-37.94,40.2,12.84,76.35,9.77,115.14-5.91Z"/>
            <path class="cls-7" d="M562.51,817.09c.7,1.77-5.85,15.25-7.12,17.07-3.25.24-6.27-1.18-9.76-2.31-22.73-7.37-44.79-15.58-65.77-27.09-2-1.1-3.44-2.48-5.37-2.13,1.59-2.77,2.98-5.58,5.34-8.76,27.09,10.7,54.73,17.32,82.68,23.22Z"/>
            <path class="cls-7" d="M860.45,801.1c-23.41,15.34-51.78,25.15-78.33,34.13-1.58,0-2.95-1-3.44-2.88-1.41-5.46-4.54-9.93-5.53-15.04,28.33-5.76,56.32-12.82,83.78-23.1,3.08,1.94,2.4,5.02,3.52,6.9Z"/>
            <path class="cls-6" d="M767.58,884.1c-.16,1.2-1.56,2.15-2.37,2.76-2.63-1.08-6.84,5.72-9.35,7.33-5.19,3.33-8.97,7.84-13.72,11.52-2.73,2.11-5.07,3.99-7.78,6.31l-13.4,11.45c-5.5,4.7-9.51,9.61-13.02,15.99-2.26,4.12-5.05,7.87-4.53,12.56-3.02,6.99-4.28,15.79-4.19,23.57.36,29.41,26.43,45.68,54.08,43.68,15.72-1.14,30.64-5.47,44.33-13.08,10.8-6.01,22-11.02,30.35-19.34.61.05,1.9.01,2.14,1.22,4.69,23.92,4.48,48.05-1.11,71.79-7.24,30.7-24.64,56.34-50.13,74.82-39.68,28.77-94.31,34.67-141.94,28.71-23.64-2.96-45.71-9.34-66.57-20.65-41.22-22.35-65.04-65.25-67.02-111.74-.65-15.17.02-29.55,2.12-43.93,2.1-1.11,3.36.42,5.18,1.72,11.06,7.87,22.2,15.47,34.65,20.86,20.43,8.84,45.72,14.63,66.69,4.5,24.42-11.8,30.97-39.41,20.19-63.06-14.29-31.35-48.88-44.34-71.68-76.23-5.25-7.34-10.61-13.97-13.8-21.87,4.36-4.97,6.4-11.81,8.74-18.02,32.27,7.86,64.45,14.31,98.34,15.47,42.5,1.45,84.15-3.84,125.23-14.84,4.19,5.23,2.4,8.65,7.84,17.71l-14.72,22.44c-1.89,2.88-5.19,4.95-4.55,8.39Z"/>
            <path class="cls-7" d="M610.07,1208.86c-1.22,12.43-3.59,24.8-7.46,37.1-6.51,20.66-23.73,33.85-44.77,35.84-1.49-9.51,7.31-22.45.77-24.49-10.17-3.17-12.42,18.34-12.02,25.57-6.57.13-12.38.03-18.52-1.85-3.08-12.13,6.37-20.91,2.49-24.62-1.05-1-3.72-1.97-5.59-.72-6.43,4.3-8.9,11.4-9.26,20.15-6.11-2.37-9.36-9.16-8.27-15.83,1.7-10.48,10.27-15.73,3.82-26.08-3.01-4.84-16.68-27.1-15.89-30.86,36.3,15.61,77.16,18.48,114.7,5.8Z"/>
            <path class="cls-7" d="M810.36,981.73c-11.79,8.11-23.6,16.19-38.27,20.09-8.91,2.37-17.85,4.84-27.7,3.61,2.87-9.14,15.54-15.28,13.15-20.54-4.38-9.62-21.66,11.06-25.03,17.19-4.49-1.13-11.84-5.08-13.42-10.16,1.27-12.29,19.65-19.68,15.92-26.19-4.08-7.12-17.77,7.94-21.86,10.98-2.38-27.43,26.59-47.92,43.27-61.68l14.35,8.23c19.9,11.4,35.57,36.77,39.57,58.49Z"/>
            <path class="cls-7" d="M581.25,916.67c5.19,3.99,10.67,7.72,15.93,12.51,13.24,12.06,28.08,28.31,25.37,48.12-3.86-5.14-17.6-18.58-21.55-11.38-4.08,7.45,15.22,12.17,15.95,25.84-1.21,5.18-8.47,9.09-13.04,10.15-3.37-5.8-20.75-25.77-25.2-17.22-3.47,6.67,9.32,10.24,12.21,20.7-12.87,1.01-24.86-2.74-36.64-7.15s-20.16-11-29.66-17c.85.79,1.19.04.95-1.08,6.62-27.14,28.41-56.63,55.68-63.49Z"/>
            <path class="cls-2" d="M756.43,915.02c-16.68,13.77-45.65,34.25-43.27,61.68,4.09-3.04,17.78-18.1,21.86-10.98,3.73,6.51-14.65,13.91-15.92,26.19,1.58,5.08,8.92,9.03,13.42,10.16,3.37-6.13,20.65-26.81,25.03-17.19,2.39,5.26-10.28,11.4-13.15,20.54,9.85,1.24,18.79-1.24,27.7-3.61,14.67-3.9,26.47-11.98,38.27-20.09,9.42-6.48,18.81-12.65,26.96-21.82s15.26-17.88,22.02-27.77c2.38-3.49,6.71-4.8,10.01-1.94,12.01,10.4-35.57,50.87-39.29,54.58-.04-.64-.69-.56-1.2-.23l-23.61,15.36c-12.67,8.24-26.27,13.39-41,16.2s-29.96,2.12-43.22-6c-26.88-16.45-24.22-49.7-6.09-73.66,1.2-1.58,2.6-2.54,2.47-4.35.54-.57,1.38-1.56,1.84-2.18,3.24-2.08,6.36-4.67,9.51-7.45l22.29-19.64c1.8-1.59,4.12-2.68,4.14-5.04.27-.21.86-.62,1.07-.9,1.85.21,3.23-.9,4.71-2.44,12.39-12.77,23.46-26.72,30.27-42.78,1.87-2.74,5.92-2.34,8.35-.56,2.29,1.67,3.35,5.27,1.95,8.33-9.22,20.2-28.65,41.98-45.1,55.56Z"/>
            <path class="cls-2" d="M541.22,850.19c-.66,1.82,2.5,1.71,3.13,2.95,9.07,18.08,21.19,34.05,36.78,47.05l20.14,16.8c14.13,11.78,26.96,25.37,32.21,43.59,4.92,17.08.13,34.73-13.51,46.05-9.27,7.7-20.94,10.8-33.12,10.93-35.39.38-58.91-21.71-74.94-30.17l-6.65-3.51c-6.87-3.63-52.26-47.66-36.37-54.79,3.06-1.37,6.65.22,8.85,3.66,12.43,19.38,27.76,36.41,46.87,48.5,9.49,6,18.47,12.82,29.66,17,11.79,4.41,23.77,8.16,36.64,7.15-2.89-10.46-15.68-14.03-12.21-20.7,4.45-8.55,21.83,11.42,25.2,17.22,4.56-1.06,11.82-4.97,13.04-10.15-.73-13.68-20.03-18.39-15.95-25.84,3.95-7.2,17.69,6.24,21.55,11.38,2.7-19.81-12.13-36.05-25.37-48.12-5.26-4.79-10.74-8.52-15.93-12.51-4.73-3.63-8.77-8.75-13.55-13.08-13.65-12.36-24.32-26.98-32.51-43.42-1.24-2.49-1.2-5.21.3-7.55.98-1.53,3.56-2.02,5.73-2.42Z"/>
            <path class="cls-9" d="M830.06,984.78l-2.07,2.07c-8.35,8.32-19.55,13.33-30.35,19.34-13.68,7.62-28.61,11.95-44.33,13.08-27.65,2-53.72-14.28-54.08-43.68-.1-7.78,1.17-16.58,4.19-23.57,3.19-7.37,8.65-14.21,13.98-19.91.13,1.81-1.27,2.76-2.47,4.35-18.13,23.96-20.79,57.21,6.09,73.66,13.26,8.11,28,8.9,43.22,6s28.33-7.95,41-16.2l23.61-15.36c.52-.34,1.17-.42,1.2.23Z"/>
            <path class="cls-9" d="M546.7,852.96c3.19,7.91,8.55,14.53,13.8,21.87,22.8,31.89,57.39,44.88,71.68,76.23,10.78,23.65,4.23,51.27-20.19,63.06-20.97,10.13-46.26,4.34-66.69-4.5-12.44-5.38-23.59-12.99-34.65-20.86-1.83-1.3-3.08-2.83-5.18-1.72.07-.5,1.01-.95.83-1.55-.21-.7-.62-1.2-1.05-1.63l6.65,3.51c16.02,8.46,39.55,30.56,74.94,30.17,12.17-.13,23.85-3.23,33.12-10.93,13.64-11.33,18.43-28.98,13.51-46.05-5.25-18.22-18.08-31.81-32.21-43.59l-20.14-16.8c-15.59-13-27.71-28.97-36.78-47.05-.62-1.24-3.78-1.14-3.13-2.95,2.54-.47,3.11,2.6,5.48,2.76Z"/>
            <path class="cls-9" d="M791.23,851.7c-6.81,16.06-17.88,30.01-30.27,42.78-1.49,1.53-2.86,2.64-4.71,2.44,2.15-3.12,7.17-6.46,8.97-10.05.81-.61,2.21-1.56,2.37-2.76,4.87-2.62,21.07-26.73,21.61-32.2l2.04-.2Z"/>
            <path class="cls-11" d="M765.21,886.86c-1.79,3.59-6.82,6.93-8.97,10.05-.21.28-.8.69-1.07.9l-7.9,6.09c-1.95,1.5-3.16,2.56-4.82,4.18-7.79,7.61-16.98,13.5-23.22,21.86-.46.62-1.3,1.6-1.84,2.18-5.33,5.7-10.79,12.53-13.98,19.91-.53-4.7,2.27-8.45,4.53-12.56,3.51-6.38,7.52-11.29,13.02-15.99l13.4-11.45c2.71-2.31,5.05-4.2,7.78-6.31,4.75-3.67,8.53-8.19,13.72-11.52,2.51-1.61,6.71-8.41,9.35-7.33Z"/>
            <path class="cls-9" d="M755.17,897.81c-.02,2.36-2.34,3.45-4.14,5.04l-22.29,19.64c-3.15,2.77-6.27,5.36-9.51,7.45,6.23-8.36,15.42-14.25,23.22-21.86,1.66-1.62,2.88-2.68,4.82-4.18l7.9-6.09Z"/>
          </g>
          <g>
            <path class="cls-1" d="M368.59,736.99c5.25-.64,9.12,4.69,11.88,9.22,16.99,27.9,29.55,57.27,38.18,88.81l9.21,33.67c-16.21,44.78-28.39,89.67-28.07,137.28.15,21.77,1.62,43.32,7.5,63.82-26.23,5.97-52.7,9.58-80.15,7.6s-55.14-8.14-81.22-19.04c-22.42-9.37-43.07-20.55-62.29-35.37-47.12-36.34-84.23-85.75-101.9-142.17.29-.49.91-1.85,1.93-1.8,3.32.14,4.34-2.17,6.36-3.79,17.08-13.65,20.81-27.13,31.14-47.43,9.89,15.5,20.44,29.64,34.32,40.29.11.55.16,1.44.83,1.7.58.22,1.2-.37,1.57-.81l1.72.03c1.32,3.89,5.53-6.7,5.92-8.24.06-.23-.08-.51-.04-.74,1.01.24,1.87-.46,2.35-1.68l4.88-12.39c3.19-8.08,5.44-15.98,6.48-24.64.35-2.91,1.6-5.24.67-8.46-.29-.99,1.73-1.66,2.44-1.7.87-.05,1.75.64,2.6,1.53,5.7,6.03,12.42,10.05,19.3,14.74,13.03,8.87,27.21,15.08,41.77,21.28,3.8,1.62,7.56,4.85,11.67,4.71,2.81-1.42,4.3-5.9,5.29-9.14,6.97-22.83,9.24-46.5,6.84-70.34-.6-5.95-2.6-11.61-.73-17.87,13.18,3.11,24.82,8.91,36.8,14.45,3.69,1.71,8.13,1.98,10.65,5.27,2.01-.26,4.01-.17,5.75-.92.03-7.47,1.34-14.59-.03-21.7l-4.62-23.99c-.46-2.41,3.99-2.68,5.62-2.06,9.95,3.74,19.59,6.27,29.73,9.23,2.93.86,6.29-.11,8.99,1.05,2.97,1.27,4.6-.15,6.64-.4Z"/>
            <path class="cls-7" d="M81.72,880.82c17.67,56.42,54.78,105.83,101.9,142.17,19.22,14.82,39.87,25.99,62.29,35.37,26.08,10.9,52.98,17.01,81.22,19.04s53.92-1.63,80.15-7.6c7.11,24.79,19.35,47.5,35.56,68.19-.92,2.25-3.47,2.21-4.41,3.76-44.42,15.56-91.03,22.12-138.2,12.57-48.39-9.79-93.27-32.05-130.95-63.75-13.25-11.14-24.02-23.43-35.5-35.47-.67-.7-.83-2-1.97-2.25-.12-2.55-2.91-3.46-4.11-5.09-37.37-50.96-54.41-98.04-58.21-161.62-.03-.47.4-.97.42-1.45l11.81-3.86Z"/>
            <path class="cls-9" d="M368.36,733.98l-1.82-.13c-1.88-3.51-6.01-5.06-9.31-7.75-11.81-9.61-23.84-17.95-36.71-26.28-14.68-9.49-29.12-18.09-42.62-29.21-9.7-7.99-15.7-14.44-13.16-27.73-67.13-31.46-135.79-37.86-206.83-16.17-13.26,4.05-25.36,8.66-37.65,16.08,19.14,11.06,34.49,24.93,47.41,42.18,11,14.69,27.41,45.38,23.54,63.83-9.09-5.77-14.26-22-23.81-27.06,7.01,27.41,8.34,56.22,4.57,83.44-.5,3.61-.18,7.56-.25,10.76-.92.2-1,1.21-1,2v4c0,.66.13,1.36,0,2-.38,1.88.56,4.18,0,6-1.28,1.12-1.06,10.07-1.77,17.09-.69,6.87-.22,13.47-.2,19.91-3.6,2.25-1.91-10.97-.98-12.85-2.24-3.06-.24-6.12-.21-9.21.08-6.5.45-12.46.96-18.89l.95-12.05.92-10.09,1.19-15.86.02-24.06c.01-14.07-3.37-27.33-5.64-41.02-.19-1.12.14-2.12.76-2.67,3.04-2.69,12.57,11.3,14.18,13.47l5.08,6.87c.52.7,1.54,1.26,2.13,1.06.48-.16,1.45-.75,1.4-1.76-.83-16.33-13.55-40.78-23.05-53.72-12.71-17.32-28.73-30.69-46.85-42.04-1.13-4.58,13.16-10.11,16-11.31,15.78-6.7,31.5-10.94,48.27-14.57,24.59-5.33,48.97-7.44,74.18-5.55,36.27,2.73,70.86,11.58,103.79,26.75,10.37,2.61-.85,8.18,8.45,20.66,2.73,3.67,5.99,5.82,9.46,8.94l6.26,5.61,31.18,20.82,24.5,16.19,24.87,19.28c1.3,1.01,1.94,1.67,1.77,3.03Z"/>
            <path class="cls-1" d="M366.55,733.86l1.82.13c-.12.97.43,2.02.22,3.01-2.03.25-3.67,1.67-6.64.4-2.7-1.16-6.06-.2-8.99-1.05-10.14-2.96-19.78-5.5-29.73-9.23-1.63-.61-6.09-.34-5.62,2.06l4.62,23.99c1.37,7.11.06,14.22.03,21.7-1.75.75-3.74.65-5.75.92-2.52-3.29-6.95-3.56-10.65-5.27-11.98-5.55-23.62-11.34-36.8-14.45-1.86,6.25.13,11.92.73,17.87,2.4,23.83.13,47.5-6.84,70.34-.99,3.24-2.48,7.72-5.29,9.14-4.12.14-7.88-3.1-11.67-4.71-14.56-6.2-28.74-12.41-41.77-21.28-6.89-4.69-13.6-8.71-19.3-14.74-.84-.89-1.72-1.58-2.6-1.53-.72.04-2.73.71-2.44,1.7.93,3.22-.32,5.55-.67,8.46-1.04,8.66-3.3,16.56-6.48,24.64l-4.88,12.39c-.48,1.22-1.34,1.92-2.35,1.68.13-.77-.1-1.84.41-2.97,9.76-21.54,10.33-28.9,12.34-52.11l21.41,17.14c16.91,13.53,37.06,21.58,57.94,29.34,8.06-15.98,11.64-45.66,10.76-62.49l-.78-15.02-3.04-21.98c19.41,6.08,37.31,13.29,55.66,22.36,1.65-18.95-2.57-36.07-8.67-53.41,11.97,3.55,46.21,17.59,55.04,12.98Z"/>
            <path class="cls-11" d="M161.63,865.79c-.49,1.2-.85,2.44-2.03,3.21l-1.72-.03c-.13-1.05-1.64-.7-2.4-.89-13.88-10.66-24.43-24.79-34.32-40.29-10.33,20.3-14.06,33.79-31.14,47.43-2.03,1.62-3.04,3.94-6.36,3.79-1.03-.04-1.64,1.31-1.93,1.8l-11.81,3.86c-1.78-5.06-1.15-10.43-1.16-15.74v-2c-.02-6.44-.49-13.05.2-19.91.71-7.01.49-15.96,1.77-17.09,2.11,1.37.64,4.47.8,7.05.52,8.2,6.22,38.06,10.92,39.92,1.13.45,2.04-.18,3.15-1,9.52-6.98,16.43-16.11,21.82-26.42,2.25-4.31,8.77-13.96,9.98-20.1.53-2.7,1.05-5.37,3.55-7.69,8.1,15.96,18.89,28.66,31.29,40.67,2.89,2.8,5.35,4.71,9.4,3.42Z"/>
            <path class="cls-9" d="M69.92,884.68c-.02.47-.45.97-.42,1.45-.61.5-1.74-.26-1.74-1.18l-.07-14.05c0-1.05.28-2.05,1.06-1.95.01,5.31-.61,10.68,1.16,15.74Z"/>
            <path class="cls-2" d="M130.76,1068.78c-1-1.54-3.98-2.23-3.92-4.67,2.49-.11,3.8,2.4,3.92,4.67Z"/>
            <path class="cls-6" d="M366.55,733.86c-8.82,4.61-43.06-9.43-55.04-12.98,6.1,17.34,10.32,34.46,8.67,53.41-18.35-9.08-36.25-16.29-55.66-22.36l3.04,21.98.78,15.02c.88,16.83-2.7,46.51-10.76,62.49-20.88-7.76-41.04-15.81-57.94-29.34l-21.41-17.14c-2,23.2-2.57,30.56-12.34,52.11-.51,1.13-.28,2.2-.41,2.97-.04.24.1.51.04.74-2.31.34-3.08,3.05-3.89,5.03-4.05,1.29-6.5-.62-9.4-3.42-12.41-12.02-23.19-24.72-31.29-40.67-2.5,2.32-3.02,4.99-3.55,7.69-1.21,6.14-7.72,15.79-9.98,20.1-5.39,10.31-12.3,19.45-21.82,26.42-1.11.81-2.02,1.44-3.15,1-4.7-1.86-10.39-31.72-10.92-39.92-.17-2.59,1.31-5.68-.8-7.05.56-1.82-.38-4.12,0-6,.79.18,1.3-.62,1-1.47-.12-.33-.48-.67-1-.53v-4c.58,0,1.54.31,2-.51.34-.61-.73-1.15-1-1.49.07-3.2-.25-7.15.25-10.76,3.77-27.21,2.44-56.02-4.57-83.44,9.54,5.06,14.72,21.29,23.81,27.06,3.87-18.45-12.55-49.14-23.54-63.83-12.92-17.25-28.27-31.12-47.41-42.18,12.3-7.42,24.39-12.03,37.65-16.08,71.04-21.69,139.71-15.29,206.83,16.17-2.54,13.29,3.46,19.74,13.16,27.73,13.5,11.12,27.94,19.71,42.62,29.21,12.87,8.33,24.9,16.67,36.71,26.28,3.3,2.69,7.43,4.25,9.31,7.75Z"/>
            <path class="cls-1" d="M165.52,860.76c-.4,1.54-4.6,12.14-5.92,8.24,1.18-.78,1.54-2.01,2.03-3.21.81-1.98,1.58-4.69,3.89-5.03Z"/>
            <path class="cls-1" d="M157.88,868.98c-.36.44-.99,1.03-1.57.81-.67-.26-.73-1.15-.83-1.7.75.19,2.27-.16,2.4.89Z"/>
            <path class="cls-2" d="M133.79,1055.1c.32.96-1.15,1.07-1.62.82-1.02-.54-.28-1.69-.35-3.08,1.14.26,1.3,1.55,1.97,2.25Z"/>
            <path class="cls-11" d="M70.72,817.94c0-.79.07-1.8,1-2,.27.34,1.34.88,1,1.49-.46.82-1.42.51-2,.51Z"/>
            <path class="cls-11" d="M70.72,823.94c.13-.64,0-1.34,0-2,.52-.14.89.2,1,.53.3.85-.21,1.65-1,1.47Z"/>
          </g>
        </g>
      </g>
    </g>
  </g>
</svg>