<?xml version="1.0" encoding="UTF-8"?>
<svg id="_레이어_2" data-name="레이어 2" xmlns="http://www.w3.org/2000/svg" viewBox="0 0 1746.91 708.13">
  <defs>
    <style>
      .cls-1 {
        fill: #f59ba7;
      }
    </style>
  </defs>
  <g id="_레이어_1-2" data-name="레이어 1">
    <g>
      <path class="cls-1" d="M171.6,48.96h96.97v57.99H0v-57.99h96.97V0h74.63v48.96ZM257.17,272.86c0,24.72-3.33,45.16-9.98,62.27-6.65,17.11-15.69,30.9-26.62,42.31-11.41,10.46-24.72,18.54-39.46,23.77-15.21,4.75-30.9,7.13-47.06,7.13-17.11,0-32.8-2.38-47.06-7.13-15.21-5.23-28.05-13.31-38.98-23.77-11.41-11.41-19.97-25.19-26.15-42.31-6.65-17.11-9.98-37.55-9.98-62.27s3.33-44.68,9.98-62.27c6.18-17.11,14.74-30.9,26.15-41.83,10.93-10.46,23.77-18.54,38.98-23.77,14.26-4.75,29.95-7.61,47.06-7.61,16.16,0,31.85,2.85,47.06,7.61,14.74,5.23,28.05,13.31,39.46,23.77,10.93,10.93,19.96,24.72,26.62,41.83,6.66,17.59,9.98,38.5,9.98,62.27ZM86.04,272.86c0,24.72,3.8,43.73,12.36,57.04,8.08,13.79,19.96,20.44,35.65,20.44,14.74,0,26.62-6.66,35.65-19.97,8.56-13.31,12.83-32.32,12.83-57.99s-4.28-43.73-12.83-57.04c-9.03-13.31-20.92-19.96-35.65-19.96-15.69,0-27.57,6.66-35.65,19.96-8.56,13.79-12.36,32.8-12.36,57.52ZM382.66,159.72h41.36v57.99h-41.36v190.62h-74.63V10.93h74.63v148.79Z"/>
      <path class="cls-1" d="M456.33,291.87h396.92v57.99h-161.15v73.21h-74.63v-73.21h-161.15v-57.99ZM479.63,78.43V20.44h359.84v144.98h-285.21v29.47h289.97v57.99h-364.6V107.43h285.21v-29h-285.21Z"/>
      <path class="cls-1" d="M903.16,350.34h137.38v-96.97h74.63v96.97h184.91v57.99h-396.92v-57.99ZM1202.16,211.53h-275.71v-57.99h275.71v-75.11h-275.71V20.44h350.34v275.23h-74.63v-84.14Z"/>
      <path class="cls-1" d="M1728.37,228.17v57.99h-142.61v64.17h161.15v57.99h-396.92v-57.99h161.15v-64.17h-137.85V20.44h350.34v57.99h-275.71v45.63h275.71v57.99h-275.71v46.11h280.46Z"/>
    </g>
    <g>
      <path class="cls-1" d="M449.52,607.91c2.86-7.4,5.55-15.02,8.08-22.85,2.52-7.83,4.8-15.86,6.82-24.11,2.02-8.25,3.79-16.58,5.3-24.99,1.52-8.41,2.61-16.83,3.28-25.25l44.69,9.34c-.67,2.69-1.51,5.93-2.52,9.72-1.01,3.79-1.89,7.45-2.65,10.98-.76,3.53-1.31,6.31-1.64,8.33-.84,4.71-2.02,10.19-3.53,16.41-1.51,6.23-3.24,12.71-5.18,19.44-1.94,6.73-3.91,13.42-5.93,20.07-2.02,6.65-4.04,12.75-6.06,18.3-2.86,8.42-6.4,17.17-10.6,26.26-4.21,9.09-8.63,17.76-13.25,26-4.63,8.25-9.05,15.4-13.25,21.46l-43.17-18.18c7.91-10.26,15.4-21.79,22.47-34.59,7.07-12.79,12.79-24.91,17.17-36.35ZM574.23,605.13c-2.36-6.73-5.09-13.97-8.21-21.71-3.12-7.74-6.35-15.53-9.72-23.35-3.37-7.83-6.65-15.19-9.85-22.09-3.2-6.9-6.15-12.79-8.84-17.67l40.9-13.13c2.69,5.05,5.76,11.15,9.21,18.3,3.45,7.16,6.9,14.73,10.35,22.72,3.45,8,6.77,15.78,9.97,23.35,3.2,7.57,5.89,14.22,8.08,19.94,2.02,5.39,4.33,11.83,6.94,19.31,2.61,7.49,5.26,15.36,7.95,23.6,2.69,8.25,5.26,16.37,7.7,24.36,2.44,8,4.5,15.27,6.19,21.84l-45.7,14.89c-2.36-10.77-4.84-21.33-7.45-31.68-2.61-10.35-5.34-20.45-8.21-30.29-2.86-9.85-5.98-19.31-9.34-28.4Z"/>
      <path class="cls-1" d="M652.49,682.13c11.44-7.91,20.58-17.33,27.39-28.28,6.82-10.94,11.82-21.37,15.02-31.3,1.85-5.21,3.24-11.78,4.17-19.69.92-7.91,1.64-16.45,2.15-25.62.51-9.17.8-18.39.88-27.64.08-9.25.13-17.84.13-25.75,0-5.89-.25-10.86-.76-14.9s-1.18-7.74-2.02-11.11h44.94c-.67,5.22-1.18,9.76-1.51,13.63-.34,3.87-.5,7.83-.5,11.87,0,7.74-.09,16.58-.25,26.51-.17,9.93-.5,20.03-1.01,30.29-.5,10.27-1.22,19.99-2.15,29.16-.93,9.17-2.23,16.96-3.91,23.35-3.87,14.64-9.64,28.19-17.29,40.65-7.66,12.46-16.96,23.64-27.9,33.58l-37.36-24.74ZM770.14,687.18c.67-2.69,1.22-5.89,1.64-9.59.42-3.7.63-7.49.63-11.36v-144.91c0-6.22-.76-14.05-2.27-23.48h45.44c-1.35,9.59-2.02,17.51-2.02,23.73v124.21c6.39-2.69,12.88-6.39,19.44-11.11,6.56-4.71,13-10.22,19.31-16.54s12.07-13.17,17.29-20.58l23.48,33.83c-6.73,8.58-15.02,17.25-24.87,26-9.85,8.75-20.03,16.79-30.55,24.11-10.52,7.32-20.49,13.42-29.92,18.3-3.03,1.68-5.47,3.24-7.32,4.67-1.85,1.43-3.45,2.65-4.8,3.66l-25.5-20.95Z"/>
      <path class="cls-1" d="M918.58,646.03c4.88.34,10.18.67,15.9,1.01,5.72.34,11.53.5,17.42.5h137.08v40.39h-135.82c-4.71,0-10.52.17-17.42.5-6.9.34-12.62.76-17.17,1.26v-43.67ZM921.61,510.21c5.05.5,10.73.93,17.04,1.26,6.31.34,11.74.5,16.28.5h128.75c4.04,0,8.58-.08,13.63-.25,5.05-.17,8.5-.34,10.35-.5-.17,3.03-.34,6.99-.5,11.87-.17,4.88-.25,9.43-.25,13.63v131.03c0,4.21.13,9.51.38,15.91.25,6.4.54,12.03.88,16.92h-44.43c.17-4.88.29-9.59.38-14.14.08-4.54.13-9.17.13-13.89v-120.93h-109.31c-5.72,0-11.74.09-18.05.25-6.31.17-11.4.42-15.27.76v-42.41Z"/>
      <path class="cls-1" d="M1186.95,667.74v-144.15c0-5.05-.25-10.6-.76-16.66-.5-6.06-1.26-11.44-2.27-16.16h47.71c-.5,4.71-1.05,9.85-1.64,15.4-.59,5.55-.88,11.36-.88,17.42v144.15c0,2.19.13,5.6.38,10.22.25,4.63.63,9.47,1.14,14.52s.92,9.51,1.26,13.38h-47.97c.84-5.39,1.55-11.78,2.15-19.19.59-7.4.88-13.72.88-18.93ZM1220.02,555.65c8.41,2.19,17.92,5.01,28.53,8.46,10.6,3.45,21.29,7.11,32.06,10.98,10.77,3.87,20.83,7.66,30.17,11.36,9.34,3.7,16.87,6.99,22.6,9.85l-17.42,42.67c-7.07-3.7-14.77-7.36-23.1-10.98-8.33-3.62-16.75-7.15-25.25-10.6-8.5-3.45-16.83-6.65-24.99-9.59-8.17-2.94-15.7-5.59-22.6-7.95v-44.18Z"/>
    </g>
  </g>
</svg>