<?xml version="1.0" encoding="UTF-8"?>
<svg id="_레이어_2" data-name="레이어 2" xmlns="http://www.w3.org/2000/svg" viewBox="0 0 1746.91 1880.31">
  <defs>
    <style>
      .cls-1 {
        fill: #f59ba7;
      }
    </style>
  </defs>
  <g id="_레이어_1-2" data-name="레이어 1">
    <g>
      <path class="cls-1" d="M696.8,560.84c-1.74,13.76,6.18,25.71,20.34,28.1l36.82,6.2c21.15,3.56,41.5,9.04,60.2,19.56,17.56,9.88,46.05,32.78,50.14,52.91,3.21,15.81,3.21,52.2,3.09,69.82-.26,38.32-12.12,74.6-35.69,104.84-20.8,26.68-59.2,58.16-88.98,73.13l-27,13.57c-.79.25-2.21,1.04-3.01,1.2-5.48,1.12-15.33,5.62-21.4,7.64-25.47,8.49-50.47,13.63-77.23,17.33l-.71-32.6-1.7-61.24c-.03-1.13-.26-2.03-.89-2.46-1.71-1.16-17.62,5.4-19.95,6.55h-1.83c-.92,0-2.04-.09-2.27,1.01-1.06-.05-2.04.87-3.02,1.08-7.97,1.75-15.46,5.21-23.66,7.67-13.05,3.91-25.65,7.45-39.21,10.53l-4.11-29.52c-8.61-61.92-.28-123.02,26.24-179.64,6.06-12.93,13.15-24.14,20.76-36.15,7.43-11.71,16.5-21.98,26.5-31.53,12.63-12.07,26.63-19.9,42.59-26.6,15.54-6.52,31.05-11.65,47.19-16.44,5.25-1.56,10.06-3.44,14.63-5.62.76,0,1.45.48,2.16.65Z"/>
      <g>
        <g>
          <path class="cls-1" d="M1028.53,309.64c.95-1.48,1.7-4.05,2.89-5.18,5.9-5.64,9.41-13.29,15.28-19.53,5.35-5.69,10.72-11.12,16.58-16.27,1.95-1.71,4.98-2.21,5.31-4.73.22-.04.61-.07.8-.19,11.95-7.45,24.13-14.26,38.08-18.72,21.45-6.86,42.52-10.71,64.96-13.18,22.99-2.53,44.98-1.05,67.9,2.03,38.73,5.21,64.23,13.26,99.47,29.36,5.12,2.34,10.07,4.93,13.96,8.92,1.11,1.14-.57,3.84-1.36,5.01-14.82,21.82-29.26,43.26-42.87,65.83-1.28,2.12-2.2,3.98-2.15,6.76,7.1,2.74,13.94,5.22,21.28,7.6l45.33,14.68c6.72,2.17,13.2,4.65,19.68,7.09-1.63,8.96-6.25,15.24-9.61,22.59-2.5,5.45-5.33,10.17-8.43,15.32-24.58,40.85-50.99,71.93-89.1,100.76-3.83,2.9-6.93,5.42-10.99,8-27.95,17.77-60.98,35.14-94.69,37.17-38.29,2.3-57.52-6.17-92.12-17.36l-27.19-8.79v-166.62c-15.8.11-27.35,4.51-42.51,6.32-.65-9.33-.36-17.72-.26-26.68.03-2.69,1.88-6.71-.73-8.65-2.27-1.69-5.57.55-9.07-1.09l19.57-30.44Z"/>
          <path class="cls-1" d="M669.88,545.43c-3.27,1.91-7.85.66-10.19,3.17l-21.81,7c-36.01,11.92-74.27,10.25-109.24-4.86-8.56-3.7-16.58-7-24.68-11.48-21.17-11.7-40.1-25.54-57.81-41.88-35.48-32.74-60.54-67.13-81.08-110.62-1.27-2.68-2.05-5.19-1.82-7.89l47.84-16.06c12.92-4.34,25.44-7.85,38.39-12.83-.99-4.1-2.69-7.54-4.93-11.04l-31.63-49.19c-3.85-5.99-7.79-11.51-10.77-18.09,4.84-4.68,10.77-6.28,16.84-9.09,34.46-15.99,70.92-25.69,108.79-29.93,11.45-1.28,21.61-2.43,33.14-2.33,28.4.26,56.21,4.42,83.31,12.97,24.98,7.88,49.53,21.53,66.05,42.01,14.08,17.46,26.22,35.57,37.87,54.94-3.98,1.38-6.79,0-10.27.62l.06,35.68c-16.07-1.91-26.17-6.43-43.06-6.7l.15,157.35c0,2.88,2.09,8.19-.62,9.68-8.01,4.1-17.11,4.27-24.5,8.58Z"/>
        </g>
        <g>
          <path class="cls-1" d="M1015.54,288.68c-.57.95-1.25,1.27-1.15,1.93-1.41.31-2,1.75-2.02,3.08-1.49.74-1.19,2.41-1.87,3.12-5.36,5.62-8.39,12.22-12.57,18.39l-17.27,25.56c-1.55,2.3-2.83,5.51-6.01,6-6.79,1.05-13.04,3.07-19.23,4.68-3.98,1.04-6.68,1.9-9.83,3.16-21.49,8.6-51.7,27.72-61.17,49.23-.24.55-.74,1.01-.73,1.66l-5.22,6.54c-19.34-31.91-37.41-44.77-70.01-58.45-2.18-.92-3.92-1.51-5.7-1.92l-23.31-5.99-13.6-20.04-22.87-35.3c-15.56-24.01-24.78-53.93-25.76-82.64-.47-13.85-.66-27.39,3.88-40.53,6.97-20.17,13.1-39.68,22.09-59.08,10.64-22.96,23.41-43.99,38.45-64.25,11.61-15.63,24.37-29.35,38.5-42.49.85-.79,2.16-1.15,2.82-1.03.51.1,1.45.59,1.98,1.33l29.32,40.55,21.08,28.86c.77,1.05,1.88,1.86,2.73,1.83.71-.02,1.83-.24,2.48-1.12l33.53-45.38c6.76-9.15,12.54-18.29,21.37-26.4,27.51,25.68,50.57,54.21,68.24,86.62,14.21,26.05,23.6,53.23,32.91,81.08,3.15,9.42,3.65,18.15,3.92,28.13.89,33.32-8.16,64.76-24.99,92.85Z"/>
          <path class="cls-1" d="M997.72,367.44l-.43,156.77c-.02,7.75-5.81,11.81-12.1,13.8-16.08,5.1-32.73,10.3-44.97,21.13-1.05-.07-1.82.99-2.59,1.42-6.06,3.36-11.84,8.19-15.9,14.31,13.51-5.39,24.77-10.11,37.54-13.67,16.06-4.49,32.04-7.2,48.35-10.51,6.5-1.32,10.93-6.53,10.94-13.38l.06-136.38c2.6-2.76,16.49-5.08,21.56-6l.25,136.7v6.73c0,4.42-.05,9.05-.55,13.75-1.11,10.4-8.22,17.77-18.54,19.27l-26.89,3.91c-3.32.48-6.41.41-8.91,1.99-.7.36-2.07.24-2.88.37-1.81.28-3.78.38-5.15,1.75-.64.04-1.35-.14-1.98.02-20.19,5.34-40.62,13.2-56.95,26.11-.27.21-.81.65-.94.96-1.4.14-2.57,1.04-3.84,2.17l-13.22,11.77c-12.6,11.22-26.75,14.12-40.54,2.59l-19.11-15.97c-1.58-1.32-2.72-1.43-4.26-1.73-.33-1.07-.81-1.88-2.19-2.75-21.63-13.61-44.8-22.89-70.04-26.94l-30.89-4.96c-9.96-1.6-16.55-9.28-16.72-19.22l-.58-33.82c-.07-4.02.25-7.24.25-11.3l.09-110.56c.25-.45,1.03-.67,1.22-1.14,1.3.44,2.66.75,4.04.85.52.04,1.28-.04,1.77-.08,1.22,2.01,9.8,2.72,14.33,4.58l.25,136.75c.01,7.22,3.91,12.96,10.83,14.15,33.28,5.72,51.45,9.31,83.54,22.94.81-3.4-12.11-13.55-14.78-13.38.25-1.41-1.45-2.45-2.87-3.32-13.53-8.33-27.52-14.78-42.92-18.87-7.23-1.92-12.2-6.97-12.23-14.9l-.51-129.18c-.03-7.43-.18-14.16-.74-20.86-.04-.49.23-1.02.22-1.52.45-.44.86-1,.87-1.68,0-.5.21-1.89-.76-1.59.29-.88-.14-1.99-.01-2.89,5.22-.55,9.71,2.73,14.71,3.98.31.08.69.19,1.01.18,3.34,4.03,5.69,8.25,5.62,14.12l-.43,35.74.44,89.29c.03,5.15,4.9,9.93,9.17,11.87,33.3,15.15,48.98,22.63,73.26,51.58,6.15,7.33,10.1,15.68,15.39,24.71,7.99-12.79,14.98-25.82,26.01-35.89,5.23-4.78,9.76-9.64,15.3-13.97,15.37-12.02,32.62-19.93,50.5-27.51,4.66-1.97,6.57-8.33,6.58-13.26l.18-124.72c.02-15.63,17.97-12.56,16.86-17.08,2.53-.36,3.01,2.25,4.25,2.78Z"/>
        </g>
      </g>
      <path class="cls-1" d="M1065.26,560.44c1.55,1.61,3.94,1.97,6.41,2.8,18.02,6.04,35.33,10.84,53.06,18.21,5.53,2.3,14.58,7.39,19.68,8.95.52.16,1.34,1.26,1.93.92,1.35,2.86,4.85,3.7,7.52,5.63l8.76,6.35c3.72,2.7,19.43,18.81,22.34,22.63,56.94,74.71,70.62,168.79,53.35,260.25l-49-13.94c-.83-.24-2.2-1.01-3.11-1.06-1.17-.88-2.46-1.82-4.09-1.74-.54.03-1.07-.23-1.61-.25-1.37-1.31-3.42-1.69-5.28-1.96-1.55-.22-3.47-.99-4.99-.99-6.74-3.64-14.56-5.28-22.35-7.85l-.58,21.84.07,1.85-.03,2.26v1.76s0,2.2,0,2.2c-.7,1.83.5,4.05.12,5.83-2.28,10.45-1.21,21.33-1.63,32.43l-1.08,28.34c-72.85-9.19-139.19-35.62-192.74-86.05-37.16-35-57.38-71.42-59.63-123.49-.73-16.83-1.63-76.04,5.56-87.75,6.31-10.27,14.53-18.35,23.39-26.47,8.12-7.44,17.72-12.29,26.19-18.66.61.03,1.75-.69,2.06-1.2,16.55-6.88,33.27-13.08,51.72-15.24.95-.15,1.47-.87.58-1.35.46.09,1.17-.19,1.58.03,3.17,1.72,6.76-.01,9.94-1.14,1.15-.27,2.7-.13,3.91-.25,7.35-.74,14.61-2.04,22.33-3.78,16.66-3.77,22.87-12.78,23.02-28.94l2.61-.18Z"/>
    </g>
    <g>
      <g>
        <path class="cls-1" d="M171.6,1221.14h96.97v57.99H0v-57.99h96.97v-48.96h74.63v48.96ZM257.17,1445.03c0,24.72-3.33,45.16-9.98,62.27-6.65,17.11-15.69,30.9-26.62,42.31-11.41,10.46-24.72,18.54-39.46,23.77-15.21,4.75-30.9,7.13-47.06,7.13-17.11,0-32.8-2.38-47.06-7.13-15.21-5.23-28.05-13.31-38.98-23.77-11.41-11.41-19.97-25.19-26.15-42.31-6.65-17.11-9.98-37.55-9.98-62.27s3.33-44.68,9.98-62.27c6.18-17.11,14.74-30.9,26.15-41.83,10.93-10.46,23.77-18.54,38.98-23.77,14.26-4.75,29.95-7.61,47.06-7.61,16.16,0,31.85,2.85,47.06,7.61,14.74,5.23,28.05,13.31,39.46,23.77,10.93,10.93,19.96,24.72,26.62,41.83,6.66,17.59,9.98,38.5,9.98,62.27ZM86.04,1445.03c0,24.72,3.8,43.73,12.36,57.04,8.08,13.79,19.96,20.44,35.65,20.44,14.74,0,26.62-6.66,35.65-19.97,8.56-13.31,12.83-32.32,12.83-57.99s-4.28-43.73-12.83-57.04c-9.03-13.31-20.92-19.96-35.65-19.96-15.69,0-27.57,6.66-35.65,19.96-8.56,13.79-12.36,32.8-12.36,57.52ZM382.66,1331.9h41.36v57.99h-41.36v190.62h-74.63v-397.4h74.63v148.79Z"/>
        <path class="cls-1" d="M456.33,1464.04h396.92v57.99h-161.15v73.21h-74.63v-73.21h-161.15v-57.99ZM479.63,1250.61v-57.99h359.84v144.98h-285.21v29.47h289.97v57.99h-364.6v-145.46h285.21v-29h-285.21Z"/>
        <path class="cls-1" d="M903.16,1522.51h137.38v-96.97h74.63v96.97h184.91v57.99h-396.92v-57.99ZM1202.16,1383.71h-275.71v-57.99h275.71v-75.11h-275.71v-57.99h350.34v275.23h-74.63v-84.14Z"/>
        <path class="cls-1" d="M1728.37,1400.35v57.99h-142.61v64.17h161.15v57.99h-396.92v-57.99h161.15v-64.17h-137.85v-265.72h350.34v57.99h-275.71v45.63h275.71v57.99h-275.71v46.11h280.46Z"/>
      </g>
      <g>
        <path class="cls-1" d="M449.52,1780.08c2.86-7.4,5.55-15.02,8.08-22.85,2.52-7.83,4.8-15.86,6.82-24.11,2.02-8.25,3.79-16.58,5.3-24.99,1.52-8.41,2.61-16.83,3.28-25.25l44.69,9.34c-.67,2.69-1.51,5.93-2.52,9.72-1.01,3.79-1.89,7.45-2.65,10.98-.76,3.53-1.31,6.31-1.64,8.33-.84,4.71-2.02,10.19-3.53,16.41-1.51,6.23-3.24,12.71-5.18,19.44-1.94,6.73-3.91,13.42-5.93,20.07-2.02,6.65-4.04,12.75-6.06,18.3-2.86,8.42-6.4,17.17-10.6,26.26-4.21,9.09-8.63,17.76-13.25,26-4.63,8.25-9.05,15.4-13.25,21.46l-43.17-18.18c7.91-10.26,15.4-21.79,22.47-34.59,7.07-12.79,12.79-24.91,17.17-36.35ZM574.23,1777.3c-2.36-6.73-5.09-13.97-8.2-21.71-3.12-7.74-6.35-15.53-9.72-23.35-3.37-7.83-6.65-15.19-9.85-22.09-3.2-6.9-6.15-12.79-8.84-17.67l40.9-13.13c2.69,5.05,5.76,11.15,9.21,18.3,3.45,7.16,6.9,14.73,10.35,22.72,3.45,8,6.77,15.78,9.97,23.35,3.2,7.57,5.89,14.22,8.08,19.94,2.02,5.39,4.33,11.83,6.94,19.31,2.61,7.49,5.26,15.36,7.95,23.6,2.69,8.25,5.26,16.37,7.7,24.36,2.44,8,4.5,15.27,6.19,21.84l-45.69,14.89c-2.36-10.77-4.84-21.33-7.45-31.68-2.61-10.35-5.34-20.45-8.2-30.29-2.86-9.85-5.98-19.31-9.34-28.4Z"/>
        <path class="cls-1" d="M652.49,1854.3c11.44-7.91,20.58-17.33,27.39-28.28,6.82-10.94,11.82-21.37,15.02-31.3,1.85-5.21,3.24-11.78,4.17-19.69.92-7.91,1.64-16.45,2.15-25.62.51-9.17.8-18.39.88-27.64.08-9.25.13-17.84.13-25.75,0-5.89-.25-10.86-.76-14.9-.5-4.04-1.18-7.74-2.02-11.11h44.94c-.67,5.22-1.18,9.76-1.51,13.63-.34,3.87-.5,7.83-.5,11.87,0,7.74-.09,16.58-.25,26.51-.17,9.93-.5,20.03-1.01,30.29-.5,10.27-1.22,19.99-2.15,29.16-.93,9.17-2.23,16.96-3.91,23.35-3.87,14.64-9.64,28.19-17.29,40.65-7.66,12.46-16.96,23.64-27.9,33.58l-37.36-24.74ZM770.14,1859.35c.67-2.69,1.22-5.89,1.64-9.59.42-3.7.63-7.49.63-11.36v-144.91c0-6.22-.76-14.05-2.27-23.48h45.44c-1.35,9.59-2.02,17.51-2.02,23.73v124.21c6.39-2.69,12.88-6.39,19.44-11.11,6.56-4.71,13-10.22,19.31-16.54,6.31-6.31,12.07-13.17,17.29-20.58l23.48,33.83c-6.73,8.58-15.02,17.25-24.87,26-9.85,8.75-20.03,16.79-30.55,24.11-10.52,7.32-20.49,13.42-29.92,18.3-3.03,1.68-5.47,3.24-7.32,4.67-1.85,1.43-3.45,2.65-4.8,3.66l-25.5-20.95Z"/>
        <path class="cls-1" d="M918.58,1818.2c4.88.34,10.18.67,15.9,1.01,5.72.34,11.53.5,17.42.5h137.08v40.39h-135.82c-4.71,0-10.52.17-17.42.5-6.9.34-12.62.76-17.17,1.26v-43.67ZM921.61,1682.38c5.05.5,10.73.93,17.04,1.26,6.31.34,11.74.5,16.28.5h128.75c4.04,0,8.58-.08,13.63-.25,5.05-.17,8.5-.34,10.35-.5-.17,3.03-.34,6.99-.5,11.87-.17,4.88-.25,9.43-.25,13.63v131.03c0,4.21.13,9.51.38,15.91.25,6.4.54,12.03.88,16.92h-44.43c.17-4.88.29-9.59.38-14.14.08-4.54.13-9.17.13-13.89v-120.93h-109.31c-5.72,0-11.74.09-18.05.25-6.31.17-11.4.42-15.27.76v-42.41Z"/>
        <path class="cls-1" d="M1186.95,1839.91v-144.15c0-5.05-.25-10.6-.76-16.66-.5-6.06-1.26-11.44-2.27-16.16h47.71c-.5,4.71-1.05,9.85-1.64,15.4-.59,5.55-.88,11.36-.88,17.42v144.15c0,2.19.13,5.6.38,10.22.25,4.63.63,9.47,1.14,14.52s.92,9.51,1.26,13.38h-47.97c.84-5.39,1.55-11.78,2.15-19.19.59-7.4.88-13.72.88-18.93ZM1220.02,1727.82c8.41,2.19,17.92,5.01,28.53,8.46,10.6,3.45,21.29,7.11,32.06,10.98,10.77,3.87,20.83,7.66,30.17,11.36,9.34,3.7,16.87,6.99,22.6,9.85l-17.42,42.67c-7.07-3.7-14.77-7.36-23.1-10.98-8.33-3.62-16.75-7.15-25.25-10.6-8.5-3.45-16.83-6.65-24.99-9.59-8.17-2.94-15.7-5.59-22.6-7.95v-44.18Z"/>
      </g>
    </g>
  </g>
</svg>